<svg width="18" height="18" viewBox="0 0 18 18" fill="none" xmlns="http://www.w3.org/2000/svg">
<path d="M16.364 4.6893C15.8219 4.93003 15.2397 5.09202 14.6285 5.16508C15.2527 4.79126 15.7313 4.19936 15.9567 3.49361C15.3733 3.83968 14.7265 4.09117 14.0378 4.22711C13.4866 3.63974 12.7016 3.27271 11.8327 3.27271C10.164 3.27271 8.81145 4.62586 8.81145 6.29395C8.81145 6.5307 8.83865 6.7618 8.88963 6.98213C6.37871 6.85639 4.15272 5.65333 2.66192 3.82496C2.40251 4.27129 2.25354 4.79012 2.25354 5.34464C2.25354 6.3925 2.78654 7.31746 3.59707 7.85894C3.10202 7.84308 2.63587 7.70714 2.22862 7.48114C2.22862 7.49417 2.22862 7.50606 2.22862 7.51909C2.22862 8.98327 3.26969 10.2045 4.65229 10.4814C4.39911 10.5505 4.13176 10.5874 3.85592 10.5874C3.66164 10.5874 3.47189 10.5681 3.28781 10.5335C3.6724 11.7338 4.78824 12.6077 6.11024 12.6321C5.07654 13.4426 3.77379 13.9257 2.35776 13.9257C2.1142 13.9257 1.87348 13.9116 1.63672 13.8833C2.97401 14.7403 4.56167 15.2404 6.26827 15.2404C11.8259 15.2404 14.8642 10.6366 14.8642 6.64399C14.8642 6.51315 14.8613 6.38287 14.8556 6.25316C15.4464 5.82665 15.959 5.29479 16.364 4.6893Z" fill="#9CA3AF"/>
</svg>
