<svg width="16" height="16" viewBox="0 0 16 16" fill="none" xmlns="http://www.w3.org/2000/svg">
<path d="M3.89305 14.1008H1.02825V5.22132H3.89305V14.1008ZM2.45911 4.01007C1.54304 4.01007 0.800003 3.27976 0.800003 2.39804C0.800003 1.97452 0.974801 1.56834 1.28594 1.26887C1.59709 0.969391 2.01909 0.801147 2.45911 0.801147C2.89913 0.801147 3.32113 0.969391 3.63228 1.26887C3.94342 1.56834 4.11822 1.97452 4.11822 2.39804C4.11822 3.27976 3.37487 4.01007 2.45911 4.01007ZM14.6151 14.1008H11.7565V9.77835C11.7565 8.74819 11.7349 7.4271 10.267 7.4271C8.77754 7.4271 8.54929 8.54632 8.54929 9.70413V14.1008H5.68757V5.22132H8.43516V6.43257H8.47526C8.85773 5.73491 9.792 4.99866 11.1858 4.99866C14.0852 4.99866 14.6182 6.83632 14.6182 9.22319V14.1008H14.6151Z" fill="#9CA3AF"/>
</svg>
