<svg width="18" height="18" viewBox="0 0 18 18" fill="none" xmlns="http://www.w3.org/2000/svg">
<path fill-rule="evenodd" clip-rule="evenodd" d="M12.2553 1.80275L10.4346 1.80005C8.38803 1.80005 7.06683 3.18155 7.06683 5.32085V6.94355H5.23623C5.19822 6.9439 5.16065 6.95175 5.12567 6.96665C5.0907 6.98156 5.05901 7.00321 5.03242 7.03039C5.00583 7.05756 4.98487 7.08972 4.97073 7.12501C4.95659 7.1603 4.94956 7.19803 4.95003 7.23605V9.58865C4.95003 9.74975 5.07783 9.88025 5.23623 9.88025H7.06683V16.6653C7.06683 16.8264 7.19553 16.9569 7.35303 16.9569H9.74163C9.77957 16.9566 9.81707 16.9488 9.85199 16.9339C9.8869 16.9191 9.91855 16.8975 9.94513 16.8704C9.97171 16.8433 9.99269 16.8113 10.0069 16.7761C10.0211 16.7409 10.0282 16.7033 10.0278 16.6653V9.87935H12.1689C12.2454 9.87863 12.3185 9.84764 12.3721 9.79314C12.4258 9.73865 12.4556 9.66511 12.4551 9.58865V7.23515C12.4554 7.15829 12.4257 7.08435 12.3723 7.02905C12.3459 7.00192 12.3142 6.98038 12.2793 6.9657C12.2444 6.95101 12.2068 6.94348 12.1689 6.94355H10.0278V5.56745C10.0278 4.90595 10.1826 4.57025 11.0286 4.57025H12.2553C12.3318 4.5693 12.4048 4.53807 12.4582 4.48341C12.5117 4.42875 12.5414 4.35512 12.5406 4.27865V2.09435C12.5414 2.01788 12.5117 1.94425 12.4582 1.88959C12.4048 1.83493 12.3318 1.8037 12.2553 1.80275Z" fill="#9CA3AF"/>
</svg>
