<svg width="18" height="18" viewBox="0 0 18 18" fill="none" xmlns="http://www.w3.org/2000/svg">
<path d="M16.1095 5.74207C15.9292 4.95885 15.2885 4.38101 14.5174 4.29481C12.6911 4.09095 10.8426 4.08988 9.00271 4.09095C7.16246 4.08988 5.31371 4.09095 3.48745 4.29481C2.7167 4.38101 2.07652 4.95885 1.89622 5.74207C1.63961 6.85747 1.63672 8.07502 1.63672 9.22341C1.63672 10.3718 1.63672 11.5892 1.89333 12.7044C2.07333 13.4875 2.71365 14.0653 3.48487 14.1517C5.31097 14.3558 7.15957 14.3568 8.99982 14.3558C10.8404 14.3568 12.6885 14.3558 14.5144 14.1517C15.2852 14.0655 15.926 13.4877 16.1064 12.7044C16.3631 11.589 16.364 10.3716 16.364 9.22341C16.364 8.07502 16.3661 6.85747 16.1095 5.74207ZM7.09984 11.5092C7.09984 9.88015 7.09984 8.26809 7.09984 6.63886C8.66066 7.45325 10.2111 8.26217 11.7819 9.08157C10.216 9.89368 8.66477 10.6977 7.09984 11.5092Z" fill="#9CA3AF"/>
</svg>
