<svg width="60" height="60" viewBox="0 0 60 60" fill="none" xmlns="http://www.w3.org/2000/svg">
<circle opacity="0.4" cx="30" cy="30" r="30" fill="#EBF5FF"/>
<path d="M40.7987 35.4V24.6C40.7987 23.604 39.9947 22.8 38.9987 22.8H22.1867C21.1907 22.8 20.3867 23.604 20.3867 24.6V35.4C20.3867 36.396 21.1907 37.2 22.1867 37.2H38.9987C39.9947 37.2 40.7987 36.396 40.7987 35.4ZM39.2267 24.468C39.6227 24.864 39.4067 25.272 39.1907 25.476L34.3187 29.94L38.9987 34.812C39.1427 34.98 39.2387 35.244 39.0707 35.424C38.9147 35.616 38.5547 35.604 38.3987 35.484L33.1547 31.008L30.5867 33.348L28.0307 31.008L22.7867 35.484C22.6307 35.604 22.2707 35.616 22.1147 35.424C21.9467 35.244 22.0427 34.98 22.1867 34.812L26.8667 29.94L21.9947 25.476C21.7787 25.272 21.5627 24.864 21.9587 24.468C22.3547 24.072 22.7627 24.264 23.0987 24.552L30.5867 30.6L38.0867 24.552C38.4227 24.264 38.8307 24.072 39.2267 24.468Z" fill="#145CF0"/>
</svg>
