<svg width="60" height="60" viewBox="0 0 60 60" fill="none" xmlns="http://www.w3.org/2000/svg">
<circle opacity="0.4" cx="30" cy="30" r="30" fill="#EBF5FF"/>
<path d="M33.6314 32.4L31.1114 34.9C28.6114 33.47 26.5414 31.4 25.1114 28.9L27.6114 26.38C27.8414 26.14 27.9414 25.81 27.8814 25.48L27.1314 21.8C27.0414 21.34 26.6314 21 26.1514 21H22.0014C21.4414 21 20.9714 21.47 21.0014 22.03C21.1714 24.92 22.0514 27.63 23.4314 30C25.0114 32.73 27.2814 34.99 30.0014 36.57C32.3714 37.94 35.0814 38.83 37.9714 39C38.5314 39.03 39.0014 38.56 39.0014 38V33.85C39.0014 33.37 38.6614 32.96 38.2014 32.87L34.5314 32.14C34.3716 32.1052 34.2056 32.1108 34.0485 32.1562C33.8913 32.2015 33.748 32.2853 33.6314 32.4Z" fill="#145CF0"/>
</svg>
