<?xml version="1.0" encoding="utf-8"?>
<!-- Generator: Adobe Illustrator 26.0.1, SVG Export Plug-In . SVG Version: 6.00 Build 0)  -->
<svg version="1.1" id="Layer_1" xmlns="http://www.w3.org/2000/svg" xmlns:xlink="http://www.w3.org/1999/xlink" x="0px" y="0px"
	 viewBox="0 0 341 84" style="enable-background:new 0 0 341 84;" xml:space="preserve">
<style type="text/css">
	.st0{clip-path:url(#SVGID_00000080165157225439184300000017972067447388394655_);}
	.st1{fill:#005844;}
	.st2{fill:#AA8A00;}
	.st3{fill:#00B5E2;}
	.st4{fill:#EF3340;}
	.st5{fill:#509E2F;}
	.st6{fill-rule:evenodd;clip-rule:evenodd;fill:#FFFFFF;}
	.st7{fill:#FFC600;}
	.st8{fill:#111827;}
</style>
<g>
	<defs>
		<rect id="SVGID_1_" width="77" height="84"/>
	</defs>
	<clipPath id="SVGID_00000009547634018438660450000016017947661816391339_">
		<use xlink:href="#SVGID_1_"  style="overflow:visible;"/>
	</clipPath>
	<g style="clip-path:url(#SVGID_00000009547634018438660450000016017947661816391339_);">
		<path d="M31.8,80.9l0.3-0.6c0.2-0.4,0.3-0.9,0.2-1.4l-0.1-0.6l0.4,0.3c0.4,0.3,0.8,0.6,1.2,0.9l0.3,0.2L31.8,80.9z M76.5,48.9
			C76.5,48.9,76.5,48.9,76.5,48.9C76.5,48.9,76.5,48.9,76.5,48.9C76.5,48.8,76.5,48.8,76.5,48.9c0-0.1,0-0.1-0.1-0.1c0,0,0,0,0,0
			c0,0,0,0,0,0c0,0,0,0,0,0s0,0,0,0C76,50,75.5,51.2,75,52.2c-0.3,0.3-0.8,1-1.2,1.1c0.4-0.5,0.7-1.1,0.8-1.8
			c0.7-1.3,1.2-2.6,1.6-3.9c0,0,0,0,0,0s0,0,0,0c0,0,0,0,0,0s0,0,0,0c0,0,0,0,0,0c0,0,0,0,0,0c0,0,0,0,0,0c0,0,0,0,0,0
			c-0.3,1.2-0.8,2.4-1.4,3.5c0.1-0.5,0.1-1,0.1-1.5c0.6-1.2,1-2.4,1.3-3.7c0,0,0,0,0,0c0,0,0,0,0,0c0,0,0,0,0,0s0,0,0,0
			c0,0,0,0-0.1,0c0,0,0,0,0,0.1c-0.2,1.2-0.6,2.3-1.1,3.4c0-0.3,0-0.6,0-0.9c0-0.2,0-0.3,0-0.4c0.5-1.5,0.8-3,1.1-4.6c0,0,0,0,0,0
			c0,0,0,0,0,0l0,0c0,0,0,0,0,0c0,0,0,0-0.1,0c0,0,0,0,0,0.1c-0.3,1.7-0.7,3.3-1.2,5c-0.1,0.2-0.3,0.4-0.4,0.6
			c-0.1,0.1-0.1,0.2-0.2,0.2c-0.2,0.2-0.4,0.6-0.6,0.9c0.5-1.5,0.9-3.1,1.2-4.4c0,0,0,0,0-0.1c0,0,0,0-0.1,0c0,0,0,0-0.1,0
			c0,0,0,0,0,0.1c-0.3,1.5-0.9,3.4-1.4,5c-0.4,0.6-0.6,1.2-0.8,1.8c-0.1-0.6-0.1-1.3,0.1-1.9c0.6-1.5,1.1-3.1,1.5-4.6c0,0,0,0,0,0
			s0,0,0,0c0,0,0,0,0,0s0,0,0,0c0,0,0,0,0,0c0,0,0,0,0,0c0,0,0,0,0,0c0,0,0,0,0,0c-0.5,1.9-1.1,3.7-1.8,5.5c0,0,0,0,0,0
			c-0.6,0.8-1,1.7-1.3,2.6c-0.3-1.1,0.6-3.3,0.9-4.1c-2.7,6-7.1,10.6-12.6,14.3c-5.5,3.7-12,5.8-18.7,6c-0.4,0-0.7,0-1.1,0
			c-7.7,0-15.2-2.5-21.3-7.1C11.3,58.4,6.8,52.5,4.7,45.1c-0.4-0.6-1.1-1.3-1.7-1.3c-0.2,0-0.3,0.1-0.5,0.1
			c-0.2,0.1-0.3,0.2-0.4,0.3c-1.2,1.3,0.3,2.8,0.5,3c0.1,0.1,0.2,0.2,0.2,0.3c0,0.1,0.1,0.3,0,0.4c0,0.2-0.2,0.4-0.5,0.5
			c-0.2,0.1-0.4,0.2-0.6,0.4c-0.2,0.2-0.3,0.4-0.3,0.6c0,0.3,0,0.6,0.1,0.8l0.2,0.4l-0.4-0.1c-0.1,0-0.2,0-0.3,0
			c-0.3,0-0.6,0.1-0.9,0.3C0.1,51,0,51.1,0,51.1c0,0.1,0,0.1,0,0.2c0.1,1,1.4,2,1.4,2c0,0.1,0,0.2,0,0.2c0,0.1,0.1,0.2,0.1,0.2
			c0.1,0.1,0.1,0.1,0.2,0.2C1.8,53.9,1.9,54,2,54c0.2,0.1,0.4,0.1,0.6,0.1c0.1,0,0.2,0,0.2,0c0,0,0.2,0,0.4,0
			c-0.7,0.6-0.2,3.5,2.6,3.8c0.1,0,0.3,0,0.4,0c-1.3,1.8,0.9,2.7,0.9,3.4c0,0.3-0.4,0.6-0.7,0.8c-0.4,0.2-1,0.4-1,1.1
			c0,0.8,0.5,1.5,2.2,1.5c0.6,0,1.3,0.1,1.3,0.5c0,0.2-0.2,0.4-0.5,0.6c-0.3,0.2-0.7,0.5-0.7,0.9c0,0.1,0,0.9,1.3,1.4l0.6,0.2
			l-0.5,0.2c-0.2,0.1-0.3,0.2-0.4,0.3c-0.1,0.1-0.2,0.3-0.2,0.4c0,0.4,0.3,0.8,1,1.1c0.5,0.2,1.1,0.3,1.7,0.4l0,0.1l0.1,0.1
			c0.1,0.1,0.1,0.1,0.2,0.2c0.1,0,0.2,0.1,0.2,0.1l0.2,0v0.2c0,0.2,0,0.3,0.1,0.4c0.1,0.1,0.2,0.2,0.3,0.3c0.3,0.3,0.6,0.6,1,0.8
			l0.6,0.4l-0.7,0c-1.1,0.1-2,0.7-2.2,1.5c0,0.2,0,0.4,0,0.6c0,0.2,0.1,0.4,0.2,0.5c0.3,0.4,0.8,0.6,1.3,0.6c0,0,0.1,0,0.1,0
			c0.3,0,0.6-0.1,0.9-0.2c0.6-0.1,0.8-0.1,1,0.6c0.2,0.6,0.4,1,0.9,1h0.4c0,0-0.7,2.1,0.2,2.9c0.1,0.1,0.2,0.1,0.4,0.1
			c0.5,0,1.1-0.6,1.6-1.2c0.7-0.8,1.3-0.9,1.3-0.9h0.1l0.1,0c0.2,0.1,0.5,0.2,0.7,0.3c0.1,0,0.3,0.1,0.4,0.2
			c0.1,0.1,0.2,0.2,0.2,0.4c0,0.2,0,0.3,0,0.4c0,0.2-0.1,0.3-0.2,0.4c-0.4,0.4-0.6,0.9-0.6,1.4c0,0.2,0,0.5,0.1,0.7
			c0.1,0.2,0.2,0.4,0.3,0.6c0.2,0.2,0.3,0.3,0.6,0.4c0.2,0.1,0.4,0.1,0.6,0.1c0.3,0,0.6,0,0.8-0.1c0.2-0.1,0.5-0.3,0.6-0.5
			c0.3-0.4,0.5-0.9,0.5-1.4c0-0.1,0-0.2,0-0.3c0-0.1,0.1-0.2,0.1-0.3c0-0.1,0.1-0.1,0.2-0.1c0.1,0,0.1,0,0.2,0
			c0.2,0,0.3,0.1,0.4,0.1c0.3,0.2,0.6,0.4,1,0.4c0.3,0,0.5-0.1,0.7-0.3c0.2-0.1,0.3-0.3,0.4-0.5l0.1-0.3l0.3,0.3
			c0.1,0.1,0.2,0.2,0.4,0.3c0.2,0.1,0.3,0.1,0.5,0.1c0.3,0,0.6-0.1,0.9-0.3l0.3-0.3l0,0.4v0.1c0,0.1,0,0.2,0.1,0.3
			c0.1,0.1,0.1,0.2,0.2,0.3c0.5,0.3,1.3-0.1,1.3-0.1s-1.3,0.7-1.4,0.9c0,0-0.1,0.1-0.1,0.1c0,0.1,0,0.1,0,0.2
			c0.1,0.4,0.8,0.6,1.3,0.6c0.2,0,0.3,0,0.5-0.1c0.2-0.1,0.5-0.2,0.7-0.3c0,0,2.2-1.6,3.8-2.2c-1.2,0.7-2.3,1.4-3.4,2.2
			c-0.1,0.1-0.2,0.2-0.2,0.3c0,0.1-0.1,0.2,0,0.3c0.1,0.5,1.1,0.6,1.4,0.6c0.5,0,1.6-0.2,1.9-0.6c0,0,0,0,0.1-0.1l0,0
			c0.6-0.6,1.3-1.2,2-1.7l0.1-0.1l0.1,0.1c0.7,0.4,2.3,1.3,3.1,1.8l0.2,0.2v0l0.3,0.2c0.1,0.1,0.3,0.1,0.4,0.1c0.2,0,0.5,0,0.7,0
			c1.4,0,2.4-0.6,2.5-1.1c0-0.1,0-0.2-0.1-0.3c-0.1-0.1-0.1-0.1-0.2-0.2l0,0c-0.7-0.3-3-1.4-4.7-2.2l1.4,0.1l0.1,0
			c0.8,0.1,2.9,1.3,4,1.9l0,0c0.2,0.1,0.5,0.2,0.8,0.2c0.6,0,1.4-0.2,1.5-0.7c0-0.1,0-0.2-0.1-0.4c-0.1-0.1-0.2-0.2-0.3-0.2L42,79.1
			l0.1-0.4v0c3,1.3,6,2.3,9,3.2l-0.3,0.2c-0.4,0.3-1.4,1-3.7,1.3c0.7,0.2,1.4,0.2,2.2,0.2c1.7,0,3.4-0.4,4.9-1.2
			c0.1-0.8,0.2-1.6,0.5-2.4l0-0.2l1.4,0l-0.3,0.4c-0.2,0.3-0.4,0.7-0.6,1.1c1.1-0.5,2.2-1.1,3.2-1.8c0.5-0.6,0.8-1.3,1-2
			c0-0.1-0.1-0.1-0.1-0.2c-1.4,0.2-5.3,0.4-6.5,0.2c0.1-0.1,0.3-0.2,0.5-0.3c2.2,0,4.4-0.4,6.5-1.2c0.3-0.1,0.7-0.2,1-0.3
			c1.4-0.4,2.8-1,4.1-1.8c0,0,0,0,0,0s0,0,0,0c0,0,0,0,0,0c0,0,0,0,0,0c0,0,0,0,0,0s0,0,0,0c0,0,0,0,0,0c0,0,0,0,0,0
			c-2.3,1.3-3.8,1.8-5.5,2.1c-1.4,0.2-3.1-0.6-3.1-0.6c2.1,0.3,5.1-0.9,7.5-2.2c1.4-0.6,2.6-1.3,3.8-2.2l0,0c0,0,0,0,0,0s0,0,0,0
			c0,0,0,0,0,0l0,0c0,0,0,0,0,0c0,0,0,0,0,0c0,0,0,0,0,0c-0.9,0.7-1.9,1.4-2.9,1.9c-1.3,0.4-2.6,0.5-4,0.3c1.4-0.1,3.3-1.1,4.8-2
			c1.7-0.9,3.3-1.9,4.8-3c0,0,0,0,0-0.1c0,0,0,0,0-0.1c0,0,0,0-0.1,0c0,0,0,0-0.1,0c-1.2,0.9-2.5,1.8-3.9,2.5c-1,0.2-2.1,0.2-3.1,0
			c2.1-0.1,3.9-1.2,5.5-2.5c1.2-0.8,2.4-1.7,3.5-2.7l0,0c0,0,0,0,0,0c0,0,0,0,0,0c0,0,0,0,0,0l0,0c0,0,0,0,0,0c0,0,0,0,0,0
			c0,0,0,0,0,0c-1,0.9-2,1.7-3,2.4c-1.1,0.4-2.3,0.5-3.4,0.4c2-0.2,3.5-1.4,4.6-2.5c1-0.8,2-1.7,2.9-2.7c0,0,0,0,0-0.1s0,0,0-0.1
			c0,0,0,0-0.1,0c0,0,0,0-0.1,0c-0.7,0.7-1.4,1.4-2.1,2.1c-0.6,0.3-1.3,0.5-2,0.5c1-0.3,2.4-1.7,3.4-2.9c1.3-1.4,2.5-2.8,3.5-4.5
			c0,0,0,0,0,0c0,0,0,0,0,0c0,0,0,0,0,0c0,0,0,0,0,0c0,0,0,0,0,0c0,0,0,0,0,0c0,0,0,0,0,0c0,0,0,0,0,0c-1,1.5-2.1,2.9-3.3,4.2
			c-0.5,0.1-1,0.2-1.5,0.2c0.9-0.4,1.4-1.5,2.5-3c1-1.1,1.9-2.4,2.7-3.7c0,0,0,0,0-0.1c0,0,0,0,0-0.1c0,0,0,0-0.1,0c0,0,0,0-0.1,0
			c-0.6,1.1-1.3,2.1-2.1,3c-0.3,0.3-0.8,0.6-1.2,0.6c0.8-0.9,1.4-1.8,1.9-2.8c0.7-1,1.4-2.1,1.8-3.3c0,0,0,0,0,0s0,0,0,0
			c0,0,0,0,0,0c0,0,0,0,0,0c0,0,0,0,0,0c0,0,0,0,0,0c0,0,0,0,0,0l0,0c-0.5,1.2-1.1,2.3-1.9,3.3c-0.3,0.3-0.6,0.5-1,0.6
			c1.1-1,1.5-2.5,1.8-3.8C75.6,51.5,76.1,50.2,76.5,48.9z"/>
		<path class="st1" d="M8.8,56.2c0.8,0.6,0.9,1,0.7,1.3C9.3,57.8,9,58.7,9.7,59c0.6,0.3,1.2-0.9,1.4-1.6c-0.7-0.9-1.4-1.8-2-2.8
			c-0.2,0.1-0.3,0.1-0.4,0.3c-0.1,0.1-0.2,0.3-0.2,0.4c0,0.2,0,0.3,0,0.5C8.6,56,8.7,56.1,8.8,56.2z"/>
		<path class="st1" d="M15.4,63.2c0.1,0.2,0.2,0.3,0.2,0.3c0.1-0.3,0.1-0.7,0-1c-0.1-0.3-0.3-0.6-0.5-0.8c-0.1-0.1-0.3-0.2-0.5-0.2
			c-0.2,0-0.4,0-0.5,0.1C14.8,61.9,15.2,62.9,15.4,63.2z"/>
		<path class="st1" d="M34.3,77.9c-0.1-1.6-1.8,0-1.8,0c0.6,0.6,1.3,1.1,2,1.6c0.2-0.1,0.1-0.1,0.3-0.2l-0.1-0.2
			C34.4,78.7,34.3,78.3,34.3,77.9z"/>
		<path class="st1" d="M28.5,78.9c-0.6,0-1.2-0.5-1.6-0.8c0,0-0.4-0.4-0.6-0.1c-0.2,0.2-0.1,0.6,0.1,0.9c0.2,0.3,0.3,0.6,0.4,0.8
			c0.2,0.3,0.8,0.8,1.2,0.8c0.7-0.1,1.2-0.5,1-1.7C28.8,78.9,28.7,78.9,28.5,78.9z"/>
		<path class="st1" d="M7.3,53.7C6.6,51.8,5.6,51,4.6,50l-0.2-0.1c0,0,0,0,0-0.1c0,0,0,0,0-0.1c0,0,0,0,0.1,0c0,0,0,0,0.1,0l0.2,0.1
			c0.9,0.7,1.6,1.6,2.2,2.5c-0.8-2.1-1.8-4.1-3.1-6c0,0,0,0,0-0.1c0,0,0,0,0-0.1c0,0,0,0,0.1,0c0,0,0,0,0.1,0
			c1.5,2.3,2.7,4.3,3.6,7.4c0.7,1,0.1-1.5,0.1-1.5v0c-1-1.9-1.9-3.9-2.6-6l0,0c-0.4-1.1-1.8-3-2.7-1.8c-0.6,0.8-0.6,1.4,0.7,2.9
			c0.1,0.1,0.2,0.2,0.2,0.3c0,0.1,0,0.3,0,0.4c0,0.1-0.1,0.2-0.2,0.4c-0.1,0.1-0.2,0.2-0.3,0.2c-1.4,0.6-1,1.4-0.5,1.8
			c0.4,0.3,2,1.4,1.9,2.3c-0.1,0.9-1.1,1-1.1,2.2c0,0.7,0.7,2.4,2.5,2.5C7,57.4,7.9,55.7,7.3,53.7z"/>
		<path class="st1" d="M12.2,58.7c-0.4-0.1-1.1,0-1.4,0.3C10.4,59.4,9.5,60,9,58.9c-0.6-1.2-1-1.9-2.2-1.2c-1.2,0.7-0.6,2,0,2.5
			c0.6,0.6,1.4,1.2,0.3,1.8c-0.8,0.5-1.4,0.5-1.4,1.2c0,0.5,0.2,1.2,2.2,1.2c0.8,0,1.7,0.1,1.6,0.9c-0.1,0.9-1.4,0.8-1.4,1.4
			c0,0.6,0.6,1.2,2.3,1.3c0.6,0,1.2-0.1,1.7-0.5c0-0.1-0.1-0.2-0.1-0.4c0-0.5,0.4-0.8,0.8-1.2c0.2-0.1,0.2-0.2,0.2-0.2
			c0,0,0-0.2-0.7-0.7c-0.3-0.2-0.5-0.5-0.6-0.8c-0.4-0.4-0.8-0.8-1.3-1.2c-0.3,0-0.5,0.1-0.8,0.1c-0.7,0-1.4-0.1-2.1-0.2
			c0,0,0,0-0.1,0c0,0,0,0,0-0.1c0,0,0,0,0-0.1c0,0,0,0,0.1,0c0.9,0.2,1.8,0.3,2.7,0.2c-1.2-1.3-2.3-2.7-3.2-4.2c0,0,0,0,0-0.1
			c0,0,0,0,0-0.1c0,0,0,0,0.1,0c0,0,0,0,0.1,0c0.9,1.5,2,2.8,3.1,4.1c-0.1-0.9,0-1.9,0.1-2.9c0,0,0,0,0,0c0,0,0,0,0,0s0,0,0,0
			c0,0,0,0,0,0s0,0,0,0c0,0,0,0,0,0s0,0,0,0c0,0,0,0,0,0c-0.1,1-0.2,2-0.1,3c0.3,0.3,0.7,0.7,1,1c-0.1-0.4-0.1-0.8,0.1-1.2
			c0.2-0.4,0.4-0.7,0.8-0.9c0.3-0.2,0.7-0.3,1.1-0.3c0.1,0,0.2,0,0.3,0c0-0.4,0-0.9-0.2-1.3C13.1,59.7,12.6,59.2,12.2,58.7z"/>
		<path class="st1" d="M15,63.3c-0.4-0.9-1.2-2-2.6-1.2c-1,0.6-1,1.9,0,2.7c0.8,0.7,1.1,1,0.4,1.5s-0.9,1-0.1,1.7
			c0.8,0.7,1.4,1.2,1,1.7c-0.6,0.8-2.2,1.2-1.2,2.1c0.4,0.4,0.8,0.7,1.3,1c0-0.1,0-0.1,0-0.2c0-0.2,0-0.4,0.1-0.6
			c0.1-0.2,0.2-0.4,0.3-0.5c0.1-0.1,0.2-0.2,0.3-0.2c0.1-0.1,0.3-0.1,0.4-0.1c0.2,0,0.4,0.1,0.6,0.2c0.2,0.2,0.5,0.2,0.8,0.2
			c0.2,0,0.4-0.1,0.6-0.2c0.2-0.1,0.2-0.2,0.3-0.4c-0.7-0.2-1.5-0.4-2.1-0.8c0,0,0,0,0,0c0,0,0,0,0,0s0,0,0,0c0,0,0,0,0,0
			c0,0,0,0,0,0s0,0,0,0c0,0,0,0,0,0c0,0,0,0,0,0c0.6,0.3,1.4,0.6,2.1,0.7c0,0,0,0,0,0v0c0-0.2,0.1-0.5,0.2-0.7c0,0,0,0,0,0
			c-0.4-0.9-0.8-1.7-1.3-2.5c-0.5-0.2-1-0.3-1.5-0.4c-0.4-0.1-0.9-0.2-1.4-0.3c0,0,0,0,0,0c0,0,0,0,0,0c0,0,0,0,0,0c0,0,0,0,0,0
			c0,0,0,0,0,0l0,0c0,0,0,0,0,0c0,0,0,0,0,0c0.5,0.1,1,0.2,1.4,0.3c0.4,0.1,0.9,0.2,1.3,0.3c-0.9-1.4-1.9-2.8-3-4.1c0,0,0,0,0,0
			s0,0,0,0c0,0,0,0,0,0c0,0,0,0,0,0s0,0,0,0c0,0,0,0,0,0c0,0,0,0,0,0c0,0,0,0,0,0c1.1,1.3,2.1,2.7,3,4.1c0-1.3,0.2-2.4,0.4-2.8
			c0,0,0,0,0.1,0c0,0,0,0,0.1,0c0,0,0,0,0,0.1c0,0,0,0,0,0.1c-0.2,0.3-0.4,1.5-0.4,3c0.5,0.8,0.9,1.6,1.2,2.4
			c0.2-0.2,0.3-0.5,0.6-0.6c0.1-0.1,0.3-0.2,0.4-0.2v-1.4c0,0,0,0,0-0.1c0,0,0,0,0.1,0c0,0,0,0,0.1,0c0,0,0,0,0,0.1v1.3
			c0,0,0.1,0,0.1,0c1,0,2.1,0.9,2.8,1.8c0.2,0,0.4-0.1,0.6-0.1c0.5,0,0.6-0.1,0.7-0.3c0.1-0.3,0-0.4-1.1-0.9
			c-0.1-0.1-0.3-0.1-0.4-0.2c-0.2-0.1-0.5-0.2-0.6-0.4c-0.2-0.2-0.3-0.4-0.4-0.7c0-0.2,0-0.5,0-0.8c0.1-0.2,0.2-0.5,0.3-0.7
			c-0.3-0.7-0.8-1.2-1.8-1c-0.5,0.1-1.1,0.3-1.3-0.8c-0.2-1-0.5-2-1.3-1.5C15.8,64.1,15.4,64.1,15,63.3z"/>
		<path class="st1" d="M30.8,72.6c0.2-0.8-0.1-3-1.8-2.3c-1.4,0.5-1.6,0.4-1.7-0.5c-0.1-0.9-1.1-1.3-2-1.3c-0.9,0-0.8,0.2-1.2-0.3
			c-0.3-0.5-2.3-1.5-2.3-1.5c-0.2,0-0.4,0.2-0.6,0.3c-0.5,0.6-0.9,1.7,0.3,2.2c1.1,0.5,2,0.6,1.8,1.4c-0.3,1.1-1.5,0.2-1.8,1
			c-0.2,0.5,0.6,1.8,1.8,1.4c1.1-0.4,2.6-0.5,2.7,0.4c0.1,1.4-2.6,1.3-1.2,2.9c0.7,0.8,2.2,0.6,3.3,0.5c0.5-0.1,0.9-0.4,1.2-0.8
			c-0.1-0.4-0.2-0.8-0.3-1.1c-1-0.3-1.7-0.4-2.2-0.1c0,0,0,0-0.1,0c0,0,0,0-0.1,0c0,0,0,0,0-0.1c0,0,0,0,0-0.1
			c0.7-0.3,1.4-0.2,2.2,0.1c-0.6-1.5-1.7-2.4-2.8-3.1c-0.7,0.1-1.3,0.2-2,0.2c-0.1,0-0.2,0-0.3,0c0,0,0,0,0,0c0,0,0,0,0,0s0,0,0,0
			c0,0,0,0,0,0c0,0,0,0,0-0.1c0,0,0,0,0.1,0c0.7,0,1.4,0,2.1-0.2l-0.2-0.2c-1.2-0.8-2.5-1.7-3.1-3.3c0,0,0,0,0-0.1c0,0,0,0,0.1,0
			c0,0,0,0,0.1,0c0,0,0,0,0,0.1c0.6,1.6,1.8,2.4,3.1,3.2c0.1,0.1,0.2,0.2,0.3,0.2c0-0.7-0.2-1.4-0.4-2c0,0,0,0,0,0c0,0,0,0,0,0
			c0,0,0,0,0,0l0,0c0,0,0,0,0,0c0,0,0,0,0,0c0,0,0,0,0,0l0,0c0.3,0.7,0.5,1.5,0.4,2.2v0c1,0.7,2,1.5,2.6,2.9c0-0.2-0.1-0.5-0.1-0.7
			c-0.1-0.6-0.2-1.3-0.2-1.9c0,0,0,0,0,0c0,0,0,0,0,0l0,0c0,0,0,0,0,0c0,0,0,0,0,0c0,0,0,0,0,0l0,0c0,0,0,0,0,0
			c0,0.6,0.1,1.3,0.2,1.9c0.1,0.4,0.1,0.8,0.1,1.2c0.1,0.3,0.2,0.7,0.3,1c0.1-0.1,0.1-0.2,0.2-0.3c0.2-0.6,0.5-1.2,0.8-1.7
			C30.6,73.4,30.7,73,30.8,72.6z"/>
		<path class="st1" d="M28.7,76.9c-0.6,0.2-1.3,0.3-2,0.3c-0.9,0-1.6-0.2-2.1-0.7c0,0-0.1-0.1-0.1-0.1c-0.2,0.2-0.4,0.4-0.6,0.7
			c0,0.9,0.2,1.7,0.6,2.5c0,0,0,0,0,0.1c0,0,0,0,0,0.1c0,0,0,0-0.1,0c0,0,0,0-0.1,0c-0.4-0.7-0.6-1.5-0.6-2.4
			c-0.9,1.4-1.5,3-1.6,4.6c0,0,0,0,0,0.1c0,0,0,0-0.1,0c0,0,0,0-0.1,0c0,0,0,0,0-0.1c0.1-1.6,0.7-3.2,1.5-4.6
			c-0.4,0.3-1.2,0.8-1.6,1.2c0,0,0,0-0.1,0s0,0-0.1,0c0,0,0,0,0-0.1c0,0,0,0,0-0.1c0.7-0.6,1.9-1.4,2-1.5c0.2-0.2,0.4-0.5,0.6-0.7
			c-0.1-0.1-0.2-0.3-0.3-0.4c-0.1-0.2-0.1-0.3-0.1-0.5c0.1-0.5,0.5-0.9,0.9-1.1c0.1-0.1,0.2-0.2,0.4-0.2c-0.1-0.2-0.2-0.3-0.3-0.3
			c-0.2-0.2-0.4-0.3-0.6-0.4c-0.2-0.1-0.5-0.1-0.8-0.1c-0.1,0-0.1,0-0.2,0c-0.2,0.1-0.4,0.1-0.6,0.1c-0.6,0.3-0.3,0.9,0.1,1.1
			c0.1,0.1,0.2,0.2,0.3,0.3c0.1,0.1,0.1,0.2,0.1,0.4c0,0.1,0,0.3-0.1,0.4c-0.1,0.1-0.2,0.2-0.3,0.3c-0.7,0.4-1.4,0.7-2.2,0.8
			c-1.1,0.2-1.5,0.6-1.6,1.2c-0.1,1.2,1.4,0.7,1.8,1.2c0.1,0.1,0.2,0.3,0.2,0.4c0.1,0.2,0.1,0.3,0.1,0.5c0,0.2-0.1,0.3-0.2,0.5
			c-0.1,0.2-0.2,0.3-0.3,0.4c-0.2,0.1-0.3,0.3-0.4,0.5c-0.1,0.2-0.1,0.4-0.1,0.6c0,0.2,0.1,0.4,0.2,0.6c0.1,0.2,0.2,0.4,0.4,0.5
			c0.7,0.6,2,0.2,2.2-0.7c0.2-0.9-0.1-1.5,0.6-1.8c0.7-0.2,1.5,0.9,2.4,0.3c1-0.6-0.3-1.6-0.4-2.4c0-0.8,0.8-1,1.3-0.6
			c0.5,0.4,1.2,1.1,1.8,0.6C29.3,78,29.2,77.4,28.7,76.9z"/>
		<path class="st1" d="M40.2,79.5c0.6-0.8,0.6-2.1-0.9-2.8c-1.3-0.6,1.2-1.6,0.3-2.5c-0.9-1-1.4-0.5-3-0.6c-1.6-0.1-0.5-1.3-1.4-2.4
			c-0.4-0.5-1.1-0.5-1.8-0.1c-0.8,0.5-2.4,2.3-3.2,3.9c0.4-0.1,0.9-0.2,1.2-0.2c1.1-0.5,2.2-1.3,3-2.1c0,0,0,0,0.1,0c0,0,0,0,0.1,0
			c0,0,0,0,0,0.1c0,0,0,0,0,0.1c-0.8,0.8-1.6,1.4-2.6,1.9c1.3-0.2,2.2-0.2,3.2,0.2c0.7,0.2,2.8,0.5,3.6,0.2c0,0,0,0,0.1,0
			c0,0,0,0,0.1,0c0,0,0,0,0,0.1c0,0,0,0,0,0.1c-0.7,0.3-2.1,0.2-3,0c0.9,0.6,1.8,1.5,3.1,3.1c0,0,0,0,0,0.1c0,0,0,0,0,0.1
			c0,0,0,0-0.1,0c0,0,0,0-0.1,0c-1.2-1.5-2.1-2.5-3-3c0.7,0.7,0.7,1.3,0.6,2c0,0,0,0,0,0.1c0,0,0,0-0.1,0s0,0-0.1,0c0,0,0,0,0-0.1
			c0-0.8,0.1-1.4-1.1-2.2c-1-0.4-1.9-0.3-3.4-0.1c0.5,0.2,0.8,0.6,1.1,1c0,0,0,0,0,0c0,0,0,0,0,0c0,0,0,0,0,0l0,0c0,0,0,0,0,0
			c0,0,0,0,0,0c0,0,0,0,0,0l0,0c-0.3-0.5-0.7-0.8-1.2-1c-0.4,0.1-0.9,0.2-1.3,0.3c-0.2,0.4-0.3,0.9-0.4,1.4c0,0.2,0.1,0.4,0.2,0.6
			c0.1,0.2,0.2,0.4,0.4,0.5c1.8,1.3,1.9-0.5,3.4-0.7c1.2-0.1,0.7,1.1,1.3,2.1c0.6,1,1.3,0.2,1.7-0.1c0.4-0.3,0.7-0.6,1.2,0.4
			c0.1,0.2,0.3,0.4,0.5,0.5c0.2,0.1,0.4,0.2,0.6,0.2c0.2,0,0.5,0,0.7-0.1C39.8,79.8,40,79.7,40.2,79.5z"/>
		<path class="st1" d="M21,76.2c1-0.2,1.9-0.5,1.9-1.1c0-0.4-0.6-0.6-0.5-1.3c0-0.2,0-0.3-0.1-0.4c0,0,0,0-0.1,0
			c-0.6-0.1-1.1-0.2-1.7-0.2c-0.7,0.5-1.2,1.1-1.7,1.7c0,0,0,0,0,0c0,0,0,0,0,0c0,0,0,0-0.1,0l0,0c0,0,0,0,0,0c0,0,0,0,0,0s0,0,0,0
			c0.5-0.6,1-1.1,1.6-1.6c-1,0-1.9,0.2-2.8,0.6c-0.4,0.7-0.8,1.4-1.4,2c0,0,0,0,0,0s0,0,0,0c0,0,0,0,0,0c0,0,0,0,0,0s0,0,0,0
			c0,0,0,0,0,0c0,0,0,0,0,0c0,0,0,0,0,0c0.5-0.5,0.9-1.1,1.3-1.8c-0.9,0.3-1.8,0.5-2.8,0.6c-0.3,0-0.5,0-0.8,0c0,0,0,0-0.1,0
			c0,0,0,0,0-0.1c0,0,0,0,0-0.1c0,0,0,0,0.1,0c1.1,0.1,2.2,0,3.2-0.4c-0.3-0.1-0.6-0.3-0.9-0.4c-0.3-0.2-0.6-0.3-0.8-0.4
			c0,0,0,0,0,0l0,0c0,0,0,0,0,0s0,0,0,0c0,0,0,0,0,0c0,0,0,0,0.1,0c0.3,0.1,0.6,0.3,0.9,0.4c0.3,0.2,0.7,0.4,1.1,0.5l0.1,0
			c0.9-0.4,1.9-0.6,2.9-0.6c-0.6-0.4-1.8-1.1-1.8-1.1c0,0,0,0,0-0.1c0,0,0,0,0-0.1c0,0,0,0,0.1,0c0,0,0,0,0.1,0c0,0,1.6,1,2.1,1.3
			c0.5,0,1,0.1,1.4,0.2c-0.2-0.1-0.4-0.3-0.5-0.5c-0.1-0.2-0.2-0.4-0.3-0.6c0-0.2,0-0.4,0-0.7c0.1-0.1,0.2-0.2,0.2-0.3
			c-0.8-1-2.3-2-3-1.5c-1.1,0.8-0.6,1.7-1.3,2.1c-0.3,0.2-0.6,0.2-0.9,0.2c-0.3,0-0.6-0.1-0.8-0.3c-0.1-0.1-0.3-0.1-0.4-0.1
			c-0.2,0-0.3,0.1-0.4,0.1c-0.1,0.1-0.2,0.2-0.3,0.3s-0.1,0.3-0.1,0.4c0,0.9,0.2,0.9-0.6,1c-0.7,0.1-2.1,0.2-2.3,1.3
			c-0.2,1.1,0.9,1.4,1.3,1.5c0.9,0.1,1.8-0.7,2.1,0.1c0.3,0.8,0.3,1.4,0.9,1.4c1.2,0,1.3-1.4,2.2-1.4c0.4,0,1,0.4,1.4,0.8
			C19.4,76.7,20,76.4,21,76.2z"/>
		<path class="st1" d="M46.4,81.1c-1.9-0.6-4.4-1.7-4.4-1.7c-0.2,0.2-0.5,0.4-0.8,0.5c1.3,0.6,3.7,1.7,3.7,1.7
			C45.2,81.1,46,81,46.4,81.1z"/>
		<path class="st1" d="M44.2,82.6c-2.3-0.2-3.5,0.9-2.4,1.1C44,83.9,45.5,82.7,44.2,82.6z"/>
		<path class="st1" d="M47.2,81.5c-1-0.4-2.3,0.3-1.6,0.7C46.4,82.6,48.2,81.9,47.2,81.5z"/>
		<path class="st1" d="M43.5,82.2c-0.8-0.4-2.4-1.1-3.9-1.8c-0.6,0.3-1.1,0.6-1.6,1c1.3,0.7,2.6,1.4,3,1.7c0.3-0.3,0.7-0.6,1.1-0.7
			C42.5,82.2,43,82.1,43.5,82.2z"/>
		<path class="st2" d="M38.8,0c-7,0-13.9,2.1-19.7,6C13.2,9.8,8.7,15.4,6,21.8c-2.7,6.5-3.4,13.5-2,20.4c1.4,6.8,4.7,13.1,9.7,18.1
			c5,4.9,11.3,8.3,18.2,9.7c6.9,1.4,14,0.7,20.5-2s12-7.2,15.9-13c3.9-5.8,6-12.6,6-19.6c0-4.6-0.9-9.2-2.7-13.5
			c-1.8-4.3-4.4-8.2-7.7-11.5c-3.3-3.3-7.2-5.9-11.5-7.7C48,0.9,43.4,0,38.8,0z"/>
		<path class="st3" d="M71.7,35.4C71.8,17.3,57,2.6,38.9,2.5s-33,14.6-33,32.7c0,18.1,14.7,32.8,32.8,32.9
			C56.9,68.1,71.7,53.5,71.7,35.4z"/>
		<path class="st4" d="M38.8,63.1c15.4,0,27.9-12.4,27.9-27.8C66.7,20,54.2,7.6,38.8,7.6C23.4,7.6,10.9,20,10.9,35.3
			C10.9,50.7,23.4,63.1,38.8,63.1z"/>
		<path class="st5" d="M61.6,35.5c0.1-12.6-10.1-22.8-22.7-22.9S16,22.6,16,35.2C15.9,47.7,26,58,38.6,58
			C51.3,58.1,61.5,48,61.6,35.5z"/>
		<path class="st2" d="M38.2,71.3c0.4,0.4,0.7,1,0.9,1.6c0.6-0.4,1.5-1.4,1.2-1.8C40.1,70.7,39,70.8,38.2,71.3z"/>
		<path class="st2" d="M37.1,71.9c0,0-0.1,0-0.1,0c0,0-0.1,0.1-0.1,0.1c0,0,0,0.1,0,0.1c0,0,0,0.1,0.1,0.1c0,0,0.1,0.1,0.1,0.1
			s0.1,0,0.1,0c0,0,0.1,0,0.1-0.1c0,0,0-0.1,0-0.1c0-0.1,0-0.1-0.1-0.2C37.2,71.9,37.2,71.9,37.1,71.9z"/>
		<path class="st2" d="M37.9,71.5c0,0,0-0.1,0-0.1c0,0-0.1-0.1-0.1-0.1c0,0-0.1,0-0.1,0c0,0-0.1,0-0.1,0.1c0,0-0.1,0.1-0.1,0.1
			c0,0,0,0.1,0,0.1c0,0,0,0.1,0.1,0.1c0,0,0.1,0,0.1,0c0,0,0.1,0,0.1,0c0,0,0.1,0,0.1,0C37.9,71.6,37.9,71.6,37.9,71.5
			C37.9,71.5,37.9,71.5,37.9,71.5z"/>
		<path class="st2" d="M37.9,72c0,0-0.1,0-0.1,0c0,0-0.1,0.1-0.1,0.1c0,0,0,0.1,0,0.1c0,0,0,0.1,0.1,0.1c0,0,0.1,0.1,0.1,0.1
			c0,0,0.1,0,0.1,0c0,0,0.1,0,0.1-0.1c0,0,0-0.1,0-0.1c0,0,0-0.1,0-0.1c0,0,0-0.1,0-0.1C38,72,38,72,37.9,72
			C37.9,72,37.9,72,37.9,72z"/>
		<path class="st2" d="M38.4,72.5c0,0-0.1,0-0.1,0c0,0-0.1,0.1-0.1,0.1c0,0,0,0.1,0,0.1c0,0,0,0.1,0.1,0.1c0,0,0.1,0.1,0.1,0.1
			c0,0,0.1,0,0.1,0c0,0,0.1,0,0.1-0.1c0,0,0-0.1,0-0.1c0-0.1,0-0.1-0.1-0.2C38.5,72.6,38.4,72.5,38.4,72.5z"/>
		<path class="st2" d="M37.6,72.6c0,0-0.1,0-0.1,0c0,0-0.1,0.1-0.1,0.1c0,0,0,0.1,0,0.1c0,0,0,0.1,0.1,0.1c0,0,0.1,0.1,0.1,0.1
			c0,0,0.1,0,0.1,0c0,0,0.1,0,0.1-0.1c0,0,0-0.1,0-0.1c0-0.1,0-0.1-0.1-0.2C37.8,72.7,37.7,72.6,37.6,72.6z"/>
		<path class="st2" d="M30.1,79.5c-0.5,0.5-0.8,1.4-0.3,1.7c0.5,0.3,1.4-0.6,1.4-0.6C30.9,80.1,30.5,79.8,30.1,79.5z"/>
		<path class="st2" d="M31.1,79.1c0,0,0-0.1,0-0.1c0,0-0.1-0.1-0.1-0.1c0,0-0.1,0-0.1,0c0,0-0.1,0-0.1,0.1c0,0-0.1,0.1-0.1,0.1
			c0,0,0,0.1,0,0.1c0,0,0,0.1,0.1,0.1c0,0,0.1,0,0.1,0c0.1,0,0.1,0,0.2-0.1C31,79.2,31.1,79.2,31.1,79.1z"/>
		<path class="st2" d="M31.5,78.9c0,0-0.1,0-0.1,0c0,0-0.1,0.1-0.1,0.1c0,0,0,0.1,0,0.1c0,0,0,0.1,0.1,0.1c0,0,0.1,0.1,0.1,0.1
			c0,0,0.1,0,0.1,0c0,0,0.1,0,0.1-0.1c0,0,0-0.1,0-0.1c0-0.1,0-0.1-0.1-0.2C31.6,78.9,31.6,78.9,31.5,78.9z"/>
		<path class="st2" d="M31.4,79.6c0,0-0.1,0-0.1,0s-0.1,0.1-0.1,0.1c0,0,0,0.1,0,0.1c0,0,0,0.1,0.1,0.1c0,0,0.1,0.1,0.1,0.1
			c0,0,0.1,0,0.1,0c0,0,0.1,0,0.1-0.1c0,0,0-0.1,0-0.1c0,0,0-0.1,0-0.1c0,0,0-0.1,0-0.1C31.6,79.7,31.6,79.7,31.4,79.6
			C31.5,79.6,31.5,79.6,31.4,79.6z"/>
		<path class="st2" d="M16.3,78.1c-0.5,1-0.4,2.2-0.1,2.5c0.4,0.4,1.8-1.2,1.9-1.6C17.7,78.5,17,78.2,16.3,78.1z"/>
		<path class="st2" d="M17.1,77.6c0,0,0,0.1,0,0.1c0,0,0.1,0.1,0.1,0.1s0.1,0,0.1,0c0,0,0.1,0,0.1-0.1c0,0,0.1-0.1,0.1-0.1
			c0,0,0-0.1,0-0.1c0,0,0-0.1-0.1-0.1c0,0-0.1,0-0.1,0c-0.1,0-0.1,0-0.2,0.1C17.1,77.5,17.1,77.6,17.1,77.6z"/>
		<path class="st2" d="M17.7,77.5c0,0,0,0.1,0,0.1c0,0,0.1,0.1,0.1,0.1c0,0,0.1,0,0.1,0c0,0,0.1,0,0.1-0.1c0,0,0.1-0.1,0.1-0.1
			c0,0,0-0.1,0-0.1c0,0,0-0.1-0.1-0.1c0,0-0.1,0-0.1,0c-0.1,0-0.1,0-0.2,0.1C17.7,77.3,17.7,77.4,17.7,77.5z"/>
		<path class="st2" d="M18.1,77.9c0,0-0.1,0-0.1,0c0,0-0.1,0.1-0.1,0.1c0,0,0,0.1,0,0.1c0,0,0,0.1,0.1,0.1c0,0,0.1,0.1,0.1,0.1
			c0,0,0.1,0,0.1,0c0,0,0.1,0,0.1-0.1c0,0,0-0.1,0-0.1c0-0.1,0-0.1-0.1-0.2C18.2,77.9,18.2,77.9,18.1,77.9z"/>
		<path class="st2" d="M18.8,78c0,0-0.1,0-0.1,0c0,0-0.1,0.1-0.1,0.1c0,0,0,0.1,0,0.1c0,0,0,0.1,0.1,0.1c0,0,0.1,0.1,0.1,0.1
			c0,0,0.1,0,0.1,0c0,0,0.1,0,0.1-0.1c0,0,0-0.1,0-0.1c0-0.1,0-0.1-0.1-0.2C18.9,78,18.9,78,18.8,78z"/>
		<path class="st2" d="M18.8,77.3c0,0,0-0.1,0-0.1c0,0-0.1-0.1-0.1-0.1c0,0-0.1,0-0.1,0c0,0-0.1,0-0.1,0.1c0,0-0.1,0.1-0.1,0.1
			c0,0,0,0.1,0,0.1c0,0,0,0.1,0.1,0.1c0,0,0.1,0,0.1,0c0.1,0,0.1,0,0.2-0.1C18.8,77.4,18.8,77.3,18.8,77.3z"/>
		<path class="st2" d="M17.6,76.5c0,0-0.1,0-0.1,0c0,0-0.1,0.1-0.1,0.1c0,0,0,0.1,0,0.1c0,0,0,0.1,0.1,0.1c0,0,0.1,0.1,0.1,0.1
			c0,0,0.1,0,0.1,0c0,0,0.1,0,0.1-0.1c0,0,0-0.1,0-0.1c0-0.1,0-0.1-0.1-0.2C17.7,76.6,17.7,76.5,17.6,76.5z"/>
		<path class="st2" d="M9,69.1c0,0.5,1.3,1,2.4,1c0.1-0.6,0.1-1.3,0-1.9C10.4,68.3,9,68.6,9,69.1z"/>
		<path class="st2" d="M11.9,70.1c0,0-0.1,0-0.1,0c0,0-0.1,0.1-0.1,0.1c0,0,0,0.1,0,0.1c0,0,0,0.1,0.1,0.1c0,0,0.1,0.1,0.1,0.1
			c0,0,0.1,0,0.1,0c0,0,0.1,0,0.1-0.1c0,0,0-0.1,0-0.1c0-0.1,0-0.1-0.1-0.2C12,70.2,11.9,70.1,11.9,70.1z"/>
		<path class="st2" d="M12.5,69.8c0,0-0.1,0-0.1,0c0,0-0.1,0.1-0.1,0.1c0,0,0,0.1,0,0.1c0,0,0,0.1,0.1,0.1c0,0,0.1,0.1,0.1,0.1
			c0,0,0.1,0,0.1,0c0,0,0.1,0,0.1-0.1c0,0,0-0.1,0-0.1c0-0.1,0-0.1-0.1-0.2C12.6,69.8,12.5,69.8,12.5,69.8z"/>
		<path class="st2" d="M13.1,69.4c0,0-0.1,0-0.1,0c0,0-0.1,0.1-0.1,0.1c0,0,0,0.1,0,0.1c0,0,0,0.1,0.1,0.1c0,0,0.1,0.1,0.1,0.1
			c0,0,0.1,0,0.1,0c0,0,0.1,0,0.1-0.1c0,0,0-0.1,0-0.1c0-0.1,0-0.1-0.1-0.2C13.2,69.4,13.2,69.4,13.1,69.4z"/>
		<path class="st2" d="M12,69.3c0,0-0.1,0-0.1,0c0,0-0.1,0.1-0.1,0.1c0,0,0,0.1,0,0.1c0,0,0,0.1,0.1,0.1c0,0,0.1,0.1,0.1,0.1
			c0,0,0.1,0,0.1,0c0,0,0.1,0,0.1-0.1c0,0,0-0.1,0-0.1c0-0.1,0-0.1-0.1-0.2C12.1,69.3,12,69.3,12,69.3z"/>
		<path class="st2" d="M12.6,68.8c0,0-0.1,0-0.1,0c0,0-0.1,0.1-0.1,0.1c0,0,0,0.1,0,0.1c0,0,0,0.1,0.1,0.1c0,0,0.1,0.1,0.1,0.1
			c0,0,0.1,0,0.1,0c0,0,0.1,0,0.1-0.1c0,0,0-0.1,0-0.1c0-0.1,0-0.1-0.1-0.2C12.7,68.9,12.7,68.8,12.6,68.8z"/>
		<path class="st2" d="M12,68.3c0,0-0.1,0-0.1,0c0,0-0.1,0.1-0.1,0.1c0,0,0,0.1,0,0.1c0,0,0,0.1,0.1,0.1c0,0,0.1,0.1,0.1,0.1
			s0.1,0,0.1,0c0,0,0.1,0,0.1-0.1c0,0,0-0.1,0-0.1c0-0.1,0-0.1-0.1-0.2C12.1,68.3,12.1,68.3,12,68.3z"/>
		<path class="st2" d="M2.7,51.6c-0.7-0.6-2.1-0.6-2.3-0.3c-0.2,0.3,0.6,1.2,1.3,1.8C2.1,52.6,2.4,52.1,2.7,51.6z"/>
		<path class="st2" d="M2,53.2c-0.1,0-0.1,0-0.2,0.1c0,0-0.1,0.1-0.1,0.2s0,0.1,0.1,0.2c0,0,0.1,0.1,0.2,0.1c0.1,0,0.1,0,0.2-0.1
			c0,0,0.1-0.1,0.1-0.2s0-0.1-0.1-0.2C2.1,53.2,2.1,53.2,2,53.2z"/>
		<path class="st2" d="M2.7,53.2c-0.1,0-0.1,0-0.2,0.1c0,0-0.1,0.1-0.1,0.2s0,0.1,0.1,0.2c0,0,0.1,0.1,0.2,0.1c0.1,0,0.1,0,0.2-0.1
			c0,0,0.1-0.1,0.1-0.2s0-0.1-0.1-0.2C2.8,53.2,2.7,53.2,2.7,53.2z"/>
		<path class="st2" d="M2.6,52.9c0.1,0,0.1,0,0.2-0.1c0,0,0.1-0.1,0.1-0.2s0-0.1-0.1-0.2c0,0-0.1-0.1-0.2-0.1c-0.1,0-0.1,0-0.2,0.1
			c0,0-0.1,0.1-0.1,0.2c0,0,0,0.1,0,0.1c0,0,0,0.1,0,0.1C2.5,52.9,2.5,52.9,2.6,52.9C2.6,52.9,2.6,52.9,2.6,52.9z"/>
		<path class="st2" d="M3.4,52.5c-0.1,0-0.1,0-0.2,0.1c0,0-0.1,0.1-0.1,0.2s0,0.1,0.1,0.2c0,0,0.1,0.1,0.2,0.1c0.1,0,0.1,0,0.2-0.1
			c0,0,0.1-0.1,0.1-0.2s0-0.1-0.1-0.2C3.5,52.5,3.5,52.5,3.4,52.5z"/>
		<path class="st2" d="M3.4,51.9C3.4,51.9,3.4,51.8,3.4,51.9c0-0.1,0-0.1-0.1-0.2c0,0,0,0-0.1,0c0,0-0.1,0-0.1,0
			c-0.1,0-0.1,0-0.2,0.1c0,0-0.1,0.1-0.1,0.2C3,52,3,52,3,52c0,0,0.1,0.1,0.2,0.1c0.1,0,0.1,0,0.2-0.1C3.4,52,3.4,52,3.4,51.9z"/>
		<path class="st2" d="M66.8,25c0.7,0,1.3-0.6,1.3-1.3c0-0.7-0.6-1.3-1.3-1.3c-0.7,0-1.3,0.6-1.3,1.3C65.5,24.5,66.1,25,66.8,25z"/>
		<path class="st2" d="M50.9,8.6c0.2-0.1,0.4-0.3,0.6-0.5c0.2-0.2,0.2-0.5,0.2-0.7c0-0.3-0.1-0.5-0.2-0.7c-0.2-0.2-0.3-0.4-0.6-0.5
			c-0.2-0.1-0.5-0.1-0.7-0.1c-0.2,0.1-0.5,0.2-0.7,0.4c-0.2,0.2-0.3,0.4-0.4,0.7c-0.1,0.2,0,0.5,0.1,0.7c0.1,0.3,0.4,0.6,0.7,0.7
			C50.2,8.7,50.6,8.7,50.9,8.6z"/>
		<path class="st2" d="M27.7,8.6c0.2-0.1,0.4-0.3,0.6-0.5c0.2-0.2,0.2-0.5,0.2-0.7c0-0.3-0.1-0.5-0.2-0.7s-0.3-0.4-0.6-0.5
			c-0.2-0.1-0.5-0.1-0.7-0.1c-0.2,0.1-0.5,0.2-0.7,0.4c-0.2,0.2-0.3,0.4-0.4,0.7c-0.1,0.2,0,0.5,0.1,0.7c0.1,0.3,0.4,0.6,0.7,0.7
			S27.3,8.7,27.7,8.6z"/>
		<path class="st2" d="M10.7,25c0.7,0,1.3-0.6,1.3-1.3c0-0.7-0.6-1.3-1.3-1.3c-0.7,0-1.3,0.6-1.3,1.3C9.4,24.5,10,25,10.7,25z"/>
		<path class="st2" d="M10.7,48.2c0.7,0,1.3-0.6,1.3-1.3c0-0.7-0.6-1.3-1.3-1.3c-0.7,0-1.3,0.6-1.3,1.3C9.4,47.6,10,48.2,10.7,48.2z
			"/>
		<path class="st2" d="M26.7,62.1c-0.2,0.1-0.4,0.3-0.6,0.5c-0.1,0.2-0.2,0.5-0.2,0.7c0,0.2,0.1,0.5,0.2,0.7s0.3,0.4,0.6,0.5
			c0.2,0.1,0.5,0.1,0.7,0.1c0.2-0.1,0.5-0.2,0.7-0.4c0.2-0.2,0.3-0.4,0.4-0.7c0.1-0.2,0-0.5-0.1-0.7c-0.1-0.3-0.4-0.6-0.7-0.7
			C27.3,61.9,27,61.9,26.7,62.1z"/>
		<path class="st2" d="M49.9,62.1c-0.2,0.1-0.4,0.3-0.6,0.5c-0.1,0.2-0.2,0.5-0.2,0.7c0,0.2,0.1,0.5,0.2,0.7s0.3,0.4,0.6,0.5
			c0.2,0.1,0.5,0.1,0.7,0.1c0.2-0.1,0.5-0.2,0.7-0.4c0.2-0.2,0.3-0.4,0.4-0.7c0.1-0.2,0-0.5-0.1-0.7c-0.1-0.2-0.2-0.3-0.3-0.4
			c-0.1-0.1-0.3-0.2-0.4-0.3C50.7,62,50.6,62,50.4,62C50.2,62,50.1,62,49.9,62.1z"/>
		<path class="st2" d="M66.8,48.2c0.7,0,1.3-0.6,1.3-1.3c0-0.7-0.6-1.3-1.3-1.3c-0.7,0-1.3,0.6-1.3,1.3
			C65.5,47.6,66.1,48.2,66.8,48.2z"/>
		<path class="st2" d="M71.7,35.1l-16.5-6.7L61.9,12l-16.4,6.9L38.6,2.5L31.8,19l-16.5-6.7l6.9,16.4L5.8,35.5l16.5,6.7l-6.7,16.4
			L32,51.7l6.9,16.4l6.7-16.4l16.5,6.7L55.2,42L71.7,35.1z"/>
		<path class="st6" d="M45,50.1l14.9,6.1l-6.2-14.8l14.8-6.2l-14.9-6.1l6.1-14.9l-14.8,6.2L38.6,5.7l-6.1,14.9l-14.9-6.1l6.3,14.8
			L9,35.5l14.9,6.1l-6.1,14.9l14.8-6.2L38.9,65L45,50.1z"/>
		<path class="st4" d="M40.4,41.4c0-6-2.5-7.6-2.5-13.5c0.1-2.3,0.5-4.6,1.4-6.8c-0.5,6.1,4.6,9.9,4.6,17.9c0,5.1-2,8-3.5,8
			c-1,0-0.9-0.6-1.4-0.6c-0.5,0-0.9,0.7-1.9,0.7c-1,0-4.3-1.6-4.8-8.8c-0.6,1.5-0.1,3.5,0.2,4.6c-2-3.6-1.9-8,1-12.4
			c-0.6,4.6-0.2,8.4,1.2,11.8C35,43,35.6,43.4,36,43c0.5-0.4,0-1.1-0.4-1.9c-0.4-0.8-4.3-9.5,1.6-16.7c-0.7,6.3,1.8,10.2,1.8,13.1
			c0,2.9-1.8,6.9-0.1,6.9C40.2,44.4,40.4,42.4,40.4,41.4z"/>
		<path class="st4" d="M42.5,45.7c1.5-1.1,2.7-2.5,3.5-4.1s1.3-3.4,1.3-5.2c0-5-5.1-9.1-6-12.1c0,4.7,3.2,7.6,3.2,13.9
			C44.6,44,42.5,45.7,42.5,45.7z"/>
		<path class="st7" d="M37.1,78.9c-0.1,0-0.2,0.1-0.2,0.1c-0.1,0.1-0.2,0.1-0.2,0.2c-0.2,0.3-0.6,0.5-1,0.6c-0.1,0-0.2,0-0.4-0.1
			c-0.1-0.1-0.2-0.1-0.3-0.2c-1.7,0.8-3.2,1.7-4.3,2.4c0.5,0,1,0.2,1.4,0.4c1.2-0.8,3.3-1.9,5.5-3.1C37.3,79,37.2,78.9,37.1,78.9z"
			/>
		<path class="st7" d="M42.9,76.3c-0.8,0.2-1.6,0.5-2.5,0.9c0.2,0.2,0.3,0.4,0.3,0.6c1-0.4,2-0.8,2.8-1.1
			C43.3,76.6,43.1,76.5,42.9,76.3z"/>
		<path class="st7" d="M32.9,82.7c0.8-0.2,1.7-0.1,2.5,0.2c1.1-0.9,2.3-1.8,3.6-2.6c-0.4,0-0.8-0.2-1.1-0.5
			C36.1,80.6,34.4,81.6,32.9,82.7z"/>
		<path class="st7" d="M40.1,74.2C41,73,41.9,72,43,71c-1.3,0.4-2.7,1.4-3.7,2.3c0.2,0.1,0.5,0.3,0.6,0.5C40,73.9,40.1,74,40.1,74.2
			z"/>
		<path class="st7" d="M73.7,53.1c0.8-0.9,0.9-1.7,0.9-4.8c-0.5,0.8-1.9,2.7-2.1,3.6C71.9,53.6,72.9,54,73.7,53.1z"/>
		<path class="st7" d="M73,56.2c0.8-0.7,1.4-2,1.7-3.3c-0.9,1.1-1.9,1.1-2.6,1.9C70.8,56.1,72.2,56.9,73,56.2z"/>
		<path class="st7" d="M71.8,54.1c0.2-0.6-0.2-1.9-0.1-2.8c-0.8,0.9-1.4,2.7-1.1,3.5C71,55.6,71.6,54.7,71.8,54.1z"/>
		<path class="st7" d="M70,56.9c0.7-0.7-0.4-2.4,0.1-4.4c0,0-1.4,2.3-1.6,3.1C68,58.4,69.2,57.6,70,56.9z"/>
		<path class="st7" d="M71.2,59c0.7-0.1,1.6-0.9,2.6-2.6c-0.7,0.9-2.7,0.5-3.3,1.2c-0.1,0.1-0.2,0.3-0.3,0.5c0,0.2,0,0.4,0.1,0.5
			c0.1,0.2,0.2,0.3,0.4,0.4C70.8,59,71,59,71.2,59z"/>
		<path class="st7" d="M68.7,61.2c-0.5,0.6-1.1,1.2-1.5,1.6c-1.1,0.7-2.5,0.7-3.2,1.3c-1.2,0.9-0.5,1.4,0.4,1.2
			c0.6-0.2,1.3-0.6,2.6-2.2c0.6-0.6,1.2-1.2,1.7-1.8c0.1,0.2,0.3,0.4,0.5,0.5c0.2,0.1,0.5,0.1,0.7,0c0.9-0.2,1.4-0.5,3-3.1
			c-0.6,0.4-2.9,0.4-3.8,1.3c-0.2,0.1-0.3,0.3-0.4,0.5C68.7,60.9,68.7,61,68.7,61.2z"/>
		<path class="st7" d="M61.7,65.1c0.1-1-0.2-0.9,0.8-2.7c-0.4,0.3-2.2,1.7-2.2,3C60.3,67.3,61.6,66.2,61.7,65.1z"/>
		<path class="st7" d="M59.1,67.5c0.9-0.9,0.3-1.8,1.1-3.4c0,0-1.5,1.1-2,2.4C57.7,67.7,58.2,68.4,59.1,67.5z"/>
		<path class="st7" d="M57,69.1c1.1-1.1,0.3-2,1-3.3c-0.6,0.6-1.4,1.2-2,2.2C55.4,69,55.9,70.2,57,69.1z"/>
		<path class="st7" d="M54.3,70.8c1.3-1.1,0.5-2.3,2-4.1c-1,0.5-2.7,2-3.3,3.1C52.5,70.9,53,72,54.3,70.8z"/>
		<path class="st7" d="M51.5,72.2c0.9-0.9,1-2.4,2.1-4.3c-0.6,0.4-2.7,1.6-3.5,2.9C49.1,72.4,50.6,73.1,51.5,72.2z"/>
		<path class="st7" d="M48,73.9c1.8-1.7,1-2.3,2.4-4.6c-1.5,0.9-2.8,2.1-3.8,3.5C46,73.7,46.4,75.5,48,73.9z"/>
		<path class="st7" d="M43.2,74.7c-0.6,1.3,0.5,2,1.4,1.1c0.9-0.9,1.3-3,3.2-5.7C46.5,70.9,44.1,72.8,43.2,74.7z"/>
		<path class="st7" d="M41.9,76.2c1.5-1.6,1.1-2.9,3.6-5.4c-1.8,0.7-4.7,2.8-5.4,4.4C39.3,76.7,40.8,77.2,41.9,76.2z"/>
		<path class="st7" d="M32.7,83.1c-1.1,0.5,0.6,1,2,0.5C36.1,83.1,33.6,82.6,32.7,83.1z"/>
		<path class="st7" d="M30.2,82.2c-1.3,0.3,0,0.8,1,0.6C32.1,82.6,31,82,30.2,82.2z"/>
		<path class="st7" d="M49.4,83.2c1.4,0,2.8-0.2,4.1-0.8c-0.6-0.1-1.1-0.2-1.7-0.4C51.1,82.6,50.3,83,49.4,83.2z"/>
		<path class="st7" d="M52.3,78.1c-0.6,0.4-1.2,0.8-1.8,1.1c2.6,0.3,5.2,0.4,7.8,0.3c0.4-0.5,0.7-1.1,1-1.7
			C57,78,54.6,78.1,52.3,78.1z"/>
		<path class="st7" d="M56,80.7c0.1,0,1.7-0.9,1.7-0.9h-1C56.5,80.1,56.2,80.4,56,80.7z"/>
		<path class="st7" d="M56.4,76.3l-0.4,0.1c-0.8,0.2-1.5,0.5-2.2,0.6c1.4,0.1,3-0.2,5.1-0.7c-0.9-0.1-1.7-0.3-2.5-0.6
			c-0.4-0.2-0.9-0.2-1.4-0.1l-0.1,0c-1,0.3-2,0.6-3,0.8c0.5,0.3,1,0.5,1.6,0.5c0.8-0.2,1.6-0.5,2.6-0.8l0.4-0.1c0,0,0,0,0.1,0
			C56.4,76.2,56.5,76.2,56.4,76.3C56.5,76.2,56.5,76.2,56.4,76.3C56.4,76.3,56.4,76.3,56.4,76.3z"/>
		<path class="st7" d="M60.4,71.1c0.5-0.2,1-0.4,1.5-0.7c-0.4-0.1-0.9-0.1-1.3-0.1c-0.4,0.2-0.9,0.5-1.4,0.6
			c-0.1,0.1-0.1,0.2-0.2,0.3c0.3,0.1,0.7,0.1,1,0C60.1,71.2,60.2,71.1,60.4,71.1z"/>
		<path class="st7" d="M62.2,70.4c-0.3,0.2-0.6,0.3-0.8,0.4c-0.7,0.5-1.5,0.9-2.3,1.3c0.2,0.3,0.6,0.6,1.2,0.6
			c1.4,0,2.7-0.6,5.1-2.1C64.3,70.8,63.2,70.7,62.2,70.4z"/>
		<path class="st7" d="M64.6,68c-0.3,0-0.6-0.1-1-0.1c-0.6,0.3-1.1,0.6-1.7,0.9c-0.1,0.2-0.1,0.3,0,0.5C62.9,69,63.8,68.6,64.6,68z"
			/>
		<path class="st7" d="M64.9,68.1C64,68.6,63,69.1,62,69.5c0.1,0.2,0.3,0.4,0.6,0.5c0.3-0.2,0.6-0.3,0.9-0.6c0,0,0,0,0.1,0
			c0,0,0,0,0.1,0c0,0,0,0,0,0.1c0,0,0,0,0,0.1c-0.3,0.2-0.6,0.3-0.8,0.5c0.2,0,0.4,0,0.6,0c2.3-0.3,3.3-1.1,5-2.4
			C67.2,68.1,66.1,68.2,64.9,68.1z"/>
		<path class="st7" d="M67,65.3c-0.1,0.1-0.2,0.1-0.3,0.2c-0.6,0.5-1.2,0.9-1.8,1.3c0,0.1,0,0.2,0.1,0.4c0.6-0.3,1.2-0.7,1.8-1.2
			c0,0,0,0,0.1,0c0,0,0,0,0.1,0c0,0,0,0,0,0.1c0,0,0,0,0,0.1c-0.5,0.5-1.1,0.9-1.8,1.2c0.2,0.1,0.3,0.2,0.5,0.2c0.2,0,0.4,0,0.6-0.1
			c2.1-0.5,3.7-2.3,3.7-2.3C68.9,65.3,68,65.4,67,65.3z"/>
		<path class="st7" d="M67,64.2c0,0.2,0.1,0.3,0.2,0.4c0.1,0.1,0.2,0.2,0.4,0.2c0.5-0.3,1-0.8,1.8-1.4c0,0,0,0,0.1,0c0,0,0,0,0.1,0
			c0,0,0,0,0,0.1s0,0,0,0.1c-0.7,0.6-1.2,1-1.7,1.3c0.2,0,0.4,0,0.6,0c0.9-0.2,1.7-0.8,3.5-2.8c-1,0.1-2,0.2-3,0.4
			C68.2,63.1,67.6,63.6,67,64.2z"/>
		<path class="st7" d="M68.5,62.6c-0.3,0.1-0.5,0.2-0.8,0.3c-0.2,0.1-0.4,0.3-0.5,0.5c-0.1,0.2-0.2,0.4-0.3,0.6
			C67.5,63.5,68,63.1,68.5,62.6z"/>
		<path class="st7" d="M66.8,58.3L66.8,58.3C66.8,58.3,66.8,58.3,66.8,58.3C66.9,58.4,66.9,58.4,66.8,58.3c0,0.1,0,0.1,0,0.1
			c-0.3,0.3-0.5,0.6-0.8,0.9c0,0.1,0,0.2,0.1,0.4c0.1,0.1,0.1,0.2,0.2,0.3c0.5-0.6,1-1.2,1.4-1.7c0.1-0.7,0-1.6,0-2.4
			c-0.5,0.5-1.7,2-1.8,3.1c0.2-0.2,0.4-0.5,0.6-0.8l0,0C66.7,58.3,66.7,58.3,66.8,58.3C66.8,58.3,66.8,58.3,66.8,58.3
			C66.8,58.3,66.8,58.3,66.8,58.3z"/>
		<path class="st7" d="M67.4,59.7c0.2-0.3,0.4-0.7,0.4-1c-0.4,0.4-0.8,0.9-1.2,1.4c0.2,0,0.3,0,0.5-0.1
			C67.1,59.9,67.3,59.8,67.4,59.7z"/>
		<path class="st7" d="M62.2,65.9c-1.3,0.7-0.7,1.3,0.3,1.3c1,0,2.1-0.4,3.9-1.8C65.2,65.8,63.2,65.3,62.2,65.9z"/>
		<path class="st7" d="M59.3,67.8c-0.7,0.6-0.4,1.3,0.5,1.3c0.9,0,1.8-0.2,4-1.4C61.7,67.8,60.4,66.9,59.3,67.8z"/>
		<path class="st7" d="M61.4,69.6c-1.5,0.2-3.5-0.6-4.3-0.1c-0.5,0.3-0.6,1,0.3,1.3C58.7,71,59.7,70.6,61.4,69.6z"/>
		<path class="st7" d="M45.2,76.1c-1.4,0.1-1.7,2,0.4,2.3c2.2,0.2,4.7-0.1,7.4-1.2C49.7,77.5,47,75.9,45.2,76.1z"/>
		<path class="st7" d="M62.3,64.8c0.3,0.2,0.8-0.1,1.4-0.9c0.6-0.8-0.2-1.6,2-4.3c-0.9,0.9-1.8,1.9-2.6,2.9
			C62.3,63.5,62,64.5,62.3,64.8z"/>
		<path class="st7" d="M64.7,62.1c-0.8,1.1,0.3,1.8,1.1,1c0.3-0.3,0.6-0.6,0.8-1c0.7-0.6,2-1.9,2.9-2.8l0,0v0v0c0,0,0,0,0,0
			c0,0,0,0,0,0h0h0c0,0,0,0,0,0c-0.8,0.9-1.8,1.9-2.6,2.6c0.3-0.4,0.5-0.9,0.8-1.5c0.7-0.7,1.3-1.4,1.8-2.2v0v0v0l0,0h0h0h0l0,0
			c-0.5,0.8-1.1,1.5-1.8,2.2C67.1,60.3,65.4,61.1,64.7,62.1z"/>
		<path class="st7" d="M41.6,78c3.2,1.4,10,3.8,12.3,4.1c0.2-1.2,0.5-2.3,0.5-2.3c-4.8-0.4-7.9-0.8-12-2.1C42,77.9,41.6,78,41.6,78z
			"/>
		<path class="st7" d="M52.8,74.7c-0.2,0-0.4,0-0.7,0C53,75,54,75.2,55,75.2c-0.3-0.1-0.5-0.3-0.7-0.5
			C53.8,74.7,53.3,74.8,52.8,74.7z"/>
		<path class="st7" d="M54.5,71.2c-1.1,0.8-0.5,1.5,0.4,1.6c0.9,0.1,2.8-0.2,4.7-1.3C58.7,71.6,55.9,70.2,54.5,71.2z"/>
		<path class="st7" d="M51.7,72.5c-0.9,0.2-2,1.7-0.3,1.9c1.7,0.2,3.5,0,5.1-0.7C54.8,73.6,53,72.2,51.7,72.5z"/>
		<path class="st7" d="M57,73.5c0.7-0.2,1.5-0.4,2.2-0.7c-0.3-0.1-0.5-0.3-0.7-0.4c-1,0.4-2.1,0.7-3.2,0.6c-0.1,0-0.2,0-0.2,0l0,0
			C55.5,73.3,56.2,73.6,57,73.5z"/>
		<path class="st7" d="M59.4,72.9c-0.6,0.2-1.1,0.4-1.6,0.6c-1,0.5-2,0.8-3,1.1c0.1,0.2,0.2,0.3,0.4,0.4c0.2,0.1,0.3,0.2,0.5,0.2
			c0,0,0.1,0,0.1,0c1.2-0.2,2.3-0.6,3.3-1.1c0,0,0,0,0.1,0c0,0,0,0,0.1,0c0,0,0,0,0,0.1c0,0,0,0,0,0.1c-0.9,0.5-1.9,0.8-2.9,1
			c1.8,0.2,3.7-0.4,7-2C61.2,73.5,60.1,73.2,59.4,72.9z"/>
		<path class="st7" d="M48.3,74.3c-1.4,0.3-1.5,1.6-0.3,1.9c1.2,0.3,3.1,0.3,6.8-0.8C52.5,75.4,49.8,74,48.3,74.3z"/>
		<path class="st7" d="M51.3,76.6c-0.4,0.1-0.8,0.1-1.3,0.1c0.7,0.2,1.4,0.2,2.2,0.3C51.9,76.9,51.6,76.8,51.3,76.6z"/>
	</g>
</g>
<g>
	<path class="st8" d="M95.8,13.5l4.9,13.1h-3l-1-2.9h-4.9l-1,2.9h-2.9l5-13.1H95.8z M96,21.5l-1.7-4.8h0l-1.7,4.8H96z"/>
	<path class="st8" d="M105.9,19h-4.6v-2h8v2l-4.9,5.6h5.3v2H101v-2L105.9,19z"/>
	<path class="st8" d="M117.8,21c-0.2-1.5-1-2.3-2.2-2.3c-0.9,0-1.6,0.6-2,1.3h-2.5c0.5-1.8,2.1-3.2,4.5-3.2c2.9,0,4.9,2,4.9,5.1
		c0,3-1.9,4.9-4.8,4.9c-2.9,0-4.8-1.9-4.8-4.9c0-0.3,0-0.6,0.1-0.9H117.8z M113.4,22.6c0.1,0.7,0.3,1.2,0.6,1.6
		c0.4,0.4,0.9,0.7,1.6,0.7c1.3,0,2-0.9,2.2-2.3H113.4z"/>
	<path class="st8" d="M124.1,17.1v1.8h0c0.5-1.2,1.7-2,3-2c0.2,0,0.4,0,0.6,0.1v2.4c-0.2-0.1-0.6-0.1-0.9-0.1c-1.9,0-2.6,1.4-2.6,3
		v4.3h-2.6v-9.5H124.1z"/>
	<path class="st8" d="M131.4,13.5v4.8h0c0.6-1,1.8-1.4,3-1.4c1.9,0,3.9,1.5,3.9,5c0,3.5-2,5-3.9,5c-1.4,0-2.5-0.4-3.1-1.4h0v1.2
		h-2.5V13.5H131.4z M133.5,18.8c-1.5,0-2.2,1.4-2.2,3c0,1.6,0.7,3,2.2,3c1.5,0,2.2-1.4,2.2-3C135.7,20.2,135,18.8,133.5,18.8z"/>
	<path class="st8" d="M139.9,20c0.1-2.4,2.3-3.2,4.5-3.2c1.9,0,4.2,0.4,4.2,2.7v4.9c0,0.9,0.1,1.7,0.3,2.1h-2.6
		c-0.1-0.3-0.2-0.6-0.2-0.9c-0.8,0.9-2,1.2-3.2,1.2c-1.8,0-3.2-0.9-3.2-2.8c0-4.3,6.4-2,6.3-4.1c0-1.1-0.8-1.3-1.7-1.3
		c-1,0-1.6,0.4-1.7,1.4H139.9z M145.9,21.9c-0.4,0.4-1.3,0.4-2.2,0.6c-0.8,0.1-1.5,0.4-1.5,1.4c0,1,0.8,1.2,1.6,1.2
		c2,0,2.1-1.6,2.1-2.2V21.9z"/>
	<path class="st8" d="M151.9,29.9c-0.5,0-1.1,0-1.6-0.1v-2.1c0.5,0.1,1,0.1,1.5,0.1c0.7-0.1,1-0.6,1-1.2c0-0.2,0-0.4-0.1-0.6
		l-3.3-8.9h2.8l2.1,6.5h0l2.1-6.5h2.7l-4,10.7C154.6,29.3,153.7,29.9,151.9,29.9z"/>
	<path class="st8" d="M164.6,18.8c-1.7,0-2.2,1.7-2.2,3.1c0,1.4,0.5,3,2.2,3c1.2,0,1.9-0.8,2.1-1.9h2.5c-0.3,2.5-2.1,3.9-4.6,3.9
		c-2.9,0-4.8-2-4.8-4.8c0-3,1.8-5.1,4.8-5.1c2.3,0,4.3,1.2,4.5,3.6h-2.5C166.3,19.3,165.7,18.8,164.6,18.8z"/>
	<path class="st8" d="M170.4,20c0.1-2.4,2.3-3.2,4.5-3.2c1.9,0,4.2,0.4,4.2,2.7v4.9c0,0.9,0.1,1.7,0.3,2.1h-2.6
		c-0.1-0.3-0.2-0.6-0.2-0.9c-0.8,0.9-2,1.2-3.2,1.2c-1.8,0-3.2-0.9-3.2-2.8c0-4.3,6.4-2,6.3-4.1c0-1.1-0.8-1.3-1.7-1.3
		c-1,0-1.6,0.4-1.7,1.4H170.4z M176.5,21.9c-0.4,0.4-1.3,0.4-2.2,0.6c-0.8,0.1-1.5,0.4-1.5,1.4c0,1,0.8,1.2,1.6,1.2
		c2,0,2.1-1.6,2.1-2.2V21.9z"/>
	<path class="st8" d="M183.6,17.1v1.3h0.1c0.7-1.1,1.8-1.6,2.9-1.6c2.8,0,3.5,1.6,3.5,3.9v5.8h-2.6v-5.4c0-1.6-0.4-2.3-1.7-2.3
		c-1.4,0-2,0.8-2,2.7v5h-2.6v-9.5H183.6z"/>
	<path class="st8" d="M204.4,13.5c2.3,0,3.8,1.6,3.8,3.6c0,1.5-0.6,2.7-2.1,3.3v0c1.4,0.4,1.8,1.7,1.9,3.1c0.1,0.8,0,2.4,0.6,3.1
		h-2.9c-0.3-0.8-0.3-2.1-0.5-3.1c-0.2-1.4-0.7-2-2.2-2h-2.9v5.1h-2.9V13.5H204.4z M203.4,19.4c1.3,0,2-0.6,2-1.9
		c0-1.3-0.7-1.8-2-1.8h-3.2v3.7H203.4z"/>
	<path class="st8" d="M214.8,24.8c1,0,1.9-0.6,2.1-1.2h2.3c-0.7,2.3-2.3,3.2-4.4,3.2c-3,0-4.8-2-4.8-5c0-2.8,2-5,4.8-5
		c3.2,0,4.8,2.7,4.6,5.6h-6.8C212.5,24.1,213.3,24.8,214.8,24.8z M214.6,18.8c-1.7,0-2.1,1.3-2.2,2h4.2
		C216.4,19.5,215.9,18.8,214.6,18.8z"/>
	<path class="st8" d="M224.9,25.1c0.7,0,1.7-0.3,1.7-1.2c0-0.8-1.1-1.1-3-1.5c-1.5-0.3-3-0.8-3-2.5c0-2.4,2.1-3,4.1-3
		c2.1,0,4,0.7,4.2,3h-2.5c-0.1-1-0.8-1.3-1.8-1.3c-0.6,0-1.4,0.1-1.4,0.9c0,0.9,1.5,1.1,3,1.4c1.5,0.3,3,0.9,3,2.7
		c0,2.5-2.2,3.3-4.3,3.3c-2.2,0-4.4-0.8-4.5-3.3h2.5C222.9,24.6,223.8,25.1,224.9,25.1z"/>
	<path class="st8" d="M233.2,17.1v1.2h0c0.6-1,1.7-1.5,2.8-1.5c3,0,4.3,2.4,4.3,5.1c0,2.5-1.4,4.9-4.2,4.9c-1.2,0-2.2-0.5-2.8-1.4h0
		v4.5h-2.6V17.1H233.2z M237.7,21.8c0-1.5-0.6-3.1-2.3-3.1c-1.7,0-2.3,1.5-2.3,3.1c0,1.5,0.6,3,2.3,3
		C237.2,24.8,237.7,23.4,237.7,21.8z"/>
	<path class="st8" d="M248.3,26.6v-1.3h-0.1c-0.7,1.1-1.8,1.6-2.9,1.6c-2.8,0-3.5-1.5-3.5-3.9v-5.8h2.6v5.4c0,1.6,0.4,2.3,1.7,2.3
		c1.4,0,2-0.8,2-2.7v-5h2.6v9.5H248.3z"/>
	<path class="st8" d="M255.4,13.5v4.8h0c0.6-1,1.8-1.4,3-1.4c1.9,0,3.9,1.5,3.9,5c0,3.5-2,5-3.9,5c-1.4,0-2.5-0.4-3.1-1.4h0v1.2
		h-2.5V13.5H255.4z M257.5,18.8c-1.5,0-2.2,1.4-2.2,3c0,1.6,0.7,3,2.2,3c1.5,0,2.2-1.4,2.2-3C259.7,20.2,259,18.8,257.5,18.8z"/>
	<path class="st8" d="M266.7,13.5v13.1h-2.6V13.5H266.7z"/>
	<path class="st8" d="M268.8,15.6v-2.1h2.6v2.1H268.8z M271.4,17.1v9.5h-2.6v-9.5H271.4z"/>
	<path class="st8" d="M276.3,13.5v7l3.3-3.4h3.1l-3.6,3.5l4,6h-3.2l-2.6-4.2l-1,1v3.3h-2.6V13.5H276.3z"/>
	<path class="st8" d="M283.9,20c0.1-2.4,2.3-3.2,4.5-3.2c1.9,0,4.2,0.4,4.2,2.7v4.9c0,0.9,0.1,1.7,0.3,2.1h-2.6
		c-0.1-0.3-0.2-0.6-0.2-0.9c-0.8,0.9-2,1.2-3.2,1.2c-1.8,0-3.2-0.9-3.2-2.8c0-4.3,6.4-2,6.3-4.1c0-1.1-0.8-1.3-1.7-1.3
		c-1,0-1.6,0.4-1.7,1.4H283.9z M289.9,21.9c-0.4,0.4-1.3,0.4-2.2,0.6c-0.8,0.1-1.5,0.4-1.5,1.4c0,1,0.8,1.2,1.6,1.2
		c2,0,2.1-1.6,2.1-2.2V21.9z"/>
	<path class="st8" d="M298.5,25.1c0.7,0,1.7-0.3,1.7-1.2c0-0.8-1.1-1.1-3-1.5c-1.5-0.3-3-0.8-3-2.5c0-2.4,2.1-3,4.1-3
		c2.1,0,4,0.7,4.2,3h-2.5c-0.1-1-0.8-1.3-1.8-1.3c-0.6,0-1.4,0.1-1.4,0.9c0,0.9,1.5,1.1,3,1.4c1.5,0.3,3,0.9,3,2.7
		c0,2.5-2.2,3.3-4.3,3.3c-2.2,0-4.4-0.8-4.5-3.3h2.5C296.5,24.6,297.5,25.1,298.5,25.1z"/>
	<path class="st8" d="M307,17.1v9.5h-2.6v-9.5H307z"/>
	<path class="st8" d="M311.6,17.1v1.3h0.1c0.7-1.1,1.8-1.6,2.9-1.6c2.8,0,3.5,1.6,3.5,3.9v5.8h-2.6v-5.4c0-1.6-0.4-2.3-1.7-2.3
		c-1.4,0-2,0.8-2,2.7v5h-2.6v-9.5H311.6z"/>
	<path class="st8" d="M322.6,17.1v9.5H320v-9.5H322.6z"/>
	<path class="st8" d="M327.2,17.1v1.3h0.1c0.7-1.1,1.8-1.6,2.9-1.6c2.8,0,3.5,1.6,3.5,3.9v5.8H331v-5.4c0-1.6-0.4-2.3-1.7-2.3
		c-1.4,0-2,0.8-2,2.7v5h-2.6v-9.5H327.2z"/>
	<path class="st8" d="M93.3,35.5l3.1,9h0l2.9-9h4.1v13.1h-2.7v-9.3h0l-3.2,9.3h-2.2L92,39.4h0v9.2h-2.7V35.5H93.3z"/>
	<path class="st8" d="M105.5,42c0.1-2.4,2.3-3.2,4.5-3.2c1.9,0,4.2,0.4,4.2,2.7v4.9c0,0.9,0.1,1.7,0.3,2.1h-2.6
		c-0.1-0.3-0.2-0.6-0.2-0.9c-0.8,0.9-2,1.2-3.2,1.2c-1.8,0-3.2-0.9-3.2-2.8c0-4.3,6.4-2,6.3-4.1c0-1.1-0.8-1.3-1.7-1.3
		c-1,0-1.6,0.4-1.7,1.4H105.5z M111.6,43.9c-0.4,0.4-1.3,0.4-2.2,0.6c-0.8,0.1-1.5,0.4-1.5,1.4c0,1,0.8,1.2,1.6,1.2
		c2,0,2.1-1.6,2.1-2.2V43.9z"/>
	<path class="st8" d="M118.9,35.5v13.1h-2.6V35.5H118.9z"/>
	<path class="st8" d="M121,37.6v-2.1h2.6v2.1H121z M123.6,39.1v9.5H121v-9.5H123.6z"/>
	<path class="st8" d="M127.1,51.9c-0.5,0-1.1,0-1.6-0.1v-2.1c0.5,0.1,1,0.1,1.5,0.1c0.7-0.1,1-0.6,1-1.2c0-0.2,0-0.4-0.1-0.6
		l-3.3-8.9h2.8l2.1,6.5h0l2.1-6.5h2.7l-4,10.7C129.8,51.3,128.8,51.9,127.1,51.9z"/>
	<path class="st8" d="M136.6,51.9c-0.5,0-1.1,0-1.6-0.1v-2.1c0.5,0.1,1,0.1,1.5,0.1c0.7-0.1,1-0.6,1-1.2c0-0.2,0-0.4-0.1-0.6
		l-3.3-8.9h2.8l2.1,6.5h0l2.1-6.5h2.7l-4,10.7C139.3,51.3,138.4,51.9,136.6,51.9z"/>
	<path class="st8" d="M151.4,43c-0.2-1.5-1-2.3-2.2-2.3c-0.9,0-1.6,0.6-2,1.3h-2.5c0.5-1.8,2.1-3.2,4.5-3.2c2.9,0,4.9,2,4.9,5.1
		c0,3-1.9,4.9-4.8,4.9c-2.9,0-4.8-1.9-4.8-4.9c0-0.3,0-0.6,0.1-0.9H151.4z M147,44.7c0.1,0.7,0.3,1.2,0.6,1.6
		c0.4,0.4,0.9,0.7,1.6,0.7c1.3,0,2-0.9,2.2-2.3H147z"/>
	<path class="st8" d="M163.5,35.5l5.5,8.8h0v-8.8h2.7v13.1h-2.9l-5.4-8.8h0v8.8h-2.7V35.5H163.5z"/>
	<path class="st8" d="M173.8,42c0.1-2.4,2.3-3.2,4.5-3.2c1.9,0,4.2,0.4,4.2,2.7v4.9c0,0.9,0.1,1.7,0.3,2.1h-2.6
		c-0.1-0.3-0.2-0.6-0.2-0.9c-0.8,0.9-2,1.2-3.2,1.2c-1.8,0-3.2-0.9-3.2-2.8c0-4.3,6.4-2,6.3-4.1c0-1.1-0.8-1.3-1.7-1.3
		c-1,0-1.6,0.4-1.7,1.4H173.8z M179.8,43.9c-0.4,0.4-1.3,0.4-2.2,0.6c-0.8,0.1-1.5,0.4-1.5,1.4c0,1,0.8,1.2,1.6,1.2
		c2,0,2.1-1.6,2.1-2.2V43.9z"/>
	<path class="st8" d="M188.8,41h-4.6v-2h8v2l-4.9,5.6h5.3v2h-8.7v-2L188.8,41z"/>
	<path class="st8" d="M194,37.6v-2.1h2.6v2.1H194z M196.6,39.1v9.5H194v-9.5H196.6z"/>
	<path class="st8" d="M201.2,39.1v1.8h0c0.5-1.2,1.7-2,3-2c0.2,0,0.4,0,0.6,0.1v2.4c-0.2-0.1-0.6-0.1-0.9-0.1c-1.9,0-2.6,1.4-2.6,3
		v4.3h-2.6v-9.5H201.2z"/>
	<path class="st8" d="M208.5,35.5v13.1h-2.6V35.5H208.5z"/>
	<path class="st8" d="M210.6,37.6v-2.1h2.6v2.1H210.6z M213.2,39.1v9.5h-2.6v-9.5H213.2z"/>
	<path class="st8" d="M216.7,51.9c-0.5,0-1.1,0-1.6-0.1v-2.1c0.5,0.1,1,0.1,1.5,0.1c0.7-0.1,1-0.6,1-1.2c0-0.2,0-0.4-0.1-0.6
		l-3.3-8.9h2.8l2.1,6.5h0l2.1-6.5h2.7l-4,10.7C219.4,51.3,218.5,51.9,216.7,51.9z"/>
	<path class="st8" d="M224.9,37.6v-2.1h2.6v2.1H224.9z M227.5,39.1v9.5h-2.6v-9.5H227.5z"/>
	<path class="st8" d="M236.1,51.9c-0.5,0-1.1,0-1.6-0.1v-2.1c0.5,0.1,1,0.1,1.5,0.1c0.7-0.1,1-0.6,1-1.2c0-0.2,0-0.4-0.1-0.6
		l-3.3-8.9h2.8l2.1,6.5h0l2.1-6.5h2.7l-4,10.7C238.8,51.3,237.8,51.9,236.1,51.9z"/>
	<path class="st8" d="M244.1,42c0.1-2.4,2.3-3.2,4.5-3.2c1.9,0,4.2,0.4,4.2,2.7v4.9c0,0.9,0.1,1.7,0.3,2.1h-2.6
		c-0.1-0.3-0.2-0.6-0.2-0.9c-0.8,0.9-2,1.2-3.2,1.2c-1.8,0-3.2-0.9-3.2-2.8c0-4.3,6.4-2,6.3-4.1c0-1.1-0.8-1.3-1.7-1.3
		c-1,0-1.6,0.4-1.7,1.4H244.1z M250.1,43.9c-0.4,0.4-1.3,0.4-2.2,0.6c-0.8,0.1-1.5,0.4-1.5,1.4c0,1,0.8,1.2,1.6,1.2
		c2,0,2.1-1.6,2.1-2.2V43.9z"/>
	<path class="st8" d="M257.2,39.1v1.3h0.1c0.7-1.1,1.8-1.6,2.9-1.6c2.8,0,3.5,1.6,3.5,3.9v5.8H261v-5.4c0-1.6-0.4-2.3-1.7-2.3
		c-1.4,0-2,0.8-2,2.7v5h-2.6v-9.5H257.2z"/>
	<path class="st8" d="M268.3,39.1v9.5h-2.6v-9.5H268.3z"/>
	<path class="st8" d="M272.8,39.1v1.3h0.1c0.7-1.1,1.8-1.6,2.9-1.6c2.8,0,3.5,1.6,3.5,3.9v5.8h-2.6v-5.4c0-1.6-0.4-2.3-1.7-2.3
		c-1.4,0-2,0.8-2,2.7v5h-2.6v-9.5H272.8z"/>
	<path class="st8" d="M287.9,47.4c-0.6,1-1.6,1.4-2.9,1.4c-2.9,0-4.3-2.4-4.3-5.1c0-2.5,1.4-4.9,4.2-4.9c1.1,0,2.2,0.5,2.8,1.4h0
		v-4.8h2.6v13.1H288L287.9,47.4L287.9,47.4z M285.7,40.8c-1.7,0-2.3,1.5-2.3,3c0,1.5,0.7,3,2.3,3c1.7,0,2.2-1.5,2.2-3.1
		C287.9,42.3,287.4,40.8,285.7,40.8z"/>
	<path class="st8" d="M292.3,42c0.1-2.4,2.3-3.2,4.5-3.2c1.9,0,4.2,0.4,4.2,2.7v4.9c0,0.9,0.1,1.7,0.3,2.1h-2.6
		c-0.1-0.3-0.2-0.6-0.2-0.9c-0.8,0.9-2,1.2-3.2,1.2c-1.8,0-3.2-0.9-3.2-2.8c0-4.3,6.4-2,6.3-4.1c0-1.1-0.8-1.3-1.7-1.3
		c-1,0-1.6,0.4-1.7,1.4H292.3z M298.3,43.9c-0.4,0.4-1.3,0.4-2.2,0.6c-0.8,0.1-1.5,0.4-1.5,1.4c0,1,0.8,1.2,1.6,1.2
		c2,0,2.1-1.6,2.1-2.2V43.9z"/>
	<path class="st8" d="M94.9,57.5c3.4,0,5.9,2.1,5.9,6.5c0,3.8-1.9,6.6-5.9,6.6h-5.6V57.5H94.9z M94.7,68.2c1.7,0,3.3-1,3.3-3.9
		c0-2.6-0.9-4.3-3.8-4.3h-2.1v8.3H94.7z"/>
	<path class="st8" d="M107.2,60.8c3,0,4.9,2,4.9,5s-1.9,5-4.9,5c-3,0-4.9-1.9-4.9-5S104.2,60.8,107.2,60.8z M106.6,57.5v2.1h-2.5
		v-2.1H106.6z M107.2,68.9c1.8,0,2.3-1.5,2.3-3c0-1.5-0.5-3-2.3-3c-1.8,0-2.3,1.5-2.3,3C104.9,67.4,105.5,68.9,107.2,68.9z
		 M110.3,57.5v2.1h-2.5v-2.1H110.3z"/>
	<path class="st8" d="M116.2,70.6l-3.2-9.5h2.7l2,6.5h0l2-6.5h2.6l-3.2,9.5H116.2z"/>
	<path class="st8" d="M126,57.5v13.1h-2.6V57.5H126z"/>
	<path class="st8" d="M134.8,65c-0.2-1.5-1-2.3-2.2-2.3c-0.9,0-1.6,0.6-2,1.3h-2.5c0.5-1.8,2.1-3.2,4.5-3.2c2.9,0,4.9,2,4.9,5.1
		c0,3-1.9,4.9-4.8,4.9c-2.9,0-4.8-1.9-4.8-4.9c0-0.3,0-0.6,0.1-0.9H134.8z M130.4,66.7c0.1,0.7,0.3,1.2,0.6,1.6
		c0.4,0.4,0.9,0.7,1.6,0.7c1.3,0,2-0.9,2.2-2.3H130.4z"/>
	<path class="st8" d="M143.8,61.1v1.7h-1.9v4.7c0,0.9,0.2,1.1,1.1,1.1c0.3,0,0.6,0,0.8-0.1v2c-0.4,0.1-1,0.1-1.5,0.1
		c-1.6,0-3-0.3-3-2.2v-5.6h-1.6v-1.7h1.6v-2.8h2.6v2.8H143.8z"/>
	<path class="st8" d="M149.4,57.5h3.3l2.6,4.2l2.7-4.2h3.2l-4.2,6.3l4.6,6.8h-3.4l-2.9-4.5l-2.9,4.5h-3.2l4.6-6.9L149.4,57.5z"/>
	<path class="st8" d="M169.1,65c-0.2-1.5-1-2.3-2.2-2.3c-0.9,0-1.6,0.6-2,1.3h-2.5c0.5-1.8,2.1-3.2,4.5-3.2c2.9,0,4.9,2,4.9,5.1
		c0,3-1.9,4.9-4.8,4.9c-2.9,0-4.8-1.9-4.8-4.9c0-0.3,0-0.6,0.1-0.9H169.1z M164.7,66.7c0.1,0.7,0.3,1.2,0.6,1.6
		c0.4,0.4,0.9,0.7,1.6,0.7c1.3,0,2-0.9,2.2-2.3H164.7z"/>
	<path class="st8" d="M177.3,63.1h-4.6v-2h8v2l-4.9,5.6h5.3v2h-8.7v-2L177.3,63.1z"/>
	<path class="st8" d="M182.5,59.6v-2.1h2.6v2.1H182.5z M185.1,61.1v9.5h-2.6v-9.5H185.1z"/>
	<path class="st8" d="M189.7,61.1v1.3h0.1c0.7-1.1,1.8-1.6,2.9-1.6c2.8,0,3.5,1.6,3.5,3.9v5.8h-2.6v-5.4c0-1.6-0.4-2.3-1.7-2.3
		c-1.4,0-2,0.8-2,2.7v5h-2.6v-9.5H189.7z"/>
	<path class="st8" d="M204.8,65c-0.2-1.5-1-2.3-2.2-2.3c-0.9,0-1.6,0.6-2,1.3H198c0.5-1.8,2.1-3.2,4.5-3.2c2.9,0,4.9,2,4.9,5.1
		c0,3-1.9,4.9-4.8,4.9c-2.9,0-4.8-1.9-4.8-4.9c0-0.3,0-0.6,0.1-0.9H204.8z M200.4,66.7c0.1,0.7,0.3,1.2,0.6,1.6
		c0.4,0.4,0.9,0.7,1.6,0.7c1.3,0,2-0.9,2.2-2.3H200.4z"/>
	<path class="st8" d="M215.3,69.4c-0.6,1-1.6,1.4-2.9,1.4c-2.9,0-4.3-2.4-4.3-5.1c0-2.5,1.4-4.9,4.2-4.9c1.1,0,2.2,0.5,2.8,1.4h0
		v-4.8h2.6v13.1h-2.5L215.3,69.4L215.3,69.4z M213.1,62.8c-1.7,0-2.3,1.5-2.3,3c0,1.5,0.7,3,2.3,3c1.7,0,2.2-1.5,2.2-3.1
		C215.3,64.3,214.8,62.8,213.1,62.8z"/>
	<path class="st8" d="M219.7,64c0.1-2.4,2.3-3.2,4.5-3.2c1.9,0,4.2,0.4,4.2,2.7v4.9c0,0.9,0.1,1.7,0.3,2.1H226
		c-0.1-0.3-0.2-0.6-0.2-0.9c-0.8,0.9-2,1.2-3.2,1.2c-1.8,0-3.2-0.9-3.2-2.8c0-4.3,6.4-2,6.3-4.1c0-1.1-0.8-1.3-1.7-1.3
		c-1,0-1.6,0.4-1.7,1.4H219.7z M225.7,65.9c-0.4,0.4-1.3,0.4-2.2,0.6c-0.8,0.1-1.5,0.4-1.5,1.4c0,1,0.8,1.2,1.6,1.2
		c2,0,2.1-1.6,2.1-2.2V65.9z"/>
	<path class="st8" d="M232.8,61.1v1.8h0c0.5-1.2,1.7-2,3-2c0.2,0,0.4,0,0.6,0.1v2.4c-0.2-0.1-0.6-0.1-0.9-0.1c-1.9,0-2.6,1.4-2.6,3
		v4.3h-2.6v-9.5H232.8z"/>
	<path class="st8" d="M240.1,57.5v13.1h-2.6V57.5H240.1z"/>
	<path class="st8" d="M244.9,61.1v9.5h-2.6v-9.5H244.9z"/>
	<path class="st8" d="M253.6,73.9v-4.5h0c-0.6,1-1.8,1.4-3,1.4c-1.7,0-4-1.2-4-4.9c0-2.6,1.4-5.1,4.3-5.1c1.2,0,2.3,0.4,2.9,1.5h0
		v-1.2h2.5v12.8H253.6z M251.4,68.9c1.7,0,2.3-1.4,2.3-3c0-1.5-0.6-3.1-2.2-3.1c-1.7,0-2.3,1.5-2.3,3
		C249.1,67.4,249.7,68.9,251.4,68.9z"/>
	<path class="st8" d="M270,57.5l4.9,13.1h-3l-1-2.9h-4.9l-1,2.9h-2.9l5-13.1H270z M270.2,65.5l-1.6-4.8h0l-1.7,4.8H270.2z"/>
	<path class="st8" d="M280,74.2c-1.9,0-4-0.9-4.2-3h2.6c0.2,1,1,1.3,1.9,1.3c1.5,0,2.1-1,2.1-2.3v-1.2h0c-0.6,1-1.7,1.5-2.8,1.5
		c-2.9,0-4.1-2.2-4.1-4.8c0-2.5,1.4-4.7,4.1-4.7c1.2,0,2.2,0.4,2.8,1.5h0v-1.3h2.5V70C284.9,71.5,284.4,74.2,280,74.2z M282.4,65.7
		c0-1.5-0.5-2.9-2.2-2.9c-1.5,0-2.1,1.3-2.1,2.7c0,1.4,0.5,2.8,2.1,2.8C281.7,68.3,282.4,67.1,282.4,65.7z"/>
	<path class="st8" d="M291.5,68.9c1,0,1.9-0.6,2.1-1.2h2.3c-0.7,2.3-2.3,3.2-4.4,3.2c-3,0-4.8-2-4.8-5c0-2.8,2-5,4.8-5
		c3.2,0,4.8,2.7,4.6,5.6h-6.8C289.2,68.2,290,68.9,291.5,68.9z M291.3,62.8c-1.7,0-2.1,1.3-2.2,2h4.2
		C293.2,63.5,292.6,62.8,291.3,62.8z"/>
	<path class="st8" d="M300,61.1v1.3h0.1c0.7-1.1,1.8-1.6,2.9-1.6c2.8,0,3.5,1.6,3.5,3.9v5.8h-2.6v-5.4c0-1.6-0.4-2.3-1.7-2.3
		c-1.4,0-2,0.8-2,2.7v5h-2.6v-9.5H300z"/>
	<path class="st8" d="M313.6,61.1v1.7h-1.9v4.7c0,0.9,0.2,1.1,1.1,1.1c0.3,0,0.6,0,0.8-0.1v2c-0.4,0.1-1,0.1-1.5,0.1
		c-1.6,0-3-0.3-3-2.2v-5.6h-1.6v-1.7h1.6v-2.8h2.6v2.8H313.6z"/>
	<path class="st8" d="M317.6,57.5v13.1H315V57.5H317.6z"/>
	<path class="st8" d="M319.7,59.6v-2.1h2.6v2.1H319.7z M322.3,61.1v9.5h-2.6v-9.5H322.3z"/>
	<path class="st8" d="M325.8,73.9c-0.5,0-1.1,0-1.6-0.1v-2.1c0.5,0.1,1,0.1,1.5,0.1c0.7-0.1,1-0.6,1-1.2c0-0.2,0-0.4-0.1-0.6
		l-3.3-8.9h2.8l2.1,6.5h0l2.1-6.5h2.7l-4,10.7C328.5,73.3,327.5,73.9,325.8,73.9z"/>
	<path class="st8" d="M333.9,59.6v-2.1h2.6v2.1H333.9z M336.5,61.1v9.5h-2.6v-9.5H336.5z"/>
</g>
</svg>
