<svg width="341" height="84" viewBox="0 0 341 84" fill="none" xmlns="http://www.w3.org/2000/svg">
<g clip-path="url(#clip0_22_733)">
<path d="M31.7939 80.8691L32.137 80.2429C32.3658 79.8065 32.423 79.2942 32.3467 78.8199L32.2895 78.2316L32.6517 78.5352C33.052 78.8578 33.4332 79.1614 33.8335 79.446L34.1003 79.6358L31.7939 80.8691ZM76.5304 48.9351C76.5304 48.9161 76.5304 48.9161 76.5304 48.8971C76.5304 48.8781 76.5304 48.8781 76.5304 48.8592C76.5304 48.8402 76.5113 48.8402 76.5113 48.8402C76.5113 48.8402 76.4923 48.8212 76.4732 48.8212C76.4541 48.8212 76.4541 48.8212 76.4351 48.8212C76.416 48.8212 76.416 48.8212 76.3969 48.8212C76.3779 48.8212 76.3779 48.8402 76.3779 48.8402C76.3779 48.8402 76.3588 48.8592 76.3588 48.8781C75.9585 50.0166 75.5011 51.212 75.0245 52.2176C74.7386 52.5592 74.2049 53.1853 73.8046 53.3182C74.2049 52.8058 74.4718 52.1987 74.5671 51.5535C75.2533 50.3012 75.787 48.973 76.1682 47.6068C76.1682 47.5879 76.1682 47.5879 76.1682 47.5689C76.1682 47.5499 76.1682 47.5499 76.1491 47.5309C76.1491 47.512 76.1301 47.512 76.1301 47.512C76.1301 47.512 76.111 47.493 76.092 47.493C76.0729 47.493 76.0729 47.493 76.0538 47.493C76.0348 47.493 76.0348 47.493 76.0157 47.512C75.9967 47.512 75.9967 47.5309 75.9967 47.5309C75.9967 47.5499 75.9776 47.5499 75.9776 47.5689C75.6536 48.7833 75.1961 49.9597 74.6243 51.0792C74.6814 50.5669 74.7005 50.0735 74.6814 49.5612C75.2533 48.3848 75.6726 47.1515 75.9395 45.8612C75.9395 45.8422 75.9395 45.8422 75.9395 45.8232C75.9395 45.8043 75.9395 45.8043 75.9204 45.7853C75.9204 45.7663 75.9014 45.7663 75.9014 45.7663C75.9014 45.7663 75.8823 45.7473 75.8632 45.7473C75.8442 45.7473 75.8251 45.7473 75.8061 45.7663C75.787 45.7853 75.7679 45.8043 75.7679 45.8232C75.5201 46.9807 75.158 48.1002 74.6814 49.1817C74.6814 48.8402 74.6624 48.5366 74.6624 48.2899C74.6624 48.1381 74.6624 47.9863 74.6624 47.8535C75.1199 46.3545 75.482 44.8366 75.7489 43.2996C75.7489 43.2807 75.7489 43.2807 75.7489 43.2617C75.7489 43.2427 75.7489 43.2427 75.7298 43.2237L75.7107 43.2048C75.6917 43.2048 75.6917 43.1858 75.6726 43.1858C75.6536 43.1858 75.6345 43.1858 75.6154 43.2048C75.5964 43.2237 75.5773 43.2427 75.5773 43.2617C75.2723 44.9314 74.8721 46.5822 74.3574 48.214C74.224 48.4038 74.0906 48.5935 73.9571 48.7643C73.8809 48.8402 73.8237 48.9161 73.7856 48.973C73.614 49.2197 73.4044 49.5233 73.1947 49.8648C73.6521 48.4038 74.1287 46.772 74.4146 45.5007C74.4146 45.4817 74.4146 45.4627 74.3955 45.4438C74.3765 45.4248 74.3574 45.4058 74.3383 45.4058C74.3193 45.4058 74.3002 45.4058 74.2812 45.4248C74.2621 45.4438 74.243 45.4627 74.243 45.4817C73.9381 46.9427 73.3472 48.8971 72.8135 50.491C72.4513 51.0602 72.1654 51.6864 71.9748 52.3315C71.8795 51.7053 71.8985 51.0602 72.0701 50.434C72.6419 48.9161 73.1375 47.3791 73.5568 45.8232C73.5568 45.8043 73.5568 45.8043 73.5568 45.7853C73.5568 45.7663 73.5568 45.7663 73.5378 45.7473C73.5378 45.7284 73.5187 45.7284 73.5187 45.7284C73.5187 45.7284 73.4997 45.7094 73.4806 45.7094C73.4615 45.7094 73.4615 45.7094 73.4425 45.7094C73.4234 45.7094 73.4234 45.7094 73.4044 45.7284C73.3853 45.7284 73.3853 45.7473 73.3853 45.7473C73.3853 45.7663 73.3662 45.7663 73.3662 45.7853C72.8706 47.6448 72.2607 49.4853 71.5364 51.2499C71.5173 51.2689 71.5173 51.2879 71.5173 51.2879C70.9455 52.0658 70.5071 52.9387 70.2593 53.8874C69.9924 52.7679 70.8692 50.6048 71.1361 49.8269C68.4294 55.7848 64.0453 60.4146 58.5176 64.1146C52.9899 67.8147 46.5282 69.8829 39.8568 70.0916C39.4946 70.1106 39.1134 70.1106 38.7512 70.1106C31.0506 70.1106 23.5786 67.6249 17.4219 63.0141C11.2651 58.4033 6.78576 52.4833 4.65091 45.1212C4.21251 44.4761 3.58349 43.8689 2.95447 43.8689C2.78292 43.8878 2.63043 43.9258 2.47794 44.0017C2.32546 44.0776 2.21109 44.1914 2.11578 44.3243C0.914934 45.6525 2.43982 47.1515 2.63043 47.3033C2.72574 47.3981 2.80198 47.512 2.84011 47.6258C2.87823 47.7586 2.89729 47.8915 2.87823 48.0053C2.84011 48.214 2.66856 48.3658 2.38264 48.4797C2.15391 48.5556 1.96329 48.6884 1.79174 48.8781C1.63926 49.0679 1.52489 49.2766 1.48677 49.5043C1.44864 49.7889 1.48677 50.0735 1.58207 50.3392L1.75362 50.7187L1.33428 50.6617C1.25803 50.6617 1.14367 50.6617 1.04836 50.6617C0.724322 50.6428 0.400283 50.7376 0.133428 50.9463C0.0762445 51.0033 0.0381222 51.0602 0.0190611 51.1171C0 51.174 0 51.2499 0 51.3069C0.114367 52.2935 1.44864 53.2612 1.44864 53.2612C1.42958 53.3371 1.42958 53.432 1.44864 53.5079C1.46771 53.5838 1.50583 53.6787 1.54395 53.7356C1.60113 53.8115 1.65832 53.8684 1.73456 53.9064C1.81081 53.9443 1.88705 53.9823 1.98236 54.0012C2.15391 54.0582 2.34452 54.0771 2.53513 54.0771C2.61137 54.0771 2.68762 54.0771 2.76386 54.0582C2.76386 54.0582 2.99259 54.0392 3.12602 54.0202C2.45888 54.6274 2.89729 57.4925 5.7374 57.7772C5.87082 57.7961 6.00425 57.7961 6.13768 57.7772C4.82246 59.5608 7.07167 60.4715 7.07167 61.1926C7.07167 61.4962 6.70951 61.7808 6.38547 61.9705C5.94707 62.2172 5.41336 62.4069 5.41336 63.09C5.41336 63.868 5.87082 64.6269 7.66257 64.6269C8.29158 64.6269 8.97778 64.6839 8.97778 65.1393C8.97778 65.329 8.72999 65.5377 8.46313 65.7085C8.1391 65.9362 7.75787 66.1639 7.75787 66.5623C7.75787 66.6572 7.73881 67.5111 9.07309 67.9665L9.62586 68.1372L9.11121 68.3839C8.95872 68.4408 8.84436 68.5357 8.74905 68.6495C8.65375 68.7824 8.59656 68.9152 8.59656 69.067C8.5775 69.4654 8.9206 69.8449 9.64492 70.1295C10.1786 70.3193 10.7314 70.4521 11.3032 70.4901L11.3414 70.5849L11.3985 70.6608C11.4557 70.7178 11.5129 70.7747 11.5892 70.8126C11.6654 70.8506 11.7416 70.8695 11.8179 70.8885L12.0466 70.9075V71.1352C12.0466 71.287 12.0847 71.4198 12.1419 71.5526C12.1991 71.6855 12.2944 71.7993 12.4088 71.8942C12.6947 72.1978 13.0187 72.4634 13.3618 72.7101L13.9337 73.1085L13.2475 73.1465C12.161 73.2034 11.2461 73.8485 11.0936 74.6455C11.0554 74.8352 11.0554 75.025 11.0936 75.2147C11.1317 75.4044 11.2079 75.5752 11.3223 75.746C11.6463 76.1065 12.1038 76.3532 12.5803 76.3911C12.6185 76.3911 12.6756 76.3911 12.7138 76.3911C13.0187 76.3721 13.3237 76.3342 13.6287 76.2393C14.2005 76.1065 14.3911 76.1065 14.6389 76.8465C14.8486 77.4537 15.0011 77.8711 15.5729 77.8711H15.9351C15.9351 77.8711 15.2108 79.9773 16.0876 80.7552C16.2019 80.8311 16.3354 80.8691 16.4688 80.8501C16.9453 80.8501 17.5934 80.2429 18.089 79.6358C18.7752 78.8199 19.347 78.744 19.4233 78.744H19.4995L19.5567 78.7819C19.7854 78.9147 20.0332 79.0096 20.3001 79.0475C20.4335 79.0855 20.5669 79.1424 20.6813 79.2373C20.7957 79.3322 20.8719 79.465 20.91 79.5978C20.9482 79.7496 20.9482 79.9014 20.891 80.0342C20.8529 80.186 20.7576 80.2999 20.6432 80.3947C20.281 80.7742 20.0904 81.2865 20.0904 81.7988C20.0714 82.0265 20.1095 82.2542 20.1857 82.4819C20.262 82.6906 20.3763 82.8994 20.5288 83.0701C20.6813 83.2219 20.8719 83.3548 21.0816 83.4307C21.2913 83.5065 21.52 83.5445 21.7297 83.5445C21.9965 83.5635 22.2824 83.5255 22.5302 83.4117C22.778 83.2978 23.0068 83.146 23.1783 82.9373C23.5214 82.5388 23.712 82.0265 23.6739 81.4953C23.6548 81.4004 23.6548 81.2865 23.6739 81.1917C23.693 81.0968 23.7501 81.0019 23.8073 80.907C23.8455 80.8501 23.9026 80.8122 23.9789 80.7932C24.0361 80.7742 24.1123 80.7552 24.1695 80.7552C24.322 80.7552 24.4554 80.8122 24.5698 80.8881C24.8557 81.1347 25.2179 81.2865 25.58 81.3055C25.8469 81.3055 26.1137 81.1917 26.3234 81.0399C26.4949 80.926 26.6284 80.7552 26.7046 80.5465L26.819 80.205L27.0858 80.4706C27.2002 80.5845 27.3336 80.6983 27.4861 80.7552C27.6386 80.8311 27.8102 80.8501 27.9817 80.8501C28.3058 80.8501 28.6107 80.7552 28.8776 80.5845L29.2207 80.3188L29.2397 80.7552V80.8122C29.2397 80.926 29.2779 81.0399 29.3351 81.1537C29.3922 81.2486 29.4685 81.3435 29.5828 81.4194C30.0594 81.7229 30.8981 81.3435 30.8981 81.3435C30.8981 81.3435 29.621 82.0835 29.4685 82.2163C29.4304 82.2542 29.3922 82.2922 29.3732 82.3491C29.3541 82.406 29.3541 82.463 29.3541 82.5199C29.4113 82.9373 30.1547 83.0891 30.6503 83.0891C30.8218 83.0891 30.9934 83.0701 31.1459 83.0322C31.3937 82.9753 31.6224 82.8804 31.8321 82.7665C31.8321 82.7665 34.005 81.1727 35.6252 80.6035C34.4625 81.2676 33.3569 82.0076 32.2705 82.8045C32.1752 82.8804 32.0989 82.9563 32.0608 83.0701C32.0227 83.184 32.0036 83.2978 32.0227 83.4117C32.137 83.905 33.1473 83.9999 33.4332 83.9999C33.9478 83.9999 35.0153 83.7532 35.3584 83.4307C35.3774 83.4117 35.3965 83.3927 35.4156 83.3547L35.4346 83.3358C36.0255 82.6906 36.6926 82.1214 37.436 81.647L37.5504 81.5711L37.6838 81.647C38.4272 82.0645 39.9712 82.9753 40.7908 83.4496L41.0386 83.6014V83.5824L41.3054 83.7532C41.4198 83.8291 41.5723 83.8671 41.7057 83.886C41.9345 83.924 42.1632 83.924 42.411 83.924C43.8406 83.924 44.8508 83.3548 44.8699 82.8614C44.8699 82.7665 44.8508 82.6717 44.7936 82.5958C44.7364 82.5199 44.6602 82.463 44.5839 82.425L44.5649 82.406C43.8977 82.1214 41.5151 81.0019 39.8377 80.186L41.2101 80.3188L41.3245 80.3568C42.1632 80.4517 44.2027 81.6091 45.3273 82.2922L45.3655 82.3112C45.6132 82.425 45.8801 82.4819 46.147 82.4819C46.6997 82.4819 47.5956 82.2542 47.6909 81.7988C47.71 81.666 47.6909 81.5522 47.6337 81.4383C47.5765 81.3245 47.4812 81.2486 47.3478 81.1917L42.0298 79.0855L42.1441 78.6681V78.6491C45.0986 79.9014 48.1102 80.9829 51.16 81.8937L50.8932 82.1214C50.531 82.406 49.4636 83.1081 47.1763 83.4496C47.8815 83.6014 48.6249 83.6583 49.3492 83.6394C51.0457 83.6014 52.704 83.203 54.2289 82.4819C54.3242 81.685 54.4767 80.8881 54.6863 80.1101L54.7245 79.9393L56.1731 79.9014L55.8681 80.2809C55.6203 80.6224 55.4297 81.0019 55.2963 81.3814C56.4209 80.907 57.5074 80.2999 58.5176 79.6168C58.9941 79.0286 59.3372 78.3645 59.5088 77.6245C59.4707 77.5675 59.4326 77.4916 59.3754 77.4347C57.9267 77.6055 54.1145 77.8522 52.8755 77.6814C52.9327 77.6245 53.1996 77.4916 53.333 77.4157C55.5441 77.3778 57.7361 76.9793 59.8328 76.2393C60.1569 76.1065 60.5 76.0116 60.8431 75.9357C62.2917 75.5183 63.6832 74.9111 64.9793 74.1142C64.9984 74.1142 64.9984 74.0952 64.9984 74.0952C64.9984 74.0952 65.0175 74.0762 65.0175 74.0573C65.0175 74.0383 65.0175 74.0383 65.0175 74.0193C65.0175 74.0003 65.0175 74.0003 64.9984 73.9814C64.9984 73.9624 64.9793 73.9624 64.9793 73.9624C64.9793 73.9624 64.9603 73.9434 64.9412 73.9434C64.9222 73.9434 64.9222 73.9434 64.9031 73.9434C64.884 73.9434 64.884 73.9434 64.865 73.9624C62.5395 75.2906 61.0718 75.765 59.3944 76.0686C58.003 76.2203 56.2493 75.4234 56.2493 75.4234C58.3079 75.6891 61.3958 74.5126 63.7594 73.2034C65.1128 72.6531 66.3899 71.8942 67.5335 70.9644L67.5526 70.9454C67.5526 70.9265 67.5526 70.9265 67.5526 70.9075C67.5526 70.8885 67.5526 70.8885 67.5526 70.8695C67.5526 70.8506 67.5526 70.8506 67.5335 70.8316L67.5145 70.8126C67.4954 70.8126 67.4954 70.8126 67.4763 70.8126C67.4573 70.8126 67.4573 70.8126 67.4382 70.8126C67.4192 70.8126 67.4192 70.8126 67.4001 70.8316C66.5042 71.5716 65.5321 72.1978 64.4647 72.6911C63.1685 73.0706 61.8152 73.1655 60.4809 72.9567C61.9105 72.8429 63.7785 71.8942 65.2653 70.9644C66.9617 70.1106 68.5628 69.1049 70.0687 67.9475C70.0877 67.9285 70.1068 67.9095 70.1068 67.8906C70.1068 67.8716 70.1068 67.8526 70.0877 67.8336C70.0687 67.8147 70.0496 67.7957 70.0305 67.7957C70.0115 67.7957 69.9924 67.7957 69.9734 67.8147C68.7534 68.7444 67.4763 69.5793 66.123 70.3193C65.0937 70.528 64.0263 70.528 62.997 70.3193C65.1318 70.1865 66.8473 69.1049 68.4485 67.7767C69.6874 66.9798 70.8692 66.069 71.9557 65.0444L71.9748 65.0254C71.9748 65.0064 71.9748 65.0064 71.9748 64.9875C71.9748 64.9685 71.9748 64.9685 71.9748 64.9495C71.9748 64.9305 71.9557 64.9305 71.9557 64.9116L71.9366 64.8926C71.9176 64.8926 71.9176 64.8926 71.8985 64.8926C71.8795 64.8926 71.8795 64.8926 71.8604 64.8926C71.8413 64.8926 71.8413 64.9116 71.8223 64.9116C70.8692 65.8034 69.8399 66.6193 68.7725 67.3403C67.667 67.7198 66.5042 67.8336 65.3415 67.7198C67.3429 67.53 68.8487 66.3157 69.9734 65.1962C71.0026 64.3803 71.9748 63.4695 72.8706 62.5018C72.8897 62.4828 72.8897 62.4639 72.8897 62.4449C72.8897 62.4259 72.8706 62.4069 72.8706 62.388C72.8516 62.369 72.8325 62.369 72.8135 62.369C72.7944 62.369 72.7753 62.369 72.7563 62.388C72.0891 63.109 71.3648 63.811 70.6214 64.4562C70.0115 64.7977 69.3253 64.9685 68.62 64.9495C69.5731 64.6459 71.0408 63.2987 71.9938 62.0464C73.309 60.6803 74.4908 59.2002 75.5011 57.5874C75.5011 57.5684 75.5201 57.5684 75.5201 57.5495C75.5201 57.5305 75.5201 57.5305 75.5201 57.5115C75.5201 57.4925 75.5201 57.4925 75.5011 57.4736C75.5011 57.4546 75.482 57.4546 75.482 57.4546C75.463 57.4546 75.4629 57.4356 75.4439 57.4356C75.4248 57.4356 75.4248 57.4356 75.4058 57.4356C75.3867 57.4356 75.3867 57.4356 75.3676 57.4546C75.3486 57.4546 75.3486 57.4736 75.3486 57.4736C74.3955 58.9726 73.29 60.3767 72.0891 61.6669C71.5935 61.7808 71.0789 61.8567 70.5642 61.8756C71.4792 61.4772 72.0129 60.3577 73.0803 58.8587C74.1096 57.7202 75.0055 56.4679 75.7489 55.1397C75.7679 55.1207 75.7679 55.1018 75.7489 55.0828C75.7489 55.0638 75.7298 55.0448 75.7107 55.0259C75.6917 55.0069 75.6726 55.0069 75.6536 55.0259C75.6345 55.0259 75.6154 55.0448 75.5964 55.0638C75.0055 56.1264 74.3193 57.132 73.5378 58.0618C73.2137 58.4033 72.7753 58.612 72.3179 58.6879C73.0803 57.8341 73.7093 56.8854 74.2049 55.8607C74.9483 54.8551 75.5773 53.7546 76.0538 52.5971C76.0538 52.5782 76.0538 52.5782 76.0538 52.5592C76.0538 52.5402 76.0538 52.5402 76.0538 52.5212C76.0538 52.5023 76.0348 52.5023 76.0348 52.4833C76.0348 52.4833 76.0157 52.4643 75.9967 52.4643C75.9776 52.4643 75.9776 52.4643 75.9585 52.4643C75.9395 52.4643 75.9395 52.4643 75.9204 52.4643C75.9014 52.4643 75.9014 52.4833 75.8823 52.4833L75.8632 52.5023C75.3867 53.6977 74.7577 54.7982 73.9762 55.8228C73.6903 56.0884 73.3662 56.2782 73.0041 56.411C74.0906 55.3674 74.4718 53.9253 74.8339 52.6541C75.5583 51.4966 76.092 50.2253 76.5304 48.9351Z" fill="black"/>
<path d="M8.78717 56.2024C9.6068 56.8286 9.64492 57.1891 9.47337 57.5116C9.30182 57.8342 8.95872 58.6501 9.7021 59.0106C10.3121 59.3142 10.903 58.1378 11.0745 57.3978C10.3692 56.506 9.7021 55.5952 9.07309 54.6465C8.9206 54.7034 8.78717 54.7793 8.6728 54.9121C8.55844 55.0449 8.50125 55.1778 8.46313 55.3296C8.42501 55.4814 8.44407 55.6521 8.50125 55.8039C8.55844 55.9747 8.65374 56.1075 8.78717 56.2024Z" fill="#005844"/>
<path d="M15.3823 63.2419C15.4586 63.4506 15.5539 63.5645 15.592 63.5645C15.6873 63.2419 15.6873 62.9003 15.592 62.5778C15.4967 62.2552 15.3061 61.9706 15.0583 61.7429C14.9248 61.6291 14.7533 61.5721 14.5627 61.5342C14.3911 61.5152 14.2005 61.5342 14.048 61.6101C14.8486 61.9327 15.2298 62.8814 15.3823 63.2419Z" fill="#005844"/>
<path d="M34.2719 77.8714C34.1384 76.3155 32.4992 77.8335 32.4992 77.8335C33.1282 78.4217 33.7763 78.953 34.4815 79.4653C34.634 79.3894 34.615 79.3894 34.7674 79.3135L34.6531 79.1048C34.4434 78.7253 34.31 78.3078 34.2719 77.8714Z" fill="#005844"/>
<path d="M28.5345 78.896C27.9055 78.896 27.3146 78.4406 26.8952 78.0801C26.8952 78.0801 26.5331 77.7195 26.2472 77.9472C26.0375 78.118 26.1709 78.5924 26.3234 78.858C26.514 79.1237 26.6474 79.4083 26.7618 79.6929C26.9905 80.0344 27.5433 80.5278 27.9436 80.4519C28.6489 80.338 29.1063 79.9775 28.9157 78.7631C28.8204 78.858 28.687 78.896 28.5345 78.896Z" fill="#005844"/>
<path d="M7.28133 53.6979C6.59513 51.8004 5.64208 50.9655 4.57465 50.0168L4.42217 49.884C4.4031 49.865 4.4031 49.846 4.38404 49.8271C4.38404 49.8081 4.38404 49.7891 4.4031 49.7701C4.42217 49.7512 4.44123 49.7512 4.46029 49.7322C4.47935 49.7322 4.49841 49.7322 4.51747 49.7512L4.66996 49.884C5.56583 50.586 6.30922 51.4399 6.88105 52.4076C6.09954 50.3014 5.05118 48.2901 3.77409 46.4496C3.75503 46.4306 3.75503 46.4117 3.75503 46.3927C3.75503 46.3737 3.77409 46.3547 3.79315 46.3358C3.81221 46.3168 3.83127 46.3168 3.85033 46.3168C3.86939 46.3168 3.88845 46.3358 3.90752 46.3547C5.39428 48.6317 6.59513 50.624 7.47194 53.7548C8.19627 54.7984 7.58631 52.2558 7.58631 52.2558V52.2368C6.53795 50.3394 5.6802 48.3471 4.994 46.2788L4.97494 46.2599C4.59372 45.1973 3.16413 43.2809 2.28732 44.4573C1.69643 45.2352 1.67736 45.8424 2.99258 47.3414C3.08789 47.4363 3.14507 47.5691 3.18319 47.6829C3.22132 47.8158 3.22132 47.9486 3.20225 48.0814C3.18319 48.2142 3.12601 48.3281 3.04977 48.4419C2.97352 48.5558 2.85915 48.6317 2.74479 48.6886C1.37239 49.2958 1.69643 50.1117 2.28732 50.5291C2.6876 50.8137 4.3078 51.9143 4.23155 52.8061C4.15531 53.7168 3.10695 53.8307 3.14507 54.9691C3.16413 55.6902 3.88845 57.4169 5.64208 57.4358C7.01448 57.4358 7.92941 55.6902 7.28133 53.6979Z" fill="#005844"/>
<path d="M12.18 58.7451C11.7988 58.6881 11.0364 58.764 10.7886 59.0297C10.4074 59.4281 9.45431 59.9594 8.97778 58.8969C8.42501 57.6825 7.92942 57.0374 6.72857 57.7204C5.52772 58.4035 6.13767 59.6748 6.72857 60.2061C7.31946 60.7753 8.10097 61.4015 7.07167 61.9897C6.23298 62.4641 5.68021 62.521 5.68021 63.1661C5.68021 63.6405 5.88988 64.3236 7.83411 64.3236C8.59656 64.3236 9.51149 64.4374 9.47337 65.1774C9.41619 66.1261 8.08191 65.9933 8.08191 66.5815C8.06285 67.2077 8.72998 67.8149 10.3502 67.9287C10.9411 67.9667 11.532 67.7959 12.0276 67.4543C11.9894 67.3405 11.9704 67.2266 11.9704 67.0938C11.9894 66.6005 12.3707 66.2589 12.79 65.9364C12.9425 65.8225 12.9616 65.7466 12.9616 65.7466C12.9616 65.7087 12.9234 65.5189 12.2944 65.0066C12.0276 64.7979 11.8179 64.5512 11.6654 64.2477C11.2461 63.8871 10.8267 63.4887 10.4074 63.0523C10.1405 63.0902 9.87365 63.1092 9.6068 63.1092C8.90154 63.0902 8.17721 63.0143 7.49101 62.8625C7.47195 62.8625 7.45289 62.8435 7.43383 62.8246C7.41477 62.8056 7.41477 62.7866 7.41477 62.7676C7.41477 62.7487 7.43383 62.7297 7.45289 62.7107C7.47195 62.6917 7.49101 62.6917 7.51007 62.6917C8.40595 62.9005 9.33994 62.9764 10.2549 62.9005C9.05402 61.6102 7.9866 60.2251 7.07167 58.7261C7.05261 58.7071 7.05261 58.6881 7.05261 58.6692C7.05261 58.6502 7.07167 58.6312 7.09073 58.6122C7.10979 58.5933 7.12885 58.5933 7.14791 58.5933C7.16697 58.5933 7.18603 58.6122 7.2051 58.6312C8.12003 60.0922 9.16839 61.4584 10.3311 62.7297C10.2739 61.781 10.293 60.8133 10.4264 59.8646C10.4264 59.8456 10.4264 59.8456 10.4455 59.8266C10.4455 59.8076 10.4645 59.8076 10.4645 59.8076C10.4645 59.8076 10.4836 59.7887 10.5027 59.7887C10.5217 59.7887 10.5217 59.7887 10.5408 59.7887C10.5599 59.7887 10.5599 59.7887 10.5789 59.8076C10.598 59.8076 10.598 59.8266 10.598 59.8266C10.598 59.8266 10.617 59.8456 10.617 59.8646C10.617 59.8835 10.617 59.8835 10.617 59.9025C10.4836 60.9081 10.4645 61.9328 10.5408 62.9384C10.8648 63.28 11.2079 63.6025 11.532 63.9061C11.4176 63.5076 11.4176 63.0902 11.5892 62.7107C11.7416 62.3312 12.0276 62.0087 12.3897 61.8189C12.7328 61.6102 13.114 61.4964 13.4953 61.4774C13.5906 61.4774 13.6668 61.4774 13.7621 61.4964C13.7621 61.0599 13.724 60.6046 13.6096 60.1871C13.0759 59.7128 12.6375 59.2384 12.18 58.7451Z" fill="#005844"/>
<path d="M15.0392 63.261C14.677 62.3882 13.8193 61.2307 12.485 62.1036C11.532 62.7297 11.4938 63.9631 12.485 64.76C13.3237 65.4241 13.5524 65.7277 12.8853 66.24C12.2182 66.7523 11.9894 67.2457 12.8091 67.9477C13.6287 68.6498 14.1624 69.1431 13.8193 69.6364C13.2284 70.4523 11.6082 70.8318 12.5803 71.7616C12.9615 72.1601 13.4 72.5016 13.8765 72.7672C13.8765 72.7103 13.8765 72.6724 13.8765 72.5965C13.8574 72.4067 13.8765 72.198 13.9337 72.0272C13.9908 71.8375 14.0862 71.6667 14.2196 71.5149C14.3149 71.42 14.4293 71.3441 14.5436 71.2872C14.677 71.2303 14.8105 71.2113 14.9439 71.2113C15.1536 71.2113 15.3632 71.2682 15.5539 71.3821C15.7826 71.5339 16.0494 71.6288 16.3354 71.6288C16.545 71.6288 16.7356 71.5718 16.9072 71.477C17.0597 71.3821 17.155 71.2303 17.2122 71.0595C16.4688 70.9077 15.7445 70.6611 15.0773 70.3005C15.0583 70.3005 15.0583 70.2816 15.0392 70.2816C15.0392 70.2816 15.0201 70.2626 15.0201 70.2436C15.0201 70.2247 15.0201 70.2247 15.0201 70.2057C15.0201 70.1867 15.0201 70.1867 15.0201 70.1677C15.0201 70.1488 15.0392 70.1488 15.0392 70.1488C15.0392 70.1488 15.0583 70.1298 15.0773 70.1298C15.0964 70.1298 15.0964 70.1298 15.1155 70.1298C15.1345 70.1298 15.1345 70.1298 15.1536 70.1488C15.8017 70.4903 16.5069 70.737 17.2122 70.8888C17.2312 70.8888 17.2312 70.8888 17.2503 70.9077V70.8888C17.2884 70.6421 17.3456 70.3764 17.4409 70.1488C17.4409 70.1488 17.4218 70.1488 17.4218 70.1298C17.0597 69.257 16.6213 68.4031 16.1257 67.5872C15.6492 67.3975 15.1536 67.2646 14.658 67.2077C14.2196 67.1318 13.724 67.0369 13.2475 66.9231C13.2284 66.9231 13.2284 66.9231 13.2093 66.9041C13.1903 66.9041 13.1903 66.8851 13.1903 66.8851C13.1903 66.8662 13.1712 66.8662 13.1712 66.8472C13.1712 66.8282 13.1712 66.8282 13.1712 66.8092C13.1712 66.7903 13.1712 66.7903 13.1903 66.7713L13.2093 66.7523C13.2284 66.7523 13.2284 66.7523 13.2475 66.7334C13.2665 66.7334 13.2665 66.7334 13.2856 66.7334C13.7621 66.8472 14.2577 66.9421 14.6961 67.018C15.1345 67.0749 15.5539 67.1698 15.9732 67.3026C15.0583 65.8795 14.048 64.4944 12.9615 63.2041C12.9615 63.2041 12.9425 63.1851 12.9425 63.1661C12.9425 63.1472 12.9425 63.1472 12.9425 63.1282C12.9425 63.1092 12.9425 63.1092 12.9615 63.0902C12.9615 63.0713 12.9806 63.0713 12.9806 63.0713C12.9806 63.0713 12.9997 63.0523 13.0187 63.0523C13.0378 63.0523 13.0378 63.0523 13.0569 63.0523C13.0759 63.0523 13.0759 63.0523 13.095 63.0713C13.114 63.0713 13.114 63.0902 13.114 63.0902C14.2196 64.3995 15.2298 65.7657 16.1448 67.2077C16.1638 65.9364 16.3163 64.779 16.526 64.3805C16.545 64.3615 16.5641 64.3426 16.5832 64.3426C16.6022 64.3426 16.6213 64.3426 16.6403 64.3426C16.6594 64.3615 16.6785 64.3805 16.6785 64.3995C16.6785 64.4185 16.6785 64.4374 16.6785 64.4564C16.5069 64.798 16.3163 65.9554 16.3163 67.4734C16.7928 68.2513 17.1931 69.0672 17.5553 69.9021C17.7078 69.6554 17.8984 69.4467 18.1462 69.2949C18.2796 69.2 18.4321 69.1431 18.5846 69.1052V67.739C18.5846 67.72 18.5846 67.701 18.6036 67.6821C18.6227 67.6631 18.6418 67.6631 18.6608 67.6631C18.6799 67.6631 18.6989 67.6631 18.718 67.6821C18.7371 67.701 18.7371 67.72 18.7371 67.739V69.0862C18.7752 69.0862 18.7942 69.0862 18.8324 69.0862C19.7854 69.0862 20.9672 70.0349 21.6725 70.9267C21.8631 70.8888 22.0346 70.8698 22.2252 70.8698C22.7208 70.8698 22.8352 70.8129 22.9114 70.6041C23.0068 70.3195 22.9114 70.2057 21.844 69.7123C21.7106 69.6554 21.5581 69.5795 21.4056 69.5036C21.1578 69.4087 20.9482 69.257 20.7766 69.0672C20.6051 68.8775 20.4716 68.6498 20.4144 68.3841C20.3763 68.1375 20.3763 67.8718 20.4335 67.6251C20.4907 67.3785 20.6051 67.1508 20.7385 66.9421C20.4335 66.259 19.957 65.7467 18.9277 65.9364C18.4511 66.0313 17.8221 66.2021 17.6125 65.1774C17.4028 64.1338 17.0787 63.1851 16.3163 63.6405C15.7826 64.0579 15.3823 64.1338 15.0392 63.261Z" fill="#005844"/>
<path d="M30.7837 72.6155C30.9362 71.7806 30.6884 69.6365 28.9538 70.2816C27.5814 70.7939 27.3717 70.699 27.2764 69.8072C27.1811 68.9154 26.1328 68.46 25.256 68.479C24.3982 68.498 24.4173 68.7067 24.0932 68.1944C23.7692 67.6821 21.7678 66.6575 21.7678 66.6575C21.539 66.6954 21.3294 66.8093 21.1578 66.98C20.6813 67.5872 20.3001 68.6877 21.4247 69.219C22.5683 69.7503 23.4452 69.7693 23.2164 70.6421C22.9305 71.7047 21.7297 70.8508 21.4437 71.6478C21.2722 72.1411 21.9965 73.4883 23.2545 73.0329C24.3601 72.6344 25.885 72.5396 25.9612 73.4124C26.0756 74.7975 23.3308 74.6837 24.7222 76.2965C25.3894 77.0555 26.9143 76.9037 27.9817 76.7519C28.4773 76.638 28.9157 76.3534 29.2016 75.936C29.1254 75.5565 29.0301 75.177 28.8966 74.8165C27.8483 74.4939 27.2002 74.456 26.6474 74.7027C26.6284 74.7027 26.6093 74.7027 26.5902 74.7027C26.5712 74.7027 26.5521 74.6837 26.5331 74.6647C26.5331 74.6457 26.514 74.6268 26.5331 74.5888C26.5331 74.5698 26.5521 74.5509 26.5712 74.5319C27.2383 74.2473 27.9436 74.3421 28.8013 74.5888C28.1914 73.1088 27.1239 72.236 26.0184 71.458C25.3513 71.5908 24.6841 71.6667 23.9979 71.6857C23.8836 71.6857 23.7692 71.6857 23.6548 71.6667C23.6358 71.6667 23.6358 71.6667 23.6167 71.6667C23.5976 71.6667 23.5976 71.6478 23.5976 71.6478C23.5976 71.6478 23.5786 71.6288 23.5786 71.6098C23.5786 71.5908 23.5786 71.5908 23.5786 71.5719C23.5786 71.5529 23.5976 71.5339 23.6167 71.5149C23.6358 71.496 23.6548 71.496 23.6739 71.496C24.3982 71.5149 25.1035 71.458 25.8087 71.3252L25.58 71.1544C24.3601 70.3195 23.1021 69.4467 22.454 67.8339C22.454 67.8149 22.454 67.7959 22.454 67.758C22.454 67.739 22.473 67.72 22.5112 67.72C22.5302 67.72 22.5493 67.72 22.5874 67.72C22.6065 67.72 22.6255 67.739 22.6255 67.777C23.2545 69.3329 24.4363 70.1488 25.6944 71.0216C25.8087 71.0975 25.9231 71.1734 26.0375 71.2493C26.0375 70.5472 25.885 69.8452 25.6181 69.2001C25.6181 69.1811 25.6181 69.1811 25.5991 69.1621C25.5991 69.1431 25.5991 69.1431 25.5991 69.1242C25.5991 69.1052 25.5991 69.1052 25.6181 69.0862L25.6372 69.0672C25.6562 69.0672 25.6562 69.0672 25.6753 69.0483C25.6944 69.0483 25.6944 69.0483 25.7134 69.0483C25.7325 69.0483 25.7325 69.0483 25.7515 69.0672L25.7706 69.0862C26.0756 69.7883 26.2281 70.5662 26.209 71.3252V71.3442C27.2383 72.0652 28.2295 72.8811 28.8585 74.2093C28.8394 74.0006 28.8013 73.735 28.7632 73.4693C28.6488 72.8432 28.5917 72.217 28.5726 71.5719C28.5726 71.5529 28.5726 71.5529 28.5726 71.5339C28.5726 71.5149 28.5917 71.5149 28.5917 71.5149L28.6107 71.496C28.6298 71.496 28.6298 71.496 28.6488 71.496C28.6679 71.496 28.6679 71.496 28.687 71.496C28.706 71.496 28.706 71.5149 28.706 71.5149L28.7251 71.5339C28.7251 71.5529 28.7251 71.5529 28.7251 71.5719C28.7441 72.198 28.8204 72.8242 28.9157 73.4503C28.9919 73.8488 29.0301 74.2662 29.0491 74.6837C29.1825 75.0252 29.2779 75.3668 29.3541 75.7083C29.4113 75.6134 29.4685 75.5186 29.5066 75.4047C29.7544 74.8355 30.0403 74.2093 30.2881 73.697C30.5549 73.3744 30.6884 72.9949 30.7837 72.6155Z" fill="#005844"/>
<path d="M28.6679 76.9226C28.0389 77.1503 27.3527 77.2452 26.6855 77.2262C25.7706 77.2262 25.1035 77.0175 24.6269 76.5621C24.6079 76.5431 24.5698 76.5052 24.5507 76.4862C24.341 76.6949 24.1314 76.9226 23.9598 77.1693C23.9407 78.0421 24.1504 78.896 24.5698 79.655C24.5888 79.6739 24.5888 79.6929 24.5888 79.7119C24.5888 79.7309 24.5698 79.7498 24.5507 79.7688C24.5316 79.7878 24.5126 79.7878 24.4935 79.7878C24.4745 79.7878 24.4554 79.7688 24.4363 79.7498C24.017 79.0288 23.8073 78.2129 23.8073 77.397C22.8924 78.8011 22.3396 80.395 22.2062 82.0457C22.2062 82.0647 22.1871 82.0837 22.1871 82.1027C22.1681 82.1216 22.149 82.1216 22.1299 82.1216C22.1109 82.1216 22.0918 82.1027 22.0728 82.0837C22.0537 82.0647 22.0537 82.0457 22.0537 82.0268C22.1871 80.4139 22.7208 78.858 23.5786 77.4729C23.1402 77.7765 22.3968 78.3078 21.9584 78.6873C21.9393 78.7062 21.9203 78.7062 21.9012 78.7062C21.8821 78.7062 21.8631 78.6873 21.844 78.6683C21.825 78.6493 21.825 78.6303 21.825 78.6114C21.825 78.5924 21.825 78.5734 21.844 78.5544C22.5112 77.9852 23.7882 77.1124 23.8645 77.0555C24.0551 76.8088 24.2648 76.5621 24.4935 76.3344C24.3791 76.2206 24.2838 76.0688 24.2267 75.917C24.1695 75.7652 24.1314 75.5944 24.1504 75.4236C24.2076 74.8924 24.6651 74.5698 25.0844 74.3042C25.2178 74.2093 25.3322 74.1334 25.4466 74.0575C25.3131 73.9057 25.2178 73.7918 25.1416 73.7159C24.951 73.5452 24.7222 73.4124 24.4935 73.3175C24.2457 73.2416 23.9979 73.2036 23.7311 73.2226C23.6739 73.2416 23.6358 73.2416 23.5786 73.2606C23.407 73.3175 23.2164 73.3744 23.0258 73.3744C22.473 73.659 22.6827 74.2472 23.083 74.4749C23.1974 74.5318 23.3117 74.6267 23.3689 74.7406C23.4452 74.8544 23.4833 74.9872 23.4833 75.1201C23.4833 75.2529 23.4451 75.3857 23.388 75.4995C23.3308 75.6134 23.2164 75.7083 23.102 75.7842C22.4349 76.2206 21.6725 76.4862 20.8719 76.5621C19.7854 76.7519 19.3279 77.1883 19.2898 77.7196C19.2136 78.896 20.6622 78.4596 21.0625 78.896C21.1769 79.0288 21.2531 79.1616 21.3103 79.3324C21.3675 79.4842 21.3865 79.655 21.3675 79.8257C21.3484 79.9965 21.3103 80.1483 21.215 80.3001C21.1388 80.4519 21.0244 80.5657 20.891 80.6796C20.7385 80.8124 20.605 80.9832 20.5288 81.1919C20.4526 81.3816 20.3954 81.5904 20.4144 81.7991C20.4144 82.0078 20.4716 82.2165 20.5669 82.4063C20.6622 82.596 20.7957 82.7668 20.9481 82.8996C21.6534 83.4688 22.9686 83.1463 23.1783 82.1786C23.3689 81.2298 23.1021 80.6416 23.8073 80.395C24.5126 80.1483 25.275 81.3437 26.2471 80.7175C27.2193 80.0914 25.9231 79.1426 25.885 78.3078C25.8469 77.4729 26.6474 77.2831 27.143 77.7196C27.6386 78.156 28.382 78.858 28.9538 78.3647C29.335 78.0232 29.2397 77.378 28.6679 76.9226Z" fill="#005844"/>
<path d="M40.1808 79.4842C40.8098 78.7252 40.7526 77.3591 39.2659 76.638C37.9316 75.9929 40.4667 75.0821 39.5708 74.1334C38.675 73.1657 38.1413 73.6401 36.5782 73.5452C35.0152 73.4503 36.1017 72.2359 35.1868 71.1354C34.7484 70.6041 34.0812 70.6421 33.3569 71.0026C32.5373 71.5149 30.9743 73.2985 30.1737 74.9303C30.6121 74.8354 31.0315 74.7596 31.4127 74.6837C32.5373 74.1524 33.5666 73.4313 34.4625 72.5775C34.4815 72.5585 34.5006 72.5585 34.5197 72.5395C34.5387 72.5395 34.5578 72.5395 34.5768 72.5585C34.5959 72.5775 34.5959 72.5965 34.5959 72.6154C34.5959 72.6344 34.5959 72.6534 34.5768 72.6724C33.8144 73.4313 32.9376 74.0575 31.9845 74.5698C33.2807 74.3611 34.2337 74.3611 35.1487 74.7216C35.892 74.9303 37.9316 75.2149 38.7322 74.8734C38.7512 74.8734 38.7703 74.8544 38.8084 74.8734C38.8275 74.8734 38.8465 74.8924 38.8656 74.9113C38.8656 74.9303 38.8656 74.9493 38.8656 74.9872C38.8656 75.0062 38.8465 75.0252 38.8275 75.0442C38.1413 75.3288 36.7117 75.196 35.7967 75.0442C36.6926 75.5944 37.6266 76.5621 38.8656 78.0991C38.8846 78.118 38.8846 78.137 38.8846 78.156C38.8846 78.175 38.8656 78.1939 38.8465 78.2129C38.8275 78.2319 38.8084 78.2319 38.7893 78.2319C38.7703 78.2319 38.7512 78.2129 38.7322 78.1939C37.5122 76.657 36.5973 75.7273 35.7014 75.177C36.3876 75.879 36.3686 76.4293 36.3305 77.1314C36.3305 77.1503 36.3114 77.1693 36.3114 77.1883C36.2923 77.2073 36.2733 77.2073 36.2542 77.2073C36.2351 77.2073 36.2161 77.1883 36.197 77.1693C36.178 77.1503 36.178 77.1314 36.178 77.1124C36.2161 76.2775 36.2351 75.7462 35.1105 74.8734C34.1575 74.4939 33.1663 74.5319 31.7558 74.7785C32.2133 75.0062 32.5754 75.3478 32.8423 75.7652C32.8423 75.7842 32.8613 75.7842 32.8613 75.8031C32.8613 75.8221 32.8613 75.8221 32.8613 75.8411C32.8613 75.8601 32.8613 75.8601 32.8423 75.879L32.8232 75.898C32.8041 75.898 32.8041 75.917 32.7851 75.917C32.766 75.917 32.766 75.917 32.747 75.917C32.7279 75.917 32.7279 75.917 32.7088 75.898L32.6898 75.879C32.4039 75.4237 31.9655 75.0631 31.4508 74.8544C31.0315 74.9303 30.5931 75.0252 30.1165 75.139C29.9069 75.5755 29.7734 76.0308 29.7162 76.5052C29.7353 76.7139 29.8116 76.9226 29.9069 77.1124C30.0212 77.3021 30.1547 77.4729 30.3262 77.5867C32.0798 78.915 32.2323 77.0555 33.7191 76.8847C34.9199 76.7519 34.4243 77.9473 34.9962 78.9529C35.568 79.9396 36.2542 79.1427 36.6926 78.8201C37.131 78.4975 37.3979 78.2698 37.8553 79.1806C37.9697 79.3893 38.1222 79.5601 38.3128 79.7119C38.5034 79.8447 38.7322 79.9396 38.9609 79.9586C39.1896 79.9965 39.4374 79.9586 39.6662 79.8827C39.8186 79.7878 40.0283 79.655 40.1808 79.4842Z" fill="#005844"/>
<path d="M20.9672 76.2396C21.9774 76.0688 22.8543 75.7463 22.8543 75.177C22.8543 74.7976 22.2062 74.5888 22.3777 73.8488C22.3777 73.697 22.3587 73.5642 22.3015 73.4124C22.2824 73.4124 22.2634 73.4314 22.2443 73.4124C21.6915 73.2986 21.1197 73.2227 20.5479 73.2037C19.8807 73.6781 19.3089 74.2663 18.8133 74.9114C18.8133 74.9304 18.7942 74.9304 18.7752 74.9304C18.7561 74.9304 18.7561 74.9304 18.7371 74.9304C18.718 74.9304 18.6989 74.9304 18.6799 74.9114L18.6608 74.8924C18.6608 74.8924 18.6418 74.8735 18.6418 74.8545C18.6418 74.8355 18.6418 74.8355 18.6418 74.8165C18.6418 74.7976 18.6417 74.7976 18.6608 74.7786C19.1183 74.1714 19.652 73.6401 20.2429 73.1658C19.2708 73.2037 18.3177 73.3934 17.4028 73.754C17.0406 74.475 16.5641 75.1391 16.0113 75.7273C16.0113 75.7273 15.9923 75.7463 15.9732 75.7463C15.9541 75.7463 15.9541 75.7463 15.9351 75.7463C15.916 75.7463 15.916 75.7463 15.8969 75.7273C15.8779 75.7273 15.8779 75.7083 15.8779 75.7083C15.8779 75.7083 15.8588 75.6894 15.8588 75.6704C15.8588 75.6514 15.8588 75.6514 15.8588 75.6324C15.8588 75.6135 15.8588 75.6135 15.8779 75.5945C15.8779 75.5755 15.8969 75.5755 15.8969 75.5755C16.3925 75.0442 16.8309 74.456 17.174 73.8109C16.2782 74.1524 15.3251 74.3422 14.3721 74.3611C14.1052 74.3611 13.8574 74.3422 13.5906 74.3232C13.5715 74.3232 13.5524 74.3042 13.5334 74.2852C13.5143 74.2663 13.5143 74.2473 13.5143 74.2283C13.5143 74.2094 13.5334 74.1904 13.5524 74.1714C13.5715 74.1524 13.5906 74.1524 13.6096 74.1524C14.6961 74.2663 15.8016 74.1335 16.8119 73.754C16.5069 73.6401 16.2019 73.4883 15.9351 73.3175C15.6682 73.1658 15.3823 73.014 15.0964 72.8811C15.0773 72.8811 15.0773 72.8622 15.0773 72.8622L15.0583 72.8432C15.0583 72.8242 15.0583 72.8242 15.0583 72.8052C15.0583 72.7863 15.0583 72.7863 15.0583 72.7673C15.0583 72.7483 15.0773 72.7293 15.0964 72.7293C15.1154 72.7293 15.1345 72.7293 15.1536 72.7293C15.4585 72.8622 15.7445 73.014 16.0113 73.1658C16.3544 73.4124 16.7356 73.5642 17.155 73.6401L17.2693 73.6022C18.2033 73.2416 19.1945 73.0329 20.2048 72.995C19.5567 72.5965 18.3749 71.8565 18.3749 71.8565C18.3558 71.8375 18.3368 71.8186 18.3368 71.7996C18.3368 71.7806 18.3368 71.7616 18.3558 71.7427C18.3749 71.7237 18.394 71.7047 18.413 71.7047C18.4321 71.7047 18.4511 71.7047 18.4702 71.7237C18.4893 71.7427 20.0332 72.7293 20.5479 73.014C21.0435 73.0329 21.52 73.0899 21.9965 73.1658C21.7868 73.0519 21.5962 72.8622 21.4628 72.6724C21.3294 72.5016 21.2341 72.2929 21.1769 72.0842C21.1388 71.8755 21.1388 71.6478 21.1769 71.4201C21.2531 71.3063 21.3294 71.1924 21.4247 71.0975C20.6432 70.1298 19.0992 69.0862 18.394 69.5796C17.2693 70.3575 17.8412 71.2873 17.0978 71.6857C16.8309 71.8375 16.545 71.9134 16.24 71.8945C15.9351 71.8755 15.6492 71.7806 15.4014 71.6098C15.2679 71.5339 15.1154 71.496 14.963 71.496C14.8105 71.496 14.658 71.5529 14.5436 71.6288C14.4102 71.7047 14.3149 71.8375 14.2577 71.9704C14.2005 72.1032 14.1624 72.255 14.1814 72.4068C14.2005 73.2986 14.353 73.2986 13.5906 73.3745C12.8853 73.4504 11.5129 73.5452 11.3032 74.6458C11.0935 75.7463 12.1991 76.0878 12.5803 76.1068C13.4952 76.1637 14.3721 75.4427 14.677 76.2396C14.982 77.0176 15.0011 77.6248 15.5729 77.6058C16.7738 77.5678 16.9072 76.2396 17.8031 76.1827C18.2033 76.1637 18.8324 76.6191 19.1564 77.0176C19.4233 76.676 19.976 76.4104 20.9672 76.2396Z" fill="#005844"/>
<path d="M46.3566 81.059C44.4315 80.4139 41.9535 79.3513 41.9535 79.3513C41.7438 79.579 41.477 79.7498 41.1911 79.8257C42.4491 80.4329 44.8889 81.5334 44.8889 81.5334C45.1558 81.1349 46.0135 81.0021 46.3566 81.059Z" fill="#005844"/>
<path d="M44.2218 82.577C41.9535 82.3493 40.6764 83.5257 41.801 83.6586C44.0311 83.9432 45.5179 82.6909 44.2218 82.577Z" fill="#005844"/>
<path d="M47.1572 81.4576C46.1279 81.0781 44.8889 81.7802 45.537 82.1217C46.4138 82.5771 48.1865 81.8561 47.1572 81.4576Z" fill="#005844"/>
<path d="M43.4593 82.1786C42.6397 81.8181 41.0195 81.116 39.5137 80.395C38.9609 80.6796 38.4463 81.0022 37.9507 81.3627C39.2468 82.0458 40.5049 82.7668 40.9623 83.0325C41.2864 82.7099 41.6867 82.4632 42.106 82.3114C42.5444 82.1596 43.0019 82.1217 43.4593 82.1786Z" fill="#005844"/>
<path d="M38.7512 0C31.7368 0 24.8748 2.06822 19.0421 5.95798C13.2093 9.84775 8.65374 15.3503 5.96612 21.8017C3.27851 28.253 2.57325 35.3494 3.94565 42.2182C5.31805 49.068 8.69186 55.3675 13.6478 60.3009C18.6036 65.2342 24.9319 68.6117 31.813 69.9589C38.6941 71.3251 45.8229 70.623 52.3037 67.9476C58.7845 65.2722 64.3313 60.7373 68.2197 54.9311C72.1273 49.1249 74.2049 42.2941 74.2049 35.3115C74.2049 30.6817 73.29 26.0709 71.4982 21.8017C69.7065 17.5134 67.0951 13.6237 63.8166 10.3411C60.519 7.0585 56.6115 4.459 52.3037 2.6754C48.0149 0.910775 43.4022 0 38.7512 0Z" fill="#AA8A00"/>
<path d="M71.7096 35.392C71.7507 17.2838 57.0459 2.57097 38.8655 2.53005C20.6851 2.48913 5.9136 17.1356 5.87248 35.2439C5.83135 53.3521 20.5361 68.0649 38.7165 68.1058C56.897 68.1467 71.6684 53.5003 71.7096 35.392Z" fill="#00B5E2"/>
<path d="M38.7894 63.0901C54.1906 63.0901 66.6758 50.6617 66.6758 35.3305C66.6758 19.9992 54.1906 7.5708 38.7894 7.5708C23.3881 7.5708 10.903 19.9992 10.903 35.3305C10.903 50.6617 23.3881 63.0901 38.7894 63.0901Z" fill="#EF3340"/>
<path d="M61.6267 35.4643C61.7079 22.9101 51.55 12.6673 38.9385 12.5865C26.327 12.5057 16.0375 22.6174 15.9563 35.1717C15.8751 47.7259 26.033 57.9686 38.6445 58.0494C51.2561 58.1302 61.5456 48.0185 61.6267 35.4643Z" fill="#509E2F"/>
<path d="M38.1794 71.287C38.6178 71.7234 38.9228 72.2737 39.0371 72.8998C39.6661 72.5203 40.5811 71.5147 40.2761 71.0593C40.0664 70.6988 38.9609 70.7747 38.1794 71.287Z" fill="#AA8A00"/>
<path d="M37.131 71.894C37.0929 71.894 37.0548 71.913 37.0167 71.932C36.9785 71.951 36.9595 71.9889 36.9404 72.0269C36.9214 72.0648 36.9214 72.1028 36.9214 72.1597C36.9214 72.1976 36.9595 72.2356 36.9785 72.2735C37.0167 72.3115 37.0548 72.3305 37.0929 72.3305C37.131 72.3305 37.1882 72.3305 37.2263 72.3115C37.2645 72.2925 37.3026 72.2735 37.3216 72.2356C37.3407 72.1976 37.3598 72.1597 37.3598 72.1217C37.3598 72.0648 37.3407 72.0079 37.3026 71.9699C37.2263 71.932 37.1882 71.894 37.131 71.894Z" fill="#AA8A00"/>
<path d="M37.9316 71.4577C37.9316 71.4198 37.9125 71.3818 37.8935 71.3439C37.8744 71.3059 37.8363 71.287 37.7982 71.268C37.7601 71.249 37.7219 71.249 37.6647 71.249C37.6266 71.249 37.5885 71.287 37.5504 71.3059C37.5123 71.3439 37.4932 71.3818 37.4932 71.4198C37.4932 71.4577 37.4932 71.5147 37.5123 71.5526C37.5313 71.5906 37.5504 71.6285 37.5885 71.6475C37.6266 71.6665 37.6647 71.6854 37.7029 71.6854C37.741 71.6854 37.7601 71.6854 37.7791 71.6665C37.7982 71.6475 37.8363 71.6475 37.8554 71.6285C37.8744 71.6095 37.8935 71.5906 37.8935 71.5526C37.9316 71.5147 37.9316 71.4767 37.9316 71.4577Z" fill="#AA8A00"/>
<path d="M37.8554 71.989C37.8172 71.989 37.7791 72.008 37.741 72.027C37.7029 72.0459 37.6838 72.0839 37.6648 72.1218C37.6457 72.1598 37.6457 72.1977 37.6457 72.2547C37.6457 72.2926 37.6838 72.3306 37.7029 72.3685C37.741 72.4065 37.7791 72.4254 37.8172 72.4254C37.8554 72.4254 37.9125 72.4254 37.9507 72.4065C37.9888 72.3875 38.0269 72.3685 38.046 72.3306C38.065 72.2926 38.0841 72.2547 38.0841 72.2167C38.0841 72.1788 38.0841 72.1598 38.065 72.1408C38.046 72.1218 38.046 72.0839 38.0269 72.0649C38.0079 72.0459 37.9888 72.027 37.9507 72.027C37.9125 71.989 37.8744 71.989 37.8554 71.989Z" fill="#AA8A00"/>
<path d="M38.3891 72.5203C38.3509 72.5203 38.3128 72.5392 38.2747 72.5582C38.2366 72.5772 38.2175 72.6151 38.1984 72.6531C38.1794 72.691 38.1794 72.729 38.1794 72.7859C38.1794 72.8239 38.2175 72.8618 38.2366 72.8998C38.2747 72.9377 38.3128 72.9567 38.3509 72.9567C38.3891 72.9567 38.4462 72.9567 38.4844 72.9377C38.5225 72.9187 38.5606 72.8998 38.5797 72.8618C38.5987 72.8239 38.6178 72.7859 38.6178 72.748C38.6178 72.691 38.5987 72.6341 38.5606 72.5962C38.5034 72.5582 38.4462 72.5203 38.3891 72.5203Z" fill="#AA8A00"/>
<path d="M37.6457 72.6343C37.6076 72.6343 37.5694 72.6533 37.5313 72.6722C37.4932 72.6912 37.4741 72.7292 37.4551 72.7671C37.436 72.805 37.436 72.843 37.436 72.8999C37.436 72.9379 37.4741 72.9758 37.4932 73.0138C37.5313 73.0517 37.5694 73.0707 37.6076 73.0707C37.6457 73.0707 37.7029 73.0707 37.741 73.0517C37.7791 73.0327 37.8172 73.0138 37.8363 72.9758C37.8554 72.9379 37.8744 72.8999 37.8744 72.862C37.8744 72.805 37.8553 72.7481 37.8172 72.7102C37.76 72.6722 37.7029 72.6343 37.6457 72.6343Z" fill="#AA8A00"/>
<path d="M30.0975 79.5217C29.6209 79.9771 29.335 80.9069 29.7734 81.1915C30.3071 81.533 31.2221 80.5463 31.2221 80.5463C30.9171 80.1289 30.5359 79.7874 30.0975 79.5217Z" fill="#AA8A00"/>
<path d="M31.0505 79.1045C31.0505 79.0665 31.0315 79.0286 31.0124 78.9906C30.9933 78.9527 30.9552 78.9337 30.9171 78.9147C30.879 78.8958 30.8409 78.8958 30.7837 78.8958C30.7455 78.8958 30.7074 78.9337 30.6693 78.9527C30.6312 78.9906 30.6121 79.0286 30.6121 79.0665C30.6121 79.1045 30.6121 79.1614 30.6312 79.1993C30.6502 79.2373 30.6693 79.2752 30.7074 79.2942C30.7455 79.3132 30.7837 79.3322 30.8218 79.3322C30.879 79.3322 30.9362 79.3132 30.9743 79.2752C31.0124 79.2183 31.0505 79.1614 31.0505 79.1045Z" fill="#AA8A00"/>
<path d="M31.5271 78.8767C31.4889 78.8767 31.4508 78.8957 31.4127 78.9147C31.3746 78.9336 31.3555 78.9716 31.3364 79.0095C31.3174 79.0475 31.3174 79.0854 31.3174 79.1424C31.3174 79.1803 31.3555 79.2182 31.3746 79.2562C31.4127 79.2941 31.4508 79.3131 31.4889 79.3131C31.5271 79.3131 31.5842 79.3131 31.6224 79.2941C31.6605 79.2752 31.6986 79.2562 31.7177 79.2182C31.7367 79.1803 31.7558 79.1423 31.7558 79.1044C31.7558 79.0475 31.7367 78.9906 31.6986 78.9526C31.6414 78.9147 31.5842 78.8767 31.5271 78.8767Z" fill="#AA8A00"/>
<path d="M31.4317 79.6167C31.3936 79.6167 31.3555 79.6357 31.3174 79.6546C31.2793 79.6736 31.2602 79.7116 31.2411 79.7495C31.2221 79.7875 31.2221 79.8254 31.2221 79.8823C31.2221 79.9203 31.2602 79.9582 31.2793 79.9962C31.3174 80.0341 31.3555 80.0531 31.3936 80.0531C31.4317 80.0531 31.4889 80.0531 31.5271 80.0341C31.5652 80.0152 31.6033 79.9962 31.6224 79.9582C31.6414 79.9203 31.6605 79.8823 31.6605 79.8444C31.6605 79.8064 31.6605 79.7875 31.6414 79.7685C31.6224 79.7495 31.6224 79.7116 31.6033 79.6926C31.5842 79.6736 31.5652 79.6546 31.5271 79.6546C31.4889 79.6167 31.4699 79.6167 31.4317 79.6167Z" fill="#AA8A00"/>
<path d="M16.2782 78.0989C15.7635 79.1045 15.8779 80.2999 16.221 80.5845C16.6594 80.945 18.0127 79.4081 18.1652 78.9717C17.6696 78.4784 17.0025 78.1558 16.2782 78.0989Z" fill="#AA8A00"/>
<path d="M17.0597 77.6244C17.0597 77.6624 17.0788 77.7003 17.0978 77.7383C17.1169 77.7762 17.155 77.7952 17.1931 77.8142C17.2312 77.8331 17.2694 77.8331 17.3265 77.8331C17.3647 77.8331 17.4028 77.7952 17.4409 77.7762C17.479 77.7383 17.4981 77.7003 17.4981 77.6624C17.4981 77.6244 17.4981 77.5675 17.479 77.5296C17.46 77.4916 17.4409 77.4537 17.4028 77.4347C17.3647 77.4157 17.3265 77.3967 17.2884 77.3967C17.2312 77.3967 17.1741 77.4157 17.1359 77.4537C17.0788 77.5296 17.0597 77.5675 17.0597 77.6244Z" fill="#AA8A00"/>
<path d="M17.7078 77.4538C17.7078 77.4917 17.7268 77.5297 17.7459 77.5676C17.7649 77.6056 17.8031 77.6245 17.8412 77.6435C17.8793 77.6625 17.9174 77.6625 17.9746 77.6625C18.0127 77.6625 18.0509 77.6245 18.089 77.6056C18.1271 77.5676 18.1462 77.5297 18.1462 77.4917C18.1462 77.4538 18.1462 77.3968 18.1271 77.3589C18.108 77.3209 18.089 77.283 18.0509 77.264C18.0127 77.2451 17.9746 77.2261 17.9365 77.2261C17.8793 77.2261 17.8221 77.245 17.784 77.283C17.7459 77.3399 17.7078 77.3968 17.7078 77.4538Z" fill="#AA8A00"/>
<path d="M18.1271 77.9282C18.089 77.9282 18.0509 77.9472 18.0128 77.9662C17.9746 77.9851 17.9556 78.0231 17.9365 78.061C17.9174 78.099 17.9174 78.1369 17.9174 78.1939C17.9174 78.2318 17.9556 78.2698 17.9746 78.3077C18.0128 78.3457 18.0509 78.3646 18.089 78.3646C18.1271 78.3646 18.1843 78.3646 18.2224 78.3457C18.2605 78.3267 18.2987 78.3077 18.3177 78.2698C18.3368 78.2318 18.3559 78.1939 18.3559 78.1559C18.3559 78.099 18.3368 78.0421 18.2987 78.0041C18.2415 77.9472 18.1843 77.9282 18.1271 77.9282Z" fill="#AA8A00"/>
<path d="M18.7943 77.9661C18.7561 77.9661 18.718 77.985 18.6799 78.004C18.6418 78.023 18.6227 78.0609 18.6037 78.0989C18.5846 78.1368 18.5846 78.1748 18.5846 78.2317C18.5846 78.2697 18.6227 78.3076 18.6418 78.3456C18.6799 78.3835 18.718 78.4025 18.7561 78.4025C18.7943 78.4025 18.8515 78.4025 18.8896 78.3835C18.9277 78.3645 18.9658 78.3456 18.9849 78.3076C19.0039 78.2697 19.023 78.2317 19.023 78.1938C19.023 78.1368 19.0039 78.0799 18.9658 78.042C18.9086 78.004 18.8515 77.9661 18.7943 77.9661Z" fill="#AA8A00"/>
<path d="M18.7942 77.2829C18.7942 77.245 18.7752 77.207 18.7561 77.1691C18.7371 77.1311 18.6989 77.1122 18.6608 77.0932C18.6227 77.0742 18.5846 77.0742 18.5274 77.0742C18.4893 77.0742 18.4511 77.1122 18.413 77.1311C18.3749 77.1691 18.3558 77.207 18.3558 77.245C18.3558 77.2829 18.3558 77.3399 18.3749 77.3778C18.394 77.4158 18.413 77.4537 18.4511 77.4727C18.4893 77.4917 18.5274 77.5106 18.5655 77.5106C18.6227 77.5106 18.6799 77.4917 18.718 77.4537C18.7752 77.3968 18.7942 77.3399 18.7942 77.2829Z" fill="#AA8A00"/>
<path d="M17.6315 76.543C17.5934 76.543 17.5553 76.5619 17.5172 76.5809C17.479 76.5999 17.46 76.6378 17.4409 76.6758C17.4218 76.7137 17.4218 76.7517 17.4218 76.8086C17.4218 76.8466 17.46 76.8845 17.479 76.9225C17.5171 76.9604 17.5553 76.9794 17.5934 76.9794C17.6315 76.9794 17.6887 76.9794 17.7268 76.9604C17.7649 76.9414 17.8031 76.9225 17.8221 76.8845C17.8412 76.8466 17.8602 76.8086 17.8602 76.7707C17.8602 76.7137 17.8412 76.6568 17.8031 76.6189C17.7459 76.5619 17.6887 76.543 17.6315 76.543Z" fill="#AA8A00"/>
<path d="M8.97778 69.1429C8.95872 69.6742 10.2549 70.1675 11.3414 70.1865C11.4748 69.5793 11.4748 68.9342 11.3414 68.327C10.3883 68.2511 8.99684 68.6116 8.97778 69.1429Z" fill="#AA8A00"/>
<path d="M11.8751 70.1487C11.837 70.1487 11.7988 70.1677 11.7607 70.1866C11.7226 70.2056 11.7035 70.2436 11.6845 70.2815C11.6654 70.3194 11.6654 70.3574 11.6654 70.4143C11.6654 70.4523 11.7035 70.4902 11.7226 70.5282C11.7607 70.5661 11.7988 70.5851 11.837 70.5851C11.8751 70.5851 11.9323 70.5851 11.9704 70.5661C12.0085 70.5471 12.0466 70.5282 12.0657 70.4902C12.0847 70.4523 12.1038 70.4143 12.1038 70.3764C12.1038 70.3194 12.0847 70.2625 12.0466 70.2246C11.9894 70.1866 11.9323 70.1487 11.8751 70.1487Z" fill="#AA8A00"/>
<path d="M12.485 69.7881C12.4469 69.7881 12.4088 69.8071 12.3707 69.826C12.3325 69.845 12.3135 69.883 12.2944 69.9209C12.2754 69.9589 12.2754 69.9968 12.2754 70.0537C12.2754 70.0917 12.3135 70.1296 12.3325 70.1676C12.3707 70.2055 12.4088 70.2245 12.4469 70.2245C12.485 70.2245 12.5422 70.2245 12.5803 70.2055C12.6185 70.1866 12.6566 70.1676 12.6756 70.1296C12.6947 70.0917 12.7138 70.0537 12.7138 70.0158C12.7138 69.9589 12.6947 69.9019 12.6566 69.864C12.5994 69.8071 12.5422 69.7881 12.485 69.7881Z" fill="#AA8A00"/>
<path d="M13.1141 69.3896C13.0759 69.3896 13.0378 69.4086 12.9997 69.4276C12.9616 69.4466 12.9425 69.4845 12.9235 69.5225C12.9044 69.5604 12.9044 69.5984 12.9044 69.6553C12.9044 69.6932 12.9425 69.7312 12.9616 69.7691C12.9997 69.8071 13.0378 69.8261 13.0759 69.8261C13.1141 69.8261 13.1712 69.8261 13.2094 69.8071C13.2475 69.7881 13.2856 69.7691 13.3047 69.7312C13.3237 69.6932 13.3428 69.6553 13.3428 69.6173C13.3428 69.5604 13.3237 69.5035 13.2856 69.4655C13.2094 69.4086 13.1712 69.3896 13.1141 69.3896Z" fill="#AA8A00"/>
<path d="M11.9513 69.2947C11.9132 69.2947 11.8751 69.3136 11.8369 69.3326C11.7988 69.3516 11.7798 69.3895 11.7607 69.4275C11.7416 69.4654 11.7416 69.5034 11.7416 69.5603C11.7416 69.5983 11.7798 69.6362 11.7988 69.6742C11.8369 69.7121 11.8751 69.7311 11.9132 69.7311C11.9513 69.7311 12.0085 69.7311 12.0466 69.7121C12.0847 69.6931 12.1229 69.6742 12.1419 69.6362C12.161 69.5983 12.18 69.5603 12.18 69.5224C12.18 69.4654 12.161 69.4085 12.1229 69.3706C12.0657 69.3137 12.0085 69.2947 11.9513 69.2947Z" fill="#AA8A00"/>
<path d="M12.5994 68.8394C12.5613 68.8394 12.5232 68.8583 12.485 68.8773C12.4469 68.8963 12.4279 68.9342 12.4088 68.9722C12.3897 69.0101 12.3897 69.0481 12.3897 69.105C12.3897 69.143 12.4279 69.1809 12.4469 69.2188C12.485 69.2568 12.5232 69.2758 12.5613 69.2758C12.5994 69.2758 12.6566 69.2758 12.6947 69.2568C12.7328 69.2378 12.771 69.2188 12.79 69.1809C12.8091 69.143 12.8281 69.105 12.8281 69.0671C12.8281 69.0101 12.8091 68.9532 12.771 68.9153C12.6947 68.8773 12.6566 68.8394 12.5994 68.8394Z" fill="#AA8A00"/>
<path d="M12.0085 68.3081C11.9704 68.3081 11.9323 68.3271 11.8941 68.3461C11.856 68.365 11.837 68.403 11.8179 68.4409C11.7988 68.4789 11.7988 68.5168 11.7988 68.5737C11.7988 68.6117 11.837 68.6496 11.856 68.6876C11.8941 68.7255 11.9323 68.7445 11.9704 68.7445C12.0085 68.7445 12.0657 68.7445 12.1038 68.7255C12.1419 68.7066 12.1801 68.6876 12.1991 68.6496C12.2182 68.6117 12.2372 68.5738 12.2372 68.5358C12.2372 68.4789 12.2182 68.422 12.1801 68.384C12.1229 68.3461 12.0657 68.3081 12.0085 68.3081Z" fill="#AA8A00"/>
<path d="M2.6876 51.5536C1.94422 50.9274 0.552759 50.9464 0.362148 51.231C0.152476 51.5725 0.914921 52.4643 1.63924 52.9956C2.07765 52.5592 2.42075 52.0848 2.6876 51.5536Z" fill="#AA8A00"/>
<path d="M2.02046 53.2043C1.96328 53.2043 1.9061 53.2233 1.86797 53.2613C1.82985 53.2992 1.81079 53.3561 1.81079 53.4131C1.81079 53.47 1.82985 53.5269 1.86797 53.5649C1.9061 53.6028 1.96328 53.6218 2.02046 53.6218C2.07765 53.6218 2.13483 53.6028 2.17295 53.5649C2.21107 53.5269 2.23014 53.47 2.23014 53.4131C2.23014 53.3561 2.21107 53.2992 2.17295 53.2613C2.13483 53.2423 2.07765 53.2043 2.02046 53.2043Z" fill="#AA8A00"/>
<path d="M2.68761 53.2043C2.63042 53.2043 2.57324 53.2233 2.53512 53.2613C2.497 53.2992 2.47794 53.3561 2.47794 53.4131C2.47794 53.47 2.497 53.5269 2.53512 53.5649C2.57324 53.6028 2.63042 53.6218 2.68761 53.6218C2.74479 53.6218 2.80197 53.6028 2.8401 53.5649C2.87822 53.5269 2.89728 53.47 2.89728 53.4131C2.89728 53.3561 2.87822 53.2992 2.8401 53.2613C2.80197 53.2423 2.74479 53.2043 2.68761 53.2043Z" fill="#AA8A00"/>
<path d="M2.63042 52.9006C2.6876 52.9006 2.74478 52.8816 2.78291 52.8437C2.82103 52.8057 2.84009 52.7488 2.84009 52.6919C2.84009 52.635 2.82103 52.578 2.78291 52.5401C2.74478 52.5021 2.6876 52.4832 2.63042 52.4832C2.57323 52.4832 2.51605 52.5021 2.47793 52.5401C2.43981 52.578 2.42075 52.635 2.42075 52.6919C2.42075 52.7298 2.42075 52.7488 2.43981 52.7678C2.45887 52.7867 2.45887 52.8247 2.47793 52.8437C2.49699 52.8626 2.51605 52.8816 2.55417 52.8816C2.57323 52.9006 2.61136 52.9006 2.63042 52.9006Z" fill="#AA8A00"/>
<path d="M3.41191 52.4832C3.35473 52.4832 3.29755 52.5021 3.25942 52.5401C3.2213 52.578 3.20224 52.635 3.20224 52.6919C3.20224 52.7488 3.2213 52.8057 3.25942 52.8437C3.29755 52.8816 3.35473 52.9006 3.41191 52.9006C3.4691 52.9006 3.52628 52.8816 3.5644 52.8437C3.60252 52.8057 3.62158 52.7488 3.62158 52.6919C3.62158 52.635 3.60252 52.578 3.5644 52.5401C3.52628 52.5211 3.4691 52.4832 3.41191 52.4832Z" fill="#AA8A00"/>
<path d="M3.41193 51.895C3.41193 51.8571 3.41193 51.8381 3.39287 51.8191C3.37381 51.8001 3.37381 51.7622 3.35475 51.7432C3.33568 51.7242 3.31662 51.7053 3.2785 51.7053C3.25944 51.6863 3.22132 51.6863 3.20226 51.6863C3.14507 51.6863 3.08789 51.7053 3.04977 51.7432C3.01165 51.7812 2.99258 51.8381 2.99258 51.895C2.99258 51.9519 3.01165 52.0088 3.04977 52.0468C3.08789 52.0847 3.14507 52.1037 3.20226 52.1037C3.25944 52.1037 3.31662 52.0847 3.35475 52.0468C3.39287 52.0088 3.41193 51.9519 3.41193 51.895Z" fill="#AA8A00"/>
<path d="M66.8473 25.0463C67.5717 25.0463 68.1435 24.4581 68.1435 23.7561C68.1435 23.0351 67.5526 22.4658 66.8473 22.4658C66.123 22.4658 65.5512 23.054 65.5512 23.7561C65.5321 24.4771 66.123 25.0463 66.8473 25.0463Z" fill="#AA8A00"/>
<path d="M50.8932 8.59548C51.1219 8.50061 51.3316 8.32984 51.4841 8.12112C51.6365 7.9124 51.7128 7.66573 51.7128 7.40009C51.7128 7.13444 51.6365 6.88778 51.4841 6.67906C51.3316 6.47034 51.141 6.29957 50.8932 6.20469C50.6644 6.10982 50.3976 6.07187 50.1498 6.1288C49.902 6.18572 49.6733 6.29957 49.4826 6.48931C49.292 6.67906 49.1777 6.90675 49.1205 7.15342C49.0633 7.40009 49.1014 7.66573 49.1967 7.89342C49.3302 8.21599 49.5779 8.46266 49.902 8.59548C50.226 8.7283 50.5882 8.7283 50.8932 8.59548Z" fill="#AA8A00"/>
<path d="M27.6577 8.59548C27.8864 8.50061 28.0961 8.32984 28.2486 8.12112C28.4011 7.9124 28.4773 7.66573 28.4773 7.40009C28.4773 7.13444 28.4011 6.88778 28.2486 6.67906C28.0961 6.47034 27.9055 6.29957 27.6577 6.20469C27.4289 6.10982 27.1621 6.07187 26.9143 6.1288C26.6665 6.18572 26.4378 6.29957 26.2472 6.48931C26.0565 6.67906 25.9422 6.90675 25.885 7.15342C25.8278 7.40009 25.8659 7.66573 25.9612 7.89342C26.0947 8.21599 26.3425 8.46266 26.6665 8.59548C26.9905 8.7283 27.3336 8.7283 27.6577 8.59548Z" fill="#AA8A00"/>
<path d="M10.7314 25.0463C11.4557 25.0463 12.0276 24.4581 12.0276 23.7561C12.0276 23.0351 11.4367 22.4658 10.7314 22.4658C10.0261 22.4658 9.43524 23.054 9.43524 23.7561C9.43524 24.4771 10.0071 25.0463 10.7314 25.0463Z" fill="#AA8A00"/>
<path d="M10.7314 48.1953C11.4557 48.1953 12.0276 47.6071 12.0276 46.905C12.0276 46.184 11.4367 45.6147 10.7314 45.6147C10.0261 45.6147 9.43524 46.203 9.43524 46.905C9.43524 47.6071 10.0071 48.1953 10.7314 48.1953Z" fill="#AA8A00"/>
<path d="M26.6665 62.0654C26.4378 62.1603 26.2281 62.3311 26.0756 62.5398C25.9422 62.7485 25.8469 62.9952 25.8469 63.2608C25.8469 63.5075 25.9231 63.7731 26.0756 63.9819C26.2281 64.1906 26.4187 64.3613 26.6665 64.4562C26.8952 64.5511 27.1621 64.589 27.4099 64.5321C27.6577 64.4752 27.8864 64.3613 28.077 64.1716C28.2676 63.9819 28.382 63.7542 28.4392 63.5075C28.4964 63.2608 28.4582 62.9952 28.3629 62.7675C28.2295 62.4449 27.9817 62.1983 27.6577 62.0654C27.3336 61.9326 26.9905 61.9326 26.6665 62.0654Z" fill="#AA8A00"/>
<path d="M49.902 62.0656C49.6732 62.1604 49.4636 62.3312 49.3111 62.5399C49.1777 62.7487 49.0824 62.9953 49.0824 63.261C49.0824 63.5076 49.1586 63.7733 49.3111 63.982C49.4636 64.1907 49.6542 64.3615 49.902 64.4564C50.1307 64.5512 50.3976 64.5892 50.6454 64.5323C50.8932 64.4753 51.1219 64.3615 51.3125 64.1717C51.5031 63.982 51.6175 63.7543 51.6747 63.5076C51.7318 63.261 51.6937 62.9953 51.5984 62.7676C51.5412 62.6158 51.4459 62.464 51.3125 62.3502C51.1981 62.2363 51.0456 62.1415 50.8932 62.0656C50.7407 62.0087 50.5691 61.9707 50.3976 61.9707C50.226 61.9707 50.0545 61.9897 49.902 62.0656Z" fill="#AA8A00"/>
<path d="M66.8473 48.1953C67.5717 48.1953 68.1435 47.6071 68.1435 46.905C68.1435 46.184 67.5526 45.6147 66.8473 45.6147C66.123 45.6147 65.5512 46.203 65.5512 46.905C65.5321 47.6071 66.123 48.1953 66.8473 48.1953Z" fill="#AA8A00"/>
<path d="M71.6698 35.1406L55.1629 28.4426L61.8914 12.0107L45.4798 18.8985L38.5606 2.54248L31.8321 18.9744L15.3442 12.2764L22.2443 28.6324L5.81363 35.5011L22.3206 42.1991L15.592 58.631L32.0227 51.7433L38.9228 68.0993L45.6514 51.6674L62.1583 58.3654L55.2391 42.0284L71.6698 35.1406Z" fill="#AA8A00"/>
<path fill-rule="evenodd" clip-rule="evenodd" d="M45.0033 50.1116L59.9091 56.1644L53.6761 41.3833L68.5247 35.1597L53.5999 29.1068L59.6804 14.2498L44.8317 20.4734L38.5797 5.67334L32.4992 20.5304L17.5743 14.4775L23.8264 29.2586L8.97778 35.4822L23.9026 41.5351L17.8221 56.3921L32.6707 50.1685L38.9228 64.9686L45.0033 50.1116Z" fill="white"/>
<path d="M40.4096 41.3643C40.4096 35.3304 37.9125 33.7745 37.9125 27.8165C37.9697 25.4826 38.4272 23.1677 39.2659 21.0046C38.7512 27.0575 43.8787 30.8903 43.8787 38.9545C43.8787 44.0586 41.8773 46.9997 40.3714 46.9997C39.4184 46.9997 39.4756 46.3735 38.98 46.3735C38.4844 46.3735 38.046 47.1135 37.0548 47.1135C36.0446 47.1135 32.7851 45.5007 32.2514 38.3473C31.6796 39.8083 32.1561 41.8766 32.4611 42.9771C30.4406 39.353 30.5359 34.9888 33.5094 30.5298C32.9376 35.1786 33.2998 38.9165 34.7293 42.313C35.0343 43.034 35.568 43.4135 36.0446 43.034C36.5211 42.6545 36.0446 41.9145 35.6824 41.0986C35.3202 40.2827 31.3365 31.5544 37.3217 24.3821C36.6355 30.6626 39.1706 34.5904 39.1706 37.5314C39.1706 40.4725 37.3979 44.4191 39.1134 44.4191C40.1618 44.4002 40.4096 42.3509 40.4096 41.3643Z" fill="#EF3340"/>
<path d="M42.5444 45.7285C44.0121 44.6469 45.213 43.2428 46.0517 41.63C46.8904 40.0172 47.3288 38.2336 47.3669 36.412C47.3669 31.3648 42.2585 27.2663 41.4008 24.3442C41.4008 29.012 44.603 31.953 44.603 38.2146C44.603 44.0208 42.5444 45.7285 42.5444 45.7285Z" fill="#EF3340"/>
<path d="M37.131 78.896C37.0357 78.915 36.9404 78.9529 36.8832 79.0288C36.807 79.0857 36.7307 79.1616 36.6545 79.2375C36.4067 79.5601 36.0255 79.7499 35.6252 79.8068C35.4918 79.8068 35.3774 79.7688 35.263 79.7309C35.1487 79.674 35.0343 79.5981 34.9581 79.5032C33.2997 80.3001 31.7748 81.1729 30.6121 81.856C31.1077 81.875 31.5842 82.0268 32.0036 82.2924C33.2044 81.4955 35.3012 80.357 37.4551 79.2186C37.2835 78.9719 37.1882 78.896 37.131 78.896Z" fill="#FFC600"/>
<path d="M42.9066 76.2964C42.1441 76.5241 41.2864 76.8087 40.4095 77.1502C40.562 77.321 40.6764 77.5108 40.7526 77.7195C41.7819 77.2831 42.7159 76.9225 43.5356 76.6569C43.2878 76.6 43.059 76.4672 42.9066 76.2964Z" fill="#FFC600"/>
<path d="M32.8614 82.6908C33.7 82.501 34.5578 82.5769 35.3584 82.8615C36.502 81.9128 37.7029 81.04 38.9609 80.262C38.5606 80.2241 38.1985 80.0533 37.8935 79.8066C36.1399 80.6415 34.4434 81.6092 32.8614 82.6908Z" fill="#FFC600"/>
<path d="M40.1427 74.1524C41.0004 73.014 41.9344 71.9704 42.9828 71.0027C41.6485 71.4011 40.3142 72.3878 39.2659 73.2796C39.5137 73.4124 39.7424 73.6022 39.9139 73.8109C39.9902 73.9248 40.0664 74.0386 40.1427 74.1524Z" fill="#FFC600"/>
<path d="M73.6521 53.0527C74.4336 52.123 74.548 51.3071 74.548 48.2522C74.0524 49.0681 72.6419 50.9655 72.4132 51.8573C71.9366 53.565 72.8706 54.0015 73.6521 53.0527Z" fill="#FFC600"/>
<path d="M72.985 56.1836C73.7665 55.4816 74.3955 54.2293 74.6814 52.8821C73.7665 54.0016 72.7563 54.0205 72.0891 54.7416C70.812 56.1267 72.2225 56.8857 72.985 56.1836Z" fill="#FFC600"/>
<path d="M71.8032 54.1343C71.9938 53.5271 71.5745 52.2558 71.746 51.2881C70.9073 52.2178 70.3164 53.9445 70.6786 54.7414C71.0217 55.5573 71.6126 54.7225 71.8032 54.1343Z" fill="#FFC600"/>
<path d="M69.9543 56.8856C70.6595 56.1456 69.5731 54.5327 70.0496 52.4456C70.0496 52.4456 68.62 54.7415 68.4675 55.5953C67.9719 58.4035 69.249 57.6256 69.9543 56.8856Z" fill="#FFC600"/>
<path d="M71.2123 59.0107C71.9366 58.9538 72.8325 58.1189 73.7665 56.3733C73.0231 57.2271 71.0789 56.8856 70.507 57.5307C70.3736 57.6636 70.2783 57.8154 70.2402 58.0051C70.2021 58.1948 70.2211 58.3656 70.2974 58.5364C70.3736 58.7072 70.5071 58.84 70.6595 58.9348C70.8311 59.0107 71.0217 59.0487 71.2123 59.0107Z" fill="#FFC600"/>
<path d="M68.7153 61.2496C68.2197 61.8378 67.6288 62.426 67.1714 62.8624C66.1039 63.6024 64.7125 63.5835 63.95 64.1337C62.7111 65.0445 63.4926 65.5378 64.3884 65.3291C65.0174 65.1773 65.7037 64.684 67.0189 63.166C67.6288 62.5968 68.2197 62.0086 68.7534 61.3824C68.8487 61.5911 69.0203 61.7809 69.23 61.8758C69.4396 61.9706 69.6874 61.9896 69.9162 61.9137C70.8311 61.686 71.2695 61.3824 72.9659 58.8398C72.3179 59.2004 70.0877 59.2573 69.1918 60.1681C69.0393 60.3009 68.9059 60.4716 68.8297 60.6424C68.7344 60.8511 68.7153 61.0409 68.7153 61.2496Z" fill="#FFC600"/>
<path d="M61.7199 65.1395C61.8152 64.0959 61.5102 64.2477 62.4823 62.4641C62.063 62.7677 60.3284 64.1149 60.3284 65.4621C60.3284 67.2836 61.6055 66.1831 61.7199 65.1395Z" fill="#FFC600"/>
<path d="M59.1276 67.5113C60.0044 66.6574 59.3944 65.7467 60.2712 64.0769C60.2712 64.0769 58.7654 65.1584 58.2317 66.4297C57.6599 67.72 58.2317 68.3651 59.1276 67.5113Z" fill="#FFC600"/>
<path d="M56.9737 69.0673C58.0792 67.9478 57.3167 67.0939 58.0029 65.7278C57.4121 66.335 56.5543 66.9421 56.0206 67.8909C55.4106 69.0104 55.8681 70.1868 56.9737 69.0673Z" fill="#FFC600"/>
<path d="M54.3242 70.8128C55.6013 69.6743 54.7816 68.4979 56.3256 66.6953C55.3535 67.1697 53.6189 68.6876 53.0661 69.7881C52.5324 70.8887 53.0471 71.9702 54.3242 70.8128Z" fill="#FFC600"/>
<path d="M51.4841 72.1981C52.3799 71.3063 52.4752 69.7693 53.5808 67.8909C52.9518 68.2893 50.8932 69.4658 50.0735 70.8319C49.1014 72.4447 50.5882 73.0899 51.4841 72.1981Z" fill="#FFC600"/>
<path d="M47.9578 73.9056C49.7495 72.1789 48.9489 71.6287 50.3213 69.3328C48.8155 70.2246 47.5193 71.4389 46.5091 72.881C46.0326 73.6589 46.3566 75.4615 47.9578 73.9056Z" fill="#FFC600"/>
<path d="M43.2306 74.7216C42.6206 76.0309 43.7262 76.676 44.6411 75.8222C45.5561 74.9683 45.9182 72.7862 47.8243 70.1108C46.5091 70.8698 44.1265 72.7673 43.2306 74.7216Z" fill="#FFC600"/>
<path d="M41.8582 76.2015C43.4021 74.6267 43.0019 73.3364 45.4226 70.7559C43.5737 71.42 40.7717 73.602 40.0093 75.1959C39.304 76.7138 40.8479 77.2451 41.8582 76.2015Z" fill="#FFC600"/>
<path d="M32.6898 83.0514C31.5843 83.5637 33.2998 84.057 34.6912 83.5637C36.1018 83.0703 33.6238 82.6339 32.6898 83.0514Z" fill="#FFC600"/>
<path d="M30.1547 82.1786C28.8776 82.4822 30.1928 83.0135 31.1458 82.8048C32.0798 82.615 30.9552 82.0078 30.1547 82.1786Z" fill="#FFC600"/>
<path d="M49.4064 83.2412C50.7979 83.2792 52.1893 83.0135 53.4855 82.4443C52.9136 82.3494 52.3609 82.1976 51.8272 82.0269C51.1219 82.6151 50.3023 83.0325 49.4064 83.2412Z" fill="#FFC600"/>
<path d="M52.2846 78.0801C51.6937 78.4785 51.1028 78.839 50.4738 79.1616C53.0661 79.4652 55.6966 79.5601 58.3079 79.4652C58.7273 78.9339 59.0513 78.3647 59.2991 77.7385C56.9737 78.0231 54.6291 78.137 52.2846 78.0801Z" fill="#FFC600"/>
<path d="M56.0015 80.7365C56.0587 80.7554 57.6789 79.8257 57.6789 79.8257H56.7259C56.459 80.1103 56.2112 80.4139 56.0015 80.7365Z" fill="#FFC600"/>
<path d="M56.3637 76.2964L55.9444 76.4292C55.1628 76.6759 54.4576 76.8846 53.7904 77.0743C55.1438 77.1882 56.8021 76.9036 58.8416 76.3343C57.9648 76.2774 57.1071 76.0497 56.3256 75.7082C55.8872 75.5184 55.3916 75.4995 54.9341 75.6512L54.8197 75.6892C53.8286 76.0307 52.8183 76.2964 51.789 76.5051C52.2846 76.7707 52.8183 76.9605 53.3711 77.0364C54.1335 76.8277 54.9722 76.562 55.9253 76.2774L56.3446 76.1446C56.3637 76.1446 56.3828 76.1446 56.4209 76.1446C56.4399 76.1636 56.459 76.1825 56.459 76.2015C56.459 76.2205 56.459 76.2395 56.459 76.2774C56.4018 76.2774 56.3828 76.2774 56.3637 76.2964Z" fill="#FFC600"/>
<path d="M60.4237 71.0784C60.9193 70.8697 61.4149 70.642 61.8914 70.3953C61.4721 70.3194 61.0337 70.2815 60.5953 70.2815C60.1569 70.5282 59.6803 70.7369 59.1847 70.9077C59.1085 71.0025 59.0704 71.0974 59.0132 71.2112C59.3563 71.2871 59.7185 71.2682 60.0616 71.1923C60.0997 71.1733 60.2331 71.1353 60.4237 71.0784Z" fill="#FFC600"/>
<path d="M62.1773 70.4333C61.8914 70.6041 61.6055 70.7369 61.3386 70.8698C60.5953 71.3251 59.8519 71.7616 59.0704 72.1221C59.2419 72.4636 59.6422 72.6913 60.2903 72.6913C61.6627 72.6913 63.016 72.0652 65.3987 70.6231C64.3122 70.7749 63.2257 70.699 62.1773 70.4333Z" fill="#FFC600"/>
<path d="M64.6362 68.0425C64.2931 68.0046 63.9882 67.9856 63.6832 67.9856C63.1304 68.3082 62.5586 68.5928 61.9677 68.8394C61.9105 68.9912 61.9105 69.181 61.9486 69.3328C62.8826 68.9912 63.7975 68.5548 64.6362 68.0425Z" fill="#FFC600"/>
<path d="M64.9221 68.0615C64.0072 68.6497 63.0351 69.1241 62.0249 69.5036C62.1392 69.7313 62.3489 69.921 62.6158 69.9969C62.9017 69.8261 63.2066 69.6554 63.5497 69.4466C63.5688 69.4277 63.5879 69.4277 63.6069 69.4466C63.626 69.4466 63.6451 69.4656 63.6641 69.4846C63.6832 69.5036 63.6832 69.5225 63.6832 69.5415C63.6832 69.5605 63.6641 69.5795 63.6451 69.5984C63.3591 69.7692 63.0923 69.921 62.8445 70.0728C63.0351 70.1108 63.2066 70.1108 63.3973 70.0918C65.6655 69.8072 66.733 68.9533 68.3531 67.72C67.2285 68.0615 66.0658 68.1754 64.9221 68.0615Z" fill="#FFC600"/>
<path d="M67.0379 65.3103C66.9236 65.3862 66.8092 65.4431 66.6948 65.5001C66.123 65.9744 65.513 66.4108 64.865 66.7524C64.865 66.8852 64.9031 66.9991 64.9603 67.1129C65.5893 66.7714 66.1802 66.3729 66.7139 65.9175C66.733 65.8985 66.752 65.8985 66.7711 65.8985C66.7901 65.8985 66.8092 65.9175 66.8283 65.9365C66.8473 65.9555 66.8473 65.9744 66.8473 65.9934C66.8473 66.0124 66.8283 66.0314 66.8092 66.0503C66.2755 66.5057 65.6846 66.9232 65.0556 67.2457C65.2081 67.3596 65.3987 67.4165 65.5893 67.4355C65.7799 67.4544 65.9705 67.4355 66.1611 67.3785C68.296 66.9042 69.859 65.0447 69.859 65.0447C68.944 65.2724 67.991 65.3672 67.0379 65.3103Z" fill="#FFC600"/>
<path d="M66.9807 64.1528C67.0189 64.3046 67.0951 64.4374 67.1904 64.5323C67.2857 64.6461 67.4192 64.722 67.5716 64.76C68.0672 64.4184 68.6009 64.001 69.3443 63.3748C69.3634 63.3559 69.3824 63.3559 69.4015 63.3559C69.4206 63.3559 69.4396 63.3748 69.4587 63.3938C69.4777 63.4128 69.4778 63.4318 69.4778 63.4507C69.4778 63.4697 69.4587 63.4887 69.4396 63.5077C68.7725 64.0769 68.2578 64.4943 67.7813 64.8169C67.9719 64.8359 68.1435 64.8359 68.3341 64.7979C69.249 64.6082 70.0115 64.02 71.8032 62.0466C70.793 62.1225 69.7827 62.2743 68.7915 62.483C68.2388 63.0902 67.6288 63.6405 66.9807 64.1528Z" fill="#FFC600"/>
<path d="M68.5056 62.5588C68.2388 62.6158 67.9719 62.7296 67.7241 62.8624C67.5335 62.9763 67.362 63.1281 67.2285 63.3178C67.0951 63.5076 67.0189 63.7163 66.9617 63.925C67.5144 63.5076 68.0291 63.0522 68.5056 62.5588Z" fill="#FFC600"/>
<path d="M66.8283 58.3087L66.8473 58.3277C66.8473 58.3467 66.8473 58.3467 66.8664 58.3656C66.8664 58.3846 66.8664 58.3846 66.8664 58.4036C66.8664 58.4226 66.8664 58.4226 66.8473 58.4415C66.5805 58.7831 66.3136 59.0867 66.0658 59.3523C66.0658 59.4851 66.0849 59.599 66.1421 59.7128C66.1992 59.8267 66.2564 59.9405 66.3517 60.0164C66.8473 59.4282 67.4001 58.7831 67.8004 58.3467C67.8766 57.6256 67.8194 56.7528 67.8385 55.9749C67.3429 56.4492 66.123 58.0051 66.0658 59.1056C66.2755 58.8779 66.4852 58.6123 66.6948 58.3467L66.7139 58.3277C66.7329 58.3277 66.733 58.3087 66.752 58.3087C66.7711 58.3087 66.7711 58.3087 66.7901 58.3087C66.8092 58.3087 66.8092 58.3087 66.8283 58.3087Z" fill="#FFC600"/>
<path d="M67.362 59.6748C67.5907 59.3712 67.7241 59.0107 67.7622 58.6501C67.381 59.0676 66.9236 59.5989 66.5233 60.0922C66.6948 60.1112 66.8664 60.0732 66.9998 59.9973C67.1332 59.9404 67.2667 59.8266 67.362 59.6748Z" fill="#FFC600"/>
<path d="M62.1583 65.8606C60.9003 66.5816 61.453 67.1698 62.5014 67.1318C63.5497 67.0939 64.6172 66.7524 66.447 65.3103C65.1699 65.8036 63.2448 65.2534 62.1583 65.8606Z" fill="#FFC600"/>
<path d="M59.3372 67.7769C58.632 68.3841 58.8988 69.0482 59.8138 69.0482C60.7478 69.0482 61.6436 68.8774 63.8166 67.6251C61.7389 67.8338 60.4047 66.8661 59.3372 67.7769Z" fill="#FFC600"/>
<path d="M61.3768 69.5606C59.8519 69.7314 57.8505 68.9155 57.088 69.4278C56.6115 69.7503 56.5352 70.4524 57.393 70.6801C58.6892 71.0406 59.6613 70.5852 61.3768 69.5606Z" fill="#FFC600"/>
<path d="M45.2129 76.0878C43.7643 76.2206 43.4784 78.1181 45.6323 78.3647C47.7862 78.6114 50.2832 78.2509 53.028 77.2073C49.6733 77.5109 47.0238 75.917 45.2129 76.0878Z" fill="#FFC600"/>
<path d="M62.2727 64.7599C62.5586 65.0066 63.0923 64.684 63.6832 63.8871C64.2741 63.0902 63.4544 62.2933 65.7227 59.5989C64.7887 60.4907 63.9119 61.4584 63.1113 62.483C62.3298 63.5266 61.9867 64.5133 62.2727 64.7599Z" fill="#FFC600"/>
<path d="M64.6553 62.0656C63.8547 63.1471 64.9793 63.8681 65.799 63.0712C66.1039 62.7676 66.3517 62.4261 66.5805 62.0656C67.2857 61.4584 68.5438 60.2061 69.4396 59.2384L69.4587 59.2194V59.2004V59.1814C69.4587 59.1814 69.4587 59.1625 69.4396 59.1625C69.4396 59.1625 69.4206 59.1625 69.4206 59.1435H69.4015H69.3824C69.3824 59.1435 69.3634 59.1435 69.3634 59.1625C68.5628 60.0163 67.5145 61.0599 66.8092 61.724C67.076 61.2876 67.3429 60.7753 67.6479 60.1871C68.315 59.504 68.925 58.764 69.4587 57.9861V57.9671V57.9481V57.9291L69.4396 57.9102H69.4206H69.4015H69.3824L69.3634 57.9291C68.8297 58.7071 68.2388 59.4281 67.5907 60.1112C67.057 60.3199 65.3605 61.1358 64.6553 62.0656Z" fill="#FFC600"/>
<path d="M41.5532 78.0232C44.7364 79.4653 51.5222 81.8371 53.8858 82.1596C54.1336 80.9832 54.3623 79.9017 54.3623 79.9017C49.597 79.5032 46.4329 79.1048 42.3347 77.7576C41.9726 77.8714 41.5532 78.0232 41.5532 78.0232Z" fill="#FFC600"/>
<path d="M52.7802 74.7405C52.5705 74.7405 52.3418 74.7405 52.1131 74.7215C53.0471 75.0251 54.0192 75.158 55.0104 75.158C54.7435 75.0251 54.5148 74.8733 54.286 74.6836C53.7904 74.7215 53.2758 74.7595 52.7802 74.7405Z" fill="#FFC600"/>
<path d="M54.4766 71.1732C53.352 71.9702 53.9429 72.6912 54.896 72.7671C55.83 72.843 57.7361 72.5394 59.6041 71.4579C58.7082 71.5907 55.9253 70.1676 54.4766 71.1732Z" fill="#FFC600"/>
<path d="M51.6747 72.5205C50.7597 72.7292 49.7114 74.1903 51.3316 74.399C53.0661 74.6457 54.8579 74.418 56.4781 73.7349C54.8388 73.5641 53.0471 72.198 51.6747 72.5205Z" fill="#FFC600"/>
<path d="M56.9927 73.4692C57.7361 73.2985 58.4604 73.0708 59.1466 72.7862C58.8798 72.6533 58.651 72.5205 58.4223 72.3877C57.393 72.8241 56.2875 73.0518 55.1819 73.0328C55.0866 73.0328 55.0104 73.0328 54.9341 73.0328L54.9151 73.0518C55.525 73.2605 56.2493 73.5641 56.9927 73.4692Z" fill="#FFC600"/>
<path d="M59.3754 72.9001C58.7845 73.1278 58.2698 73.3176 57.7552 73.4504C56.764 73.9058 55.7537 74.2853 54.7054 74.5509C54.8197 74.7027 54.9532 74.8166 55.1247 74.9114C55.2772 75.0063 55.4678 75.0632 55.6394 75.0822C55.6775 75.0822 55.7347 75.1012 55.7728 75.1012C56.9355 74.8925 58.0601 74.513 59.0894 73.9817C59.1085 73.9627 59.1276 73.9627 59.1466 73.9817C59.1657 73.9817 59.1847 74.0007 59.2038 74.0196C59.2229 74.0386 59.2229 74.0576 59.2038 74.0955C59.2038 74.1145 59.1847 74.1335 59.1657 74.1525C58.2507 74.6268 57.2977 74.9684 56.2875 75.1961C58.1364 75.3668 59.9663 74.8166 63.3019 73.1848C61.2052 73.4694 60.1187 73.2227 59.3754 72.9001Z" fill="#FFC600"/>
<path d="M48.2627 74.3042C46.8141 74.6078 46.7378 75.8981 47.9577 76.2396C49.1777 76.5622 51.0838 76.5622 54.7816 75.4047C52.4752 75.3858 49.8257 73.9817 48.2627 74.3042Z" fill="#FFC600"/>
<path d="M51.2935 76.5811C50.8741 76.657 50.4548 76.6949 50.0164 76.7139C50.7407 76.8657 51.465 76.9605 52.2084 76.9795C51.8843 76.8846 51.5794 76.7518 51.2935 76.5811Z" fill="#FFC600"/>
</g>
<path d="M92.9121 25L97.4121 12.3965H100.743L105.243 25H102.448L101.64 22.6621H96.5068L95.6982 25H92.9121ZM97.3945 20.2275H100.761L99.1172 15.4639H99.0293L97.3945 20.2275ZM105.683 25V23.1104L110.095 17.7139H105.867V15.4639H113.338V17.3535L108.926 22.75H113.426V25H105.683ZM119.191 22.9258C120.246 22.9258 120.935 22.3867 121.257 21.3086H117.214C117.308 21.7656 117.524 22.1494 117.864 22.46C118.21 22.7705 118.652 22.9258 119.191 22.9258ZM119.191 25.1758C117.809 25.1758 116.698 24.7334 115.86 23.8486C115.022 22.958 114.604 21.8125 114.604 20.4121L114.691 19.4189H121.257C121.163 18.8447 120.943 18.3877 120.598 18.0479C120.258 17.7021 119.789 17.5293 119.191 17.5293C118.734 17.5293 118.386 17.6025 118.146 17.749C117.905 17.8896 117.683 18.1152 117.478 18.4258H114.779C115.031 17.5117 115.518 16.7588 116.238 16.167C116.959 15.5752 117.943 15.2793 119.191 15.2793C120.645 15.2793 121.787 15.7158 122.619 16.5889C123.451 17.4561 123.867 18.6719 123.867 20.2363C123.867 21.7949 123.451 23.0078 122.619 23.875C121.787 24.7422 120.645 25.1758 119.191 25.1758ZM125.581 25V15.4639H127.743L128.007 16.5361H128.104C128.584 15.8154 129.334 15.458 130.354 15.4639H131.522V17.8896H130.529C129.773 17.8896 129.179 18.1006 128.745 18.5225C128.317 18.9385 128.104 19.5068 128.104 20.2275V25H125.581ZM136.093 22.2578C136.503 22.7031 137.019 22.9258 137.64 22.9258C138.267 22.9258 138.782 22.7031 139.187 22.2578C139.597 21.8066 139.802 21.1328 139.802 20.2363C139.802 19.334 139.597 18.6572 139.187 18.2061C138.782 17.7549 138.267 17.5293 137.64 17.5293C137.019 17.5293 136.503 17.7549 136.093 18.2061C135.688 18.6572 135.486 19.334 135.486 20.2363C135.486 21.1328 135.688 21.8066 136.093 22.2578ZM138.185 25.1758C137.106 25.1758 136.207 24.7568 135.486 23.9189H135.398L135.126 25H132.964V12.3965H135.486V16.4482H135.574C136.195 15.6689 137.065 15.2793 138.185 15.2793C139.433 15.2793 140.435 15.71 141.19 16.5713C141.946 17.4268 142.324 18.6484 142.324 20.2363C142.324 21.8184 141.946 23.0371 141.19 23.8926C140.435 24.748 139.433 25.1758 138.185 25.1758ZM147.457 23.1104C148.043 23.1104 148.518 22.9463 148.881 22.6182C149.25 22.2842 149.435 21.8477 149.435 21.3086V21.0361H147.281C146.859 21.0361 146.543 21.1299 146.332 21.3174C146.121 21.5049 146.016 21.7422 146.016 22.0293C146.016 22.3516 146.136 22.6123 146.376 22.8115C146.616 23.0107 146.977 23.1104 147.457 23.1104ZM146.824 25.1758C145.805 25.1758 144.993 24.9004 144.39 24.3496C143.792 23.7988 143.493 23.0869 143.493 22.2139C143.493 21.3232 143.815 20.6055 144.46 20.0605C145.104 19.5156 146.013 19.2432 147.185 19.2432H149.435V18.7861C149.435 18.3408 149.291 18.0068 149.004 17.7842C148.717 17.5557 148.321 17.4414 147.817 17.4414C147.472 17.4414 147.17 17.5205 146.912 17.6787C146.654 17.8311 146.476 18.0215 146.376 18.25H143.854C144.059 17.4004 144.501 16.6943 145.181 16.1318C145.86 15.5635 146.769 15.2793 147.905 15.2793C149.177 15.2793 150.17 15.5928 150.885 16.2197C151.6 16.8408 151.957 17.7285 151.957 18.8828V25H149.795L149.531 23.9189H149.435C148.872 24.7568 148.002 25.1758 146.824 25.1758ZM155.104 28.6035L156.562 25L152.678 15.4639H155.464L157.802 21.6689H157.881L160.148 15.4639H162.935L157.714 28.6035H155.104ZM167.971 25.1758C166.518 25.1758 165.375 24.7422 164.543 23.875C163.711 23.0078 163.295 21.7949 163.295 20.2363C163.295 18.6719 163.711 17.4561 164.543 16.5889C165.375 15.7158 166.518 15.2793 167.971 15.2793C169.23 15.2793 170.218 15.5986 170.933 16.2373C171.647 16.8701 172.131 17.6904 172.383 18.6982H169.86C169.474 17.9189 168.844 17.5293 167.971 17.5293C167.32 17.5293 166.796 17.7607 166.397 18.2236C166.005 18.6865 165.809 19.3574 165.809 20.2363C165.809 21.1094 166.008 21.7773 166.406 22.2402C166.805 22.6973 167.326 22.9258 167.971 22.9258C168.85 22.9258 169.479 22.5361 169.86 21.7568H172.383C172.131 22.7646 171.647 23.5879 170.933 24.2266C170.218 24.8594 169.23 25.1758 167.971 25.1758ZM177.428 23.1104C178.014 23.1104 178.488 22.9463 178.852 22.6182C179.221 22.2842 179.405 21.8477 179.405 21.3086V21.0361H177.252C176.83 21.0361 176.514 21.1299 176.303 21.3174C176.092 21.5049 175.986 21.7422 175.986 22.0293C175.986 22.3516 176.106 22.6123 176.347 22.8115C176.587 23.0107 176.947 23.1104 177.428 23.1104ZM176.795 25.1758C175.775 25.1758 174.964 24.9004 174.36 24.3496C173.763 23.7988 173.464 23.0869 173.464 22.2139C173.464 21.3232 173.786 20.6055 174.431 20.0605C175.075 19.5156 175.983 19.2432 177.155 19.2432H179.405V18.7861C179.405 18.3408 179.262 18.0068 178.975 17.7842C178.688 17.5557 178.292 17.4414 177.788 17.4414C177.442 17.4414 177.141 17.5205 176.883 17.6787C176.625 17.8311 176.446 18.0215 176.347 18.25H173.824C174.029 17.4004 174.472 16.6943 175.151 16.1318C175.831 15.5635 176.739 15.2793 177.876 15.2793C179.147 15.2793 180.141 15.5928 180.855 16.2197C181.57 16.8408 181.928 17.7285 181.928 18.8828V25H179.766L179.502 23.9189H179.405C178.843 24.7568 177.973 25.1758 176.795 25.1758ZM183.993 25V15.4639H186.155L186.419 16.5361H186.516C187.166 15.6982 188.004 15.2793 189.029 15.2793C190.084 15.2793 190.934 15.625 191.578 16.3164C192.223 17.0078 192.545 17.9512 192.545 19.1465V25H190.022V19.5068C190.022 18.8857 189.873 18.4023 189.574 18.0566C189.275 17.7051 188.854 17.5293 188.309 17.5293C187.77 17.5293 187.336 17.7139 187.008 18.083C186.68 18.4463 186.516 18.9209 186.516 19.5068V25H183.993ZM198.935 25V12.3965H204.34C205.611 12.3965 206.634 12.7744 207.407 13.5303C208.181 14.2861 208.567 15.2881 208.567 16.5361C208.567 17.1221 208.477 17.6611 208.295 18.1533C208.119 18.6396 207.905 19.0205 207.653 19.2959C207.401 19.5713 207.146 19.8086 206.889 20.0078C206.631 20.2012 206.411 20.3301 206.229 20.3945L205.957 20.5L209.016 25H205.957L203.074 20.6758H201.642V25H198.935ZM201.642 18.25H204.155C204.659 18.25 205.069 18.0977 205.386 17.793C205.708 17.4883 205.869 17.0723 205.869 16.5449C205.869 16.0117 205.708 15.5928 205.386 15.2881C205.069 14.9834 204.659 14.8311 204.155 14.8311H201.642V18.25ZM214.412 25.1758C212.959 25.1758 211.816 24.7422 210.984 23.875C210.152 23.0078 209.736 21.7949 209.736 20.2363C209.736 18.6719 210.152 17.4561 210.984 16.5889C211.816 15.7158 212.959 15.2793 214.412 15.2793C215.795 15.2793 216.905 15.7246 217.743 16.6152C218.581 17.5 219 18.6455 219 20.0518L218.912 21.0361H212.347C212.563 22.2959 213.252 22.9258 214.412 22.9258C214.869 22.9258 215.218 22.8555 215.458 22.7148C215.698 22.5684 215.921 22.3398 216.126 22.0293H218.824C218.572 22.9434 218.086 23.6963 217.365 24.2881C216.645 24.8799 215.66 25.1758 214.412 25.1758ZM212.347 19.1465H216.39C216.296 18.6895 216.076 18.3057 215.73 17.9951C215.391 17.6846 214.951 17.5293 214.412 17.5293C213.357 17.5293 212.669 18.0684 212.347 19.1465ZM224.221 25.1758C222.914 25.1758 221.918 24.8857 221.232 24.3057C220.553 23.7256 220.14 22.9668 219.993 22.0293H222.691C222.738 22.2695 222.899 22.4805 223.175 22.6621C223.456 22.8379 223.805 22.9258 224.221 22.9258C225.299 22.9258 225.841 22.6885 225.847 22.2139C225.847 21.9971 225.709 21.8242 225.434 21.6953C225.164 21.5605 224.824 21.4668 224.414 21.4141C224.01 21.3555 223.57 21.2617 223.096 21.1328C222.621 20.998 222.179 20.8398 221.769 20.6582C221.364 20.4707 221.027 20.1631 220.758 19.7354C220.488 19.3076 220.354 18.7832 220.354 18.1621C220.354 17.3242 220.69 16.6357 221.364 16.0967C222.044 15.5518 222.996 15.2793 224.221 15.2793C225.492 15.2793 226.465 15.5518 227.139 16.0967C227.812 16.6416 228.22 17.3594 228.36 18.25H225.662C225.545 17.7695 225.064 17.5293 224.221 17.5293C223.822 17.5293 223.512 17.5908 223.289 17.7139C223.072 17.8311 222.964 17.9805 222.964 18.1621C222.964 18.3789 223.099 18.5547 223.368 18.6895C223.638 18.8184 223.975 18.9092 224.379 18.9619C224.789 19.0146 225.231 19.1084 225.706 19.2432C226.181 19.3721 226.62 19.5303 227.024 19.7178C227.435 19.9053 227.774 20.2129 228.044 20.6406C228.319 21.0625 228.457 21.5869 228.457 22.2139C228.457 23.0752 228.126 23.7842 227.464 24.3408C226.802 24.8975 225.721 25.1758 224.221 25.1758ZM229.978 28.6035V15.4639H232.14L232.403 16.5361H232.5C233.221 15.6982 234.12 15.2793 235.198 15.2793C236.446 15.2793 237.448 15.71 238.204 16.5713C238.96 17.4268 239.338 18.6484 239.338 20.2363C239.338 21.8184 238.96 23.0371 238.204 23.8926C237.448 24.748 236.446 25.1758 235.198 25.1758C234.085 25.1758 233.215 24.7861 232.588 24.0068H232.5V28.6035H229.978ZM233.106 22.2578C233.517 22.7031 234.032 22.9258 234.653 22.9258C235.28 22.9258 235.796 22.7031 236.2 22.2578C236.61 21.8066 236.815 21.1328 236.815 20.2363C236.815 19.334 236.61 18.6572 236.2 18.2061C235.796 17.7549 235.28 17.5293 234.653 17.5293C234.032 17.5293 233.517 17.7549 233.106 18.2061C232.702 18.6572 232.5 19.334 232.5 20.2363C232.5 21.1328 232.702 21.8066 233.106 22.2578ZM244.559 25.1758C243.504 25.1758 242.654 24.833 242.01 24.1475C241.371 23.4561 241.052 22.5098 241.052 21.3086V15.4639H243.574V20.9482C243.574 21.5693 243.724 22.0557 244.022 22.4072C244.321 22.7529 244.74 22.9258 245.279 22.9258C245.818 22.9258 246.252 22.7441 246.58 22.3809C246.914 22.0176 247.081 21.54 247.081 20.9482V15.4639H249.604V25H247.441L247.169 23.9189H247.081C246.431 24.7568 245.59 25.1758 244.559 25.1758ZM254.974 22.2578C255.384 22.7031 255.899 22.9258 256.521 22.9258C257.147 22.9258 257.663 22.7031 258.067 22.2578C258.478 21.8066 258.683 21.1328 258.683 20.2363C258.683 19.334 258.478 18.6572 258.067 18.2061C257.663 17.7549 257.147 17.5293 256.521 17.5293C255.899 17.5293 255.384 17.7549 254.974 18.2061C254.569 18.6572 254.367 19.334 254.367 20.2363C254.367 21.1328 254.569 21.8066 254.974 22.2578ZM257.065 25.1758C255.987 25.1758 255.088 24.7568 254.367 23.9189H254.279L254.007 25H251.845V12.3965H254.367V16.4482H254.455C255.076 15.6689 255.946 15.2793 257.065 15.2793C258.313 15.2793 259.315 15.71 260.071 16.5713C260.827 17.4268 261.205 18.6484 261.205 20.2363C261.205 21.8184 260.827 23.0371 260.071 23.8926C259.315 24.748 258.313 25.1758 257.065 25.1758ZM263.007 25V12.3965H265.529V25H263.007ZM267.771 25V15.4639H270.293V25H267.771ZM270.056 14.0576C269.78 14.333 269.438 14.4707 269.027 14.4707C268.623 14.4707 268.28 14.333 267.999 14.0576C267.724 13.7822 267.586 13.4395 267.586 13.0293C267.586 12.6191 267.724 12.2764 267.999 12.001C268.28 11.7256 268.623 11.5879 269.027 11.5879C269.438 11.5879 269.78 11.7256 270.056 12.001C270.331 12.2764 270.469 12.6191 270.469 13.0293C270.469 13.4395 270.331 13.7822 270.056 14.0576ZM272.534 25V12.3965H275.057V19.6914L278.563 15.4639H281.534L277.667 20.1396L281.807 25H278.836L275.057 20.5879V25H272.534ZM285.762 23.1104C286.348 23.1104 286.822 22.9463 287.186 22.6182C287.555 22.2842 287.739 21.8477 287.739 21.3086V21.0361H285.586C285.164 21.0361 284.848 21.1299 284.637 21.3174C284.426 21.5049 284.32 21.7422 284.32 22.0293C284.32 22.3516 284.44 22.6123 284.681 22.8115C284.921 23.0107 285.281 23.1104 285.762 23.1104ZM285.129 25.1758C284.109 25.1758 283.298 24.9004 282.694 24.3496C282.097 23.7988 281.798 23.0869 281.798 22.2139C281.798 21.3232 282.12 20.6055 282.765 20.0605C283.409 19.5156 284.317 19.2432 285.489 19.2432H287.739V18.7861C287.739 18.3408 287.596 18.0068 287.309 17.7842C287.021 17.5557 286.626 17.4414 286.122 17.4414C285.776 17.4414 285.475 17.5205 285.217 17.6787C284.959 17.8311 284.78 18.0215 284.681 18.25H282.158C282.363 17.4004 282.806 16.6943 283.485 16.1318C284.165 15.5635 285.073 15.2793 286.21 15.2793C287.481 15.2793 288.475 15.5928 289.189 16.2197C289.904 16.8408 290.262 17.7285 290.262 18.8828V25H288.1L287.836 23.9189H287.739C287.177 24.7568 286.307 25.1758 285.129 25.1758ZM295.834 25.1758C294.527 25.1758 293.531 24.8857 292.846 24.3057C292.166 23.7256 291.753 22.9668 291.606 22.0293H294.305C294.352 22.2695 294.513 22.4805 294.788 22.6621C295.069 22.8379 295.418 22.9258 295.834 22.9258C296.912 22.9258 297.454 22.6885 297.46 22.2139C297.46 21.9971 297.322 21.8242 297.047 21.6953C296.777 21.5605 296.438 21.4668 296.027 21.4141C295.623 21.3555 295.184 21.2617 294.709 21.1328C294.234 20.998 293.792 20.8398 293.382 20.6582C292.978 20.4707 292.641 20.1631 292.371 19.7354C292.102 19.3076 291.967 18.7832 291.967 18.1621C291.967 17.3242 292.304 16.6357 292.978 16.0967C293.657 15.5518 294.609 15.2793 295.834 15.2793C297.105 15.2793 298.078 15.5518 298.752 16.0967C299.426 16.6416 299.833 17.3594 299.974 18.25H297.275C297.158 17.7695 296.678 17.5293 295.834 17.5293C295.436 17.5293 295.125 17.5908 294.902 17.7139C294.686 17.8311 294.577 17.9805 294.577 18.1621C294.577 18.3789 294.712 18.5547 294.981 18.6895C295.251 18.8184 295.588 18.9092 295.992 18.9619C296.402 19.0146 296.845 19.1084 297.319 19.2432C297.794 19.3721 298.233 19.5303 298.638 19.7178C299.048 19.9053 299.388 20.2129 299.657 20.6406C299.933 21.0625 300.07 21.5869 300.07 22.2139C300.07 23.0752 299.739 23.7842 299.077 24.3408C298.415 24.8975 297.334 25.1758 295.834 25.1758ZM301.591 25V15.4639H304.113V25H301.591ZM94.2568 49V36.3965H98.2207L101.191 45.1328H101.279L104.25 36.3965H108.214V49H105.507V40.0879H105.419L102.36 49H100.11L97.0518 40.0879H96.9639V49H94.2568ZM113.971 47.1104C114.557 47.1104 115.031 46.9463 115.395 46.6182C115.764 46.2842 115.948 45.8477 115.948 45.3086V45.0361H113.795C113.373 45.0361 113.057 45.1299 112.846 45.3174C112.635 45.5049 112.529 45.7422 112.529 46.0293C112.529 46.3516 112.649 46.6123 112.89 46.8115C113.13 47.0107 113.49 47.1104 113.971 47.1104ZM113.338 49.1758C112.318 49.1758 111.507 48.9004 110.903 48.3496C110.306 47.7988 110.007 47.0869 110.007 46.2139C110.007 45.3232 110.329 44.6055 110.974 44.0605C111.618 43.5156 112.526 43.2432 113.698 43.2432H115.948V42.7861C115.948 42.3408 115.805 42.0068 115.518 41.7842C115.23 41.5557 114.835 41.4414 114.331 41.4414C113.985 41.4414 113.684 41.5205 113.426 41.6787C113.168 41.8311 112.989 42.0215 112.89 42.25H110.367C110.572 41.4004 111.015 40.6943 111.694 40.1318C112.374 39.5635 113.282 39.2793 114.419 39.2793C115.69 39.2793 116.684 39.5928 117.398 40.2197C118.113 40.8408 118.471 41.7285 118.471 42.8828V49H116.309L116.045 47.9189H115.948C115.386 48.7568 114.516 49.1758 113.338 49.1758ZM120.624 49V36.3965H123.146V49H120.624ZM125.388 49V39.4639H127.91V49H125.388ZM127.673 38.0576C127.397 38.333 127.055 38.4707 126.645 38.4707C126.24 38.4707 125.897 38.333 125.616 38.0576C125.341 37.7822 125.203 37.4395 125.203 37.0293C125.203 36.6191 125.341 36.2764 125.616 36.001C125.897 35.7256 126.24 35.5879 126.645 35.5879C127.055 35.5879 127.397 35.7256 127.673 36.001C127.948 36.2764 128.086 36.6191 128.086 37.0293C128.086 37.4395 127.948 37.7822 127.673 38.0576ZM131.32 52.6035L132.779 49L128.895 39.4639H131.681L134.019 45.6689H134.098L136.365 39.4639H139.151L133.931 52.6035H131.32ZM141.393 52.6035L142.852 49L138.967 39.4639H141.753L144.091 45.6689H144.17L146.438 39.4639H149.224L144.003 52.6035H141.393ZM154.172 46.9258C155.227 46.9258 155.915 46.3867 156.237 45.3086H152.194C152.288 45.7656 152.505 46.1494 152.845 46.46C153.19 46.7705 153.633 46.9258 154.172 46.9258ZM154.172 49.1758C152.789 49.1758 151.679 48.7334 150.841 47.8486C150.003 46.958 149.584 45.8125 149.584 44.4121L149.672 43.4189H156.237C156.144 42.8447 155.924 42.3877 155.578 42.0479C155.238 41.7021 154.77 41.5293 154.172 41.5293C153.715 41.5293 153.366 41.6025 153.126 41.749C152.886 41.8896 152.663 42.1152 152.458 42.4258H149.76C150.012 41.5117 150.498 40.7588 151.219 40.167C151.939 39.5752 152.924 39.2793 154.172 39.2793C155.625 39.2793 156.768 39.7158 157.6 40.5889C158.432 41.4561 158.848 42.6719 158.848 44.2363C158.848 45.7949 158.432 47.0078 157.6 47.875C156.768 48.7422 155.625 49.1758 154.172 49.1758ZM164.886 49V36.3965H168.401L173.165 45.0361H173.262V36.3965H175.96V49H172.453L167.681 40.3604H167.593V49H164.886ZM181.717 47.1104C182.303 47.1104 182.777 46.9463 183.141 46.6182C183.51 46.2842 183.694 45.8477 183.694 45.3086V45.0361H181.541C181.119 45.0361 180.803 45.1299 180.592 45.3174C180.381 45.5049 180.275 45.7422 180.275 46.0293C180.275 46.3516 180.396 46.6123 180.636 46.8115C180.876 47.0107 181.236 47.1104 181.717 47.1104ZM181.084 49.1758C180.064 49.1758 179.253 48.9004 178.649 48.3496C178.052 47.7988 177.753 47.0869 177.753 46.2139C177.753 45.3232 178.075 44.6055 178.72 44.0605C179.364 43.5156 180.272 43.2432 181.444 43.2432H183.694V42.7861C183.694 42.3408 183.551 42.0068 183.264 41.7842C182.977 41.5557 182.581 41.4414 182.077 41.4414C181.731 41.4414 181.43 41.5205 181.172 41.6787C180.914 41.8311 180.735 42.0215 180.636 42.25H178.113C178.318 41.4004 178.761 40.6943 179.44 40.1318C180.12 39.5635 181.028 39.2793 182.165 39.2793C183.437 39.2793 184.43 39.5928 185.145 40.2197C185.859 40.8408 186.217 41.7285 186.217 42.8828V49H184.055L183.791 47.9189H183.694C183.132 48.7568 182.262 49.1758 181.084 49.1758ZM187.737 49V47.1104L192.149 41.7139H187.922V39.4639H195.393V41.3535L190.98 46.75H195.48V49H187.737ZM197.106 49V39.4639H199.629V49H197.106ZM199.392 38.0576C199.116 38.333 198.773 38.4707 198.363 38.4707C197.959 38.4707 197.616 38.333 197.335 38.0576C197.06 37.7822 196.922 37.4395 196.922 37.0293C196.922 36.6191 197.06 36.2764 197.335 36.001C197.616 35.7256 197.959 35.5879 198.363 35.5879C198.773 35.5879 199.116 35.7256 199.392 36.001C199.667 36.2764 199.805 36.6191 199.805 37.0293C199.805 37.4395 199.667 37.7822 199.392 38.0576ZM201.782 49V39.4639H203.944L204.208 40.5361H204.305C204.785 39.8154 205.535 39.458 206.555 39.4639H207.724V41.8896H206.73C205.975 41.8896 205.38 42.1006 204.946 42.5225C204.519 42.9385 204.305 43.5068 204.305 44.2275V49H201.782ZM209.165 49V36.3965H211.688V49H209.165ZM213.929 49V39.4639H216.451V49H213.929ZM216.214 38.0576C215.938 38.333 215.596 38.4707 215.186 38.4707C214.781 38.4707 214.438 38.333 214.157 38.0576C213.882 37.7822 213.744 37.4395 213.744 37.0293C213.744 36.6191 213.882 36.2764 214.157 36.001C214.438 35.7256 214.781 35.5879 215.186 35.5879C215.596 35.5879 215.938 35.7256 216.214 36.001C216.489 36.2764 216.627 36.6191 216.627 37.0293C216.627 37.4395 216.489 37.7822 216.214 38.0576ZM219.861 52.6035L221.32 49L217.436 39.4639H220.222L222.56 45.6689H222.639L224.906 39.4639H227.692L222.472 52.6035H219.861ZM228.677 49V39.4639H231.199V49H228.677ZM230.962 38.0576C230.687 38.333 230.344 38.4707 229.934 38.4707C229.529 38.4707 229.187 38.333 228.905 38.0576C228.63 37.7822 228.492 37.4395 228.492 37.0293C228.492 36.6191 228.63 36.2764 228.905 36.001C229.187 35.7256 229.529 35.5879 229.934 35.5879C230.344 35.5879 230.687 35.7256 230.962 36.001C231.237 36.2764 231.375 36.6191 231.375 37.0293C231.375 37.4395 231.237 37.7822 230.962 38.0576ZM94.2568 73V60.3965H99.1172C100.881 60.3965 102.281 60.9561 103.318 62.0752C104.361 63.1885 104.883 64.7295 104.883 66.6982C104.883 68.667 104.361 70.2109 103.318 71.3301C102.281 72.4434 100.881 73 99.1172 73H94.2568ZM96.9639 70.5742H99.0293C99.9434 70.5742 100.696 70.2402 101.288 69.5723C101.88 68.9043 102.176 67.9463 102.176 66.6982C102.176 65.4502 101.88 64.4951 101.288 63.833C100.696 63.165 99.9434 62.8311 99.0293 62.8311H96.9639V70.5742ZM114.34 71.875C113.508 72.7422 112.365 73.1758 110.912 73.1758C109.459 73.1758 108.316 72.7422 107.484 71.875C106.652 71.0078 106.236 69.7949 106.236 68.2363C106.236 66.6719 106.652 65.4561 107.484 64.5889C108.316 63.7158 109.459 63.2793 110.912 63.2793C112.365 63.2793 113.508 63.7158 114.34 64.5889C115.178 65.4561 115.597 66.6719 115.597 68.2363C115.597 69.7949 115.178 71.0078 114.34 71.875ZM109.365 70.2578C109.775 70.7031 110.291 70.9258 110.912 70.9258C111.539 70.9258 112.055 70.7031 112.459 70.2578C112.869 69.8066 113.074 69.1328 113.074 68.2363C113.074 67.334 112.869 66.6572 112.459 66.2061C112.055 65.7549 111.539 65.5293 110.912 65.5293C110.291 65.5293 109.775 65.7549 109.365 66.2061C108.955 66.6572 108.75 67.334 108.75 68.2363C108.75 69.1328 108.955 69.8066 109.365 70.2578ZM110.016 61.5742C109.775 61.8086 109.474 61.9258 109.11 61.9258C108.753 61.9258 108.454 61.8086 108.214 61.5742C107.974 61.334 107.854 61.0352 107.854 60.6777C107.854 60.3145 107.974 60.0127 108.214 59.7725C108.454 59.5322 108.753 59.4121 109.11 59.4121C109.474 59.4121 109.775 59.5322 110.016 59.7725C110.256 60.0127 110.376 60.3145 110.376 60.6777C110.376 61.0352 110.256 61.334 110.016 61.5742ZM113.61 61.5742C113.37 61.8086 113.071 61.9258 112.714 61.9258C112.356 61.9258 112.058 61.8086 111.817 61.5742C111.577 61.334 111.457 61.0352 111.457 60.6777C111.457 60.3145 111.577 60.0127 111.817 59.7725C112.058 59.5322 112.356 59.4121 112.714 59.4121C113.071 59.4121 113.37 59.5322 113.61 59.7725C113.851 60.0127 113.971 60.3145 113.971 60.6777C113.971 61.0352 113.851 61.334 113.61 61.5742ZM119.376 73L116.045 63.4639H118.743L120.905 70.3896H120.993L123.155 63.4639H125.854L122.522 73H119.376ZM127.022 73V60.3965H129.545V73H127.022ZM135.926 70.9258C136.98 70.9258 137.669 70.3867 137.991 69.3086H133.948C134.042 69.7656 134.259 70.1494 134.599 70.46C134.944 70.7705 135.387 70.9258 135.926 70.9258ZM135.926 73.1758C134.543 73.1758 133.433 72.7334 132.595 71.8486C131.757 70.958 131.338 69.8125 131.338 68.4121L131.426 67.4189H137.991C137.897 66.8447 137.678 66.3877 137.332 66.0479C136.992 65.7021 136.523 65.5293 135.926 65.5293C135.469 65.5293 135.12 65.6025 134.88 65.749C134.64 65.8896 134.417 66.1152 134.212 66.4258H131.514C131.766 65.5117 132.252 64.7588 132.973 64.167C133.693 63.5752 134.678 63.2793 135.926 63.2793C137.379 63.2793 138.521 63.7158 139.354 64.5889C140.186 65.4561 140.602 66.6719 140.602 68.2363C140.602 69.7949 140.186 71.0078 139.354 71.875C138.521 72.7422 137.379 73.1758 135.926 73.1758ZM146.095 73C144.114 73 143.124 72.0713 143.124 70.2139V65.8018H141.595V63.4639H143.124L143.484 60.9414H145.646V63.4639H147.896V65.8018H145.646V69.7568C145.646 70.0205 145.726 70.2373 145.884 70.4072C146.048 70.5771 146.268 70.6621 146.543 70.6621H147.896V73H146.095ZM152.045 73L156.185 66.5225L152.221 60.3965H155.279L157.89 64.7207L160.5 60.3965H163.559L159.604 66.5225L163.743 73H160.685L157.89 68.3242L155.104 73H152.045ZM168.41 70.9258C169.465 70.9258 170.153 70.3867 170.476 69.3086H166.433C166.526 69.7656 166.743 70.1494 167.083 70.46C167.429 70.7705 167.871 70.9258 168.41 70.9258ZM168.41 73.1758C167.027 73.1758 165.917 72.7334 165.079 71.8486C164.241 70.958 163.822 69.8125 163.822 68.4121L163.91 67.4189H170.476C170.382 66.8447 170.162 66.3877 169.816 66.0479C169.477 65.7021 169.008 65.5293 168.41 65.5293C167.953 65.5293 167.604 65.6025 167.364 65.749C167.124 65.8896 166.901 66.1152 166.696 66.4258H163.998C164.25 65.5117 164.736 64.7588 165.457 64.167C166.178 63.5752 167.162 63.2793 168.41 63.2793C169.863 63.2793 171.006 63.7158 171.838 64.5889C172.67 65.4561 173.086 66.6719 173.086 68.2363C173.086 69.7949 172.67 71.0078 171.838 71.875C171.006 72.7422 169.863 73.1758 168.41 73.1758ZM174.255 73V71.1104L178.667 65.7139H174.439V63.4639H181.91V65.3535L177.498 70.75H181.998V73H174.255ZM183.624 73V63.4639H186.146V73H183.624ZM185.909 62.0576C185.634 62.333 185.291 62.4707 184.881 62.4707C184.477 62.4707 184.134 62.333 183.853 62.0576C183.577 61.7822 183.439 61.4395 183.439 61.0293C183.439 60.6191 183.577 60.2764 183.853 60.001C184.134 59.7256 184.477 59.5879 184.881 59.5879C185.291 59.5879 185.634 59.7256 185.909 60.001C186.185 60.2764 186.322 60.6191 186.322 61.0293C186.322 61.4395 186.185 61.7822 185.909 62.0576ZM188.3 73V63.4639H190.462L190.726 64.5361H190.822C191.473 63.6982 192.311 63.2793 193.336 63.2793C194.391 63.2793 195.24 63.625 195.885 64.3164C196.529 65.0078 196.852 65.9512 196.852 67.1465V73H194.329V67.5068C194.329 66.8857 194.18 66.4023 193.881 66.0566C193.582 65.7051 193.16 65.5293 192.615 65.5293C192.076 65.5293 191.643 65.7139 191.314 66.083C190.986 66.4463 190.822 66.9209 190.822 67.5068V73H188.3ZM203.057 70.9258C204.111 70.9258 204.8 70.3867 205.122 69.3086H201.079C201.173 69.7656 201.39 70.1494 201.729 70.46C202.075 70.7705 202.518 70.9258 203.057 70.9258ZM203.057 73.1758C201.674 73.1758 200.563 72.7334 199.726 71.8486C198.888 70.958 198.469 69.8125 198.469 68.4121L198.557 67.4189H205.122C205.028 66.8447 204.809 66.3877 204.463 66.0479C204.123 65.7021 203.654 65.5293 203.057 65.5293C202.6 65.5293 202.251 65.6025 202.011 65.749C201.771 65.8896 201.548 66.1152 201.343 66.4258H198.645C198.896 65.5117 199.383 64.7588 200.104 64.167C200.824 63.5752 201.809 63.2793 203.057 63.2793C204.51 63.2793 205.652 63.7158 206.484 64.5889C207.316 65.4561 207.732 66.6719 207.732 68.2363C207.732 69.7949 207.316 71.0078 206.484 71.875C205.652 72.7422 204.51 73.1758 203.057 73.1758ZM212.127 70.2578C212.537 70.7031 213.053 70.9258 213.674 70.9258C214.301 70.9258 214.816 70.7031 215.221 70.2578C215.631 69.8066 215.836 69.1328 215.836 68.2363C215.836 67.334 215.631 66.6572 215.221 66.2061C214.816 65.7549 214.301 65.5293 213.674 65.5293C213.053 65.5293 212.537 65.7549 212.127 66.2061C211.717 66.6572 211.512 67.334 211.512 68.2363C211.512 69.1328 211.717 69.8066 212.127 70.2578ZM213.138 73.1758C211.89 73.1758 210.888 72.748 210.132 71.8926C209.376 71.0371 208.998 69.8184 208.998 68.2363C208.998 66.6484 209.376 65.4268 210.132 64.5713C210.888 63.71 211.89 63.2793 213.138 63.2793C214.251 63.2793 215.121 63.6689 215.748 64.4482H215.836V60.3965H218.358V73H216.196L215.924 71.9189H215.836C215.115 72.7568 214.216 73.1758 213.138 73.1758ZM224.027 71.1104C224.613 71.1104 225.088 70.9463 225.451 70.6182C225.82 70.2842 226.005 69.8477 226.005 69.3086V69.0361H223.852C223.43 69.0361 223.113 69.1299 222.902 69.3174C222.691 69.5049 222.586 69.7422 222.586 70.0293C222.586 70.3516 222.706 70.6123 222.946 70.8115C223.187 71.0107 223.547 71.1104 224.027 71.1104ZM223.395 73.1758C222.375 73.1758 221.563 72.9004 220.96 72.3496C220.362 71.7988 220.063 71.0869 220.063 70.2139C220.063 69.3232 220.386 68.6055 221.03 68.0605C221.675 67.5156 222.583 67.2432 223.755 67.2432H226.005V66.7861C226.005 66.3408 225.861 66.0068 225.574 65.7842C225.287 65.5557 224.892 65.4414 224.388 65.4414C224.042 65.4414 223.74 65.5205 223.482 65.6787C223.225 65.8311 223.046 66.0215 222.946 66.25H220.424C220.629 65.4004 221.071 64.6943 221.751 64.1318C222.431 63.5635 223.339 63.2793 224.476 63.2793C225.747 63.2793 226.74 63.5928 227.455 64.2197C228.17 64.8408 228.527 65.7285 228.527 66.8828V73H226.365L226.102 71.9189H226.005C225.442 72.7568 224.572 73.1758 223.395 73.1758ZM230.593 73V63.4639H232.755L233.019 64.5361H233.115C233.596 63.8154 234.346 63.458 235.365 63.4639H236.534V65.8896H235.541C234.785 65.8896 234.19 66.1006 233.757 66.5225C233.329 66.9385 233.115 67.5068 233.115 68.2275V73H230.593ZM237.976 73V60.3965H240.498V73H237.976ZM242.739 73V63.4639H245.262V73H242.739ZM251.643 76.6035C249.182 76.6035 247.682 75.5225 247.143 73.3604H249.753C249.946 74.0225 250.576 74.3535 251.643 74.3535C252.264 74.3535 252.747 74.2012 253.093 73.8965C253.444 73.5977 253.62 73.1787 253.62 72.6396V71.2861H253.532C253.304 71.5732 252.967 71.8428 252.521 72.0947C252.082 72.3408 251.578 72.4639 251.01 72.4639C249.773 72.4639 248.789 72.0654 248.057 71.2686C247.33 70.4658 246.967 69.332 246.967 67.8672C246.967 66.4023 247.333 65.2715 248.065 64.4746C248.798 63.6777 249.779 63.2793 251.01 63.2793C252.029 63.2793 252.899 63.6982 253.62 64.5361H253.717L253.98 63.4639H256.143V72.6396C256.143 73.9229 255.768 74.9043 255.018 75.584C254.268 76.2637 253.143 76.6035 251.643 76.6035ZM250.034 69.5811C250.409 70.0029 250.913 70.2139 251.546 70.2139C252.185 70.2139 252.688 70.0029 253.058 69.5811C253.433 69.1592 253.62 68.5879 253.62 67.8672C253.62 67.1465 253.433 66.5781 253.058 66.1621C252.688 65.7402 252.185 65.5293 251.546 65.5293C250.913 65.5293 250.409 65.7402 250.034 66.1621C249.665 66.5781 249.48 67.1465 249.48 67.8672C249.48 68.5879 249.665 69.1592 250.034 69.5811ZM253.901 61.3545C253.333 61.7998 252.639 62.0225 251.818 62.0225C251.004 62.0225 250.312 61.7969 249.744 61.3457C249.176 60.8945 248.848 60.2207 248.76 59.3242H250.562C250.644 60.0449 251.062 60.4053 251.818 60.4053C252.58 60.3994 253.002 60.0391 253.084 59.3242H254.886C254.804 60.2266 254.476 60.9033 253.901 61.3545ZM258.313 73V63.4639H260.836V73H258.313ZM265.424 73L269.924 60.3965H273.255L277.755 73H274.96L274.151 70.6621H269.019L268.21 73H265.424ZM269.906 68.2275H273.272L271.629 63.4639H271.541L269.906 68.2275ZM282.598 76.6035C280.137 76.6035 278.637 75.5225 278.098 73.3604H280.708C280.901 74.0225 281.531 74.3535 282.598 74.3535C283.219 74.3535 283.702 74.2012 284.048 73.8965C284.399 73.5977 284.575 73.1787 284.575 72.6396V71.2861H284.487C284.259 71.5732 283.922 71.8428 283.477 72.0947C283.037 72.3408 282.533 72.4639 281.965 72.4639C280.729 72.4639 279.744 72.0654 279.012 71.2686C278.285 70.4658 277.922 69.332 277.922 67.8672C277.922 66.4023 278.288 65.2715 279.021 64.4746C279.753 63.6777 280.734 63.2793 281.965 63.2793C282.984 63.2793 283.854 63.6982 284.575 64.5361H284.672L284.936 63.4639H287.098V72.6396C287.098 73.9229 286.723 74.9043 285.973 75.584C285.223 76.2637 284.098 76.6035 282.598 76.6035ZM280.989 69.5811C281.364 70.0029 281.868 70.2139 282.501 70.2139C283.14 70.2139 283.644 70.0029 284.013 69.5811C284.388 69.1592 284.575 68.5879 284.575 67.8672C284.575 67.1465 284.388 66.5781 284.013 66.1621C283.644 65.7402 283.14 65.5293 282.501 65.5293C281.868 65.5293 281.364 65.7402 280.989 66.1621C280.62 66.5781 280.436 67.1465 280.436 67.8672C280.436 68.5879 280.62 69.1592 280.989 69.5811ZM293.496 73.1758C292.043 73.1758 290.9 72.7422 290.068 71.875C289.236 71.0078 288.82 69.7949 288.82 68.2363C288.82 66.6719 289.236 65.4561 290.068 64.5889C290.9 63.7158 292.043 63.2793 293.496 63.2793C294.879 63.2793 295.989 63.7246 296.827 64.6152C297.665 65.5 298.084 66.6455 298.084 68.0518L297.996 69.0361H291.431C291.647 70.2959 292.336 70.9258 293.496 70.9258C293.953 70.9258 294.302 70.8555 294.542 70.7148C294.782 70.5684 295.005 70.3398 295.21 70.0293H297.908C297.656 70.9434 297.17 71.6963 296.449 72.2881C295.729 72.8799 294.744 73.1758 293.496 73.1758ZM291.431 67.1465H295.474C295.38 66.6895 295.16 66.3057 294.814 65.9951C294.475 65.6846 294.035 65.5293 293.496 65.5293C292.441 65.5293 291.753 66.0684 291.431 67.1465ZM299.798 73V63.4639H301.96L302.224 64.5361H302.32C302.971 63.6982 303.809 63.2793 304.834 63.2793C305.889 63.2793 306.738 63.625 307.383 64.3164C308.027 65.0078 308.35 65.9512 308.35 67.1465V73H305.827V67.5068C305.827 66.8857 305.678 66.4023 305.379 66.0566C305.08 65.7051 304.658 65.5293 304.113 65.5293C303.574 65.5293 303.141 65.7139 302.812 66.083C302.484 66.4463 302.32 66.9209 302.32 67.5068V73H299.798ZM314.194 73C312.214 73 311.224 72.0713 311.224 70.2139V65.8018H309.694V63.4639H311.224L311.584 60.9414H313.746V63.4639H315.996V65.8018H313.746V69.7568C313.746 70.0205 313.825 70.2373 313.983 70.4072C314.147 70.5771 314.367 70.6621 314.643 70.6621H315.996V73H314.194ZM317.886 73V60.3965H320.408V73H317.886ZM322.649 73V63.4639H325.172V73H322.649ZM324.935 62.0576C324.659 62.333 324.316 62.4707 323.906 62.4707C323.502 62.4707 323.159 62.333 322.878 62.0576C322.603 61.7822 322.465 61.4395 322.465 61.0293C322.465 60.6191 322.603 60.2764 322.878 60.001C323.159 59.7256 323.502 59.5879 323.906 59.5879C324.316 59.5879 324.659 59.7256 324.935 60.001C325.21 60.2764 325.348 60.6191 325.348 61.0293C325.348 61.4395 325.21 61.7822 324.935 62.0576ZM328.582 76.6035L330.041 73L326.156 63.4639H328.942L331.28 69.6689H331.359L333.627 63.4639H336.413L331.192 76.6035H328.582ZM337.397 73V63.4639H339.92V73H337.397ZM339.683 62.0576C339.407 62.333 339.064 62.4707 338.654 62.4707C338.25 62.4707 337.907 62.333 337.626 62.0576C337.351 61.7822 337.213 61.4395 337.213 61.0293C337.213 60.6191 337.351 60.2764 337.626 60.001C337.907 59.7256 338.25 59.5879 338.654 59.5879C339.064 59.5879 339.407 59.7256 339.683 60.001C339.958 60.2764 340.096 60.6191 340.096 61.0293C340.096 61.4395 339.958 61.7822 339.683 62.0576Z" fill="white"/>
<defs>
<clipPath id="clip0_22_733">
<rect width="77" height="84" fill="white"/>
</clipPath>
</defs>
</svg>
