<svg width="32" height="32" viewBox="0 0 32 32" fill="none" xmlns="http://www.w3.org/2000/svg">
<g clip-path="url(#clip0_1714_13839)">
<path d="M30.9778 8.59049L30.9778 8.59047L22.8253 0.119283L22.8253 0.119253C22.6904 -0.0208047 22.5043 -0.1 22.3098 -0.1H10.1592C8.7442 -0.1 7.59308 1.05061 7.59308 2.46513V10.9769H2.76889C1.69631 10.9769 0.823828 11.8491 0.823828 12.9215V22.1555C0.823828 23.2278 1.69632 24.1 2.76889 24.1H7.59308V29.5392C7.59308 30.9515 8.74437 32.1 10.1592 32.1H28.6116C30.0264 32.1 31.1777 30.9522 31.1777 29.5406V9.08656C31.1777 8.90156 31.106 8.72378 30.9778 8.59049ZM28.9197 8.51537H22.5623V1.90944L28.9197 8.51537ZM2.76889 22.6693C2.4853 22.6693 2.25464 22.4386 2.25464 22.1555V12.9215C2.25464 12.6384 2.48537 12.4077 2.76889 12.4077H19.3865C19.6701 12.4077 19.9008 12.6384 19.9008 12.9215V22.1555C19.9008 22.4386 19.6701 22.6693 19.3865 22.6693H2.76889ZM29.7469 29.5406C29.7469 30.1623 29.238 30.6693 28.6115 30.6693H10.1592C9.53283 30.6693 9.02383 30.1619 9.02383 29.5392V24.1H19.3865C20.4591 24.1 21.3316 23.2278 21.3316 22.1555V12.9215C21.3316 11.8491 20.4591 10.9769 19.3865 10.9769H9.02383V2.46513C9.02383 1.83975 9.53316 1.33075 10.1592 1.33075H21.1315V9.23075C21.1315 9.62586 21.4519 9.94613 21.8469 9.94613H29.7469V29.5406Z" fill="#344054" stroke="#344054" stroke-width="0.2"/>
<path d="M8.01794 18.0695C8.21412 17.9331 8.37378 17.7467 8.49804 17.5134C8.62551 17.2742 8.68648 16.9841 8.68648 16.6479V16.6479C8.68641 16.2109 8.58005 15.8447 8.35918 15.5575C8.14243 15.2757 7.87047 15.0897 7.54472 15.0044C7.33245 14.9475 6.89575 14.9217 6.24986 14.9217H4.53711H4.43711V15.0217V20.3078V20.4078H4.53711H5.60442H5.70442V20.3078V18.4138H6.30036C6.78552 18.4138 7.16228 18.3885 7.42679 18.3361L7.4268 18.3361L7.42865 18.3357C7.63078 18.2917 7.82726 18.2021 8.01794 18.0695ZM8.01794 18.0695L7.96085 17.9874L8.01795 18.0695C8.01795 18.0695 8.01794 18.0695 8.01794 18.0695ZM6.18854 17.316H5.70442V16.016H6.12004C6.5062 16.016 6.75282 16.0283 6.86948 16.0503L6.86948 16.0503L6.87027 16.0504C7.02261 16.078 7.14548 16.1456 7.2429 16.2535L7.24292 16.2535C7.33695 16.3575 7.3866 16.4911 7.3866 16.6623V16.6624C7.38666 16.8004 7.35137 16.9174 7.28329 17.017C7.21494 17.117 7.12043 17.1913 6.99597 17.2399C6.93794 17.2625 6.84306 17.2822 6.70519 17.2957C6.56898 17.3091 6.39703 17.316 6.18854 17.316Z" fill="#344054" stroke="#344054" stroke-width="0.2"/>
<path d="M12.444 15.0267V15.0267L12.4437 15.0267C12.1993 14.9554 11.8526 14.9217 11.4097 14.9217H9.45898H9.35898V15.0217V20.3078V20.4078H9.45898H11.4674C11.8666 20.4078 12.1929 20.3702 12.4423 20.2913L12.4426 20.2912C12.7683 20.1868 13.033 20.0395 13.2318 19.8458C13.4902 19.595 13.6864 19.2694 13.8228 18.8727L13.8228 18.8727C13.9355 18.5447 13.9905 18.1581 13.9905 17.7152C13.9905 17.213 13.9321 16.7848 13.8121 16.4335C13.6925 16.0837 13.5172 15.7854 13.2852 15.5407C13.0518 15.2946 12.7708 15.1231 12.444 15.0267ZM12.3324 19.0726L12.3324 19.0726C12.2322 19.1633 12.104 19.2297 11.9444 19.2696L11.9439 19.2697C11.8247 19.3001 11.6203 19.3172 11.3232 19.3172H10.6263V16.016H11.0059C11.4424 16.016 11.7236 16.0332 11.86 16.064L11.86 16.064L11.8609 16.0642C12.0452 16.1042 12.1926 16.1796 12.3074 16.288C12.4221 16.3964 12.5156 16.5512 12.584 16.7586C12.6511 16.9623 12.6871 17.2635 12.6871 17.6684C12.6871 18.0727 12.6513 18.3842 12.5833 18.6074C12.5135 18.8364 12.4273 18.9867 12.3324 19.0726Z" fill="#344054" stroke="#344054" stroke-width="0.2"/>
<path d="M18.4265 16.016H18.5265V15.916V15.0217V14.9217H18.4265H14.8027H14.7027V15.0217V20.3078V20.4078H14.8027H15.87H15.97V20.3078V18.1614H18.0768H18.1768V18.0614V17.1672V17.0672H18.0768H15.97V16.016H18.4265Z" fill="#344054" stroke="#344054" stroke-width="0.2"/>
</g>
<defs>
<clipPath id="clip0_1714_13839">
<rect width="32" height="32" fill="white"/>
</clipPath>
</defs>
</svg>
